<?xml version="1.0" encoding="UTF-8" standalone="no"?>
<svg width="521px" height="522px" viewBox="0 0 521 522" version="1.1" xmlns="http://www.w3.org/2000/svg" xmlns:xlink="http://www.w3.org/1999/xlink">
    <!-- Generator: Sketch 42 (36781) - http://www.bohemiancoding.com/sketch -->
    <title>4146</title>
    <desc>Created with Sketch.</desc>
    <defs></defs>
    <g id="Page-1" stroke="none" stroke-width="1" fill="none" fill-rule="evenodd">
        <g id="1200-Special-Page-Copy" transform="translate(0.000000, -66.000000)">
            <g id="4146" transform="translate(0.000000, 66.000000)">
                <polygon id="Fill-1" fill="#FFFFFF" points="521 521.891419 521 0.807878893 0 0.807878893"></polygon>
                <path d="M139.231823,81.1055709 C140.302767,79.6632491 142.337924,79.3628408 143.77791,80.4341765 C145.216087,81.5018927 145.516385,83.5377924 144.449059,84.9801142 C143.379924,86.422436 141.344767,86.7228443 139.902972,85.6515087 C138.462986,84.580173 138.160878,82.5442734 139.231823,81.1055709" id="Fill-3" fill="#80CACA"></path>
                <path d="M294.958361,313.632457 C293.45325,311.967543 293.581691,309.397785 295.245997,307.892125 C296.910302,306.390083 299.479122,306.518571 300.982424,308.183484 C302.485726,309.848398 302.359094,312.416346 300.694788,313.920197 C299.030483,315.425858 296.461663,315.29737 294.958361,313.632457" id="Fill-4" fill="#80CACA"></path>
                <path d="M341.453993,490.674291 C341.750674,486.597062 345.298177,483.52964 349.372108,483.826429 C353.449656,484.121408 356.514149,487.668398 356.219278,491.747436 C355.922597,495.824664 352.376903,498.890277 348.301163,498.595298 C344.223615,498.298509 341.159122,494.751519 341.453993,490.674291" id="Fill-5" fill="#80CACA"></path>
                <path d="M120.830392,510.238834 C121.420135,512.421318 120.12849,514.672571 117.946802,515.262529 C115.763306,515.852488 113.514684,514.56218 112.923132,512.377886 C112.333389,510.195401 113.625035,507.942339 115.81034,507.352381 C117.992028,506.762422 120.240649,508.056349 120.830392,510.238834" id="Fill-6" fill="#80CACA"></path>
                <path d="M101.757813,18.072308 C103.378701,18.2840415 104.522007,19.7716055 104.308542,21.3948962 C104.096885,23.0163772 102.609865,24.1601003 100.987167,23.9483668 C99.3662778,23.7348235 98.2229722,22.2472595 98.4364375,20.6239689 C98.6480938,19.0024879 100.136924,17.8587647 101.757813,18.072308" id="Fill-7" fill="#80CACA"></path>
                <path d="M241.760281,457.484602 C244.20066,455.293069 247.95801,455.493945 250.148743,457.937024 C252.341285,460.378294 252.138674,464.135208 249.698295,466.32674 C247.257917,468.520083 243.500566,468.317398 241.309833,465.874318 C239.117292,463.433048 239.319903,459.676135 241.760281,457.484602" id="Fill-8" fill="#80CACA"></path>
                <path d="M289.343139,252.998841 C293.574455,254.433924 295.844785,259.028723 294.412035,263.259775 C292.981094,267.494446 288.387972,269.763796 284.154847,268.332332 C279.923531,266.899059 277.653201,262.30426 279.085951,258.071398 C280.518701,253.838536 285.111823,251.567377 289.343139,252.998841" id="Fill-9" fill="#80CACA"></path>
                <path d="M411.745576,260.489142 C410.79041,262.061761 408.740781,262.561235 407.168736,261.60391 C405.596691,260.648394 405.099208,258.598017 406.054375,257.025398 C407.009542,255.452779 409.05917,254.955114 410.631215,255.91063 C412.20326,256.866145 412.702552,258.916522 411.745576,260.489142" id="Fill-10" fill="#80CACA"></path>
                <path d="M162.611698,210.190657 C165.437399,208.618038 169.010229,209.636893 170.582274,212.465436 C172.157937,215.295789 171.137646,218.868114 168.310135,220.440734 C165.480816,222.015163 161.907986,220.996308 160.335941,218.165955 C158.763896,215.337412 159.780569,211.763277 162.611698,210.190657" id="Fill-11" fill="#80CACA"></path>
                <path d="M227.99358,323.982066 C229.619896,324.418201 230.584108,326.090353 230.148132,327.715453 C229.710347,329.340554 228.042424,330.305118 226.417917,329.870792 C224.79341,329.434657 223.829198,327.762505 224.263365,326.137405 C224.697531,324.512304 226.369073,323.54774 227.99358,323.982066" id="Fill-12" fill="#80CACA"></path>
                <path d="M461.692833,62.4657785 C461.189924,64.0094429 459.531045,64.8527578 457.987944,64.3478547 C456.444844,63.8447612 455.603646,62.1852768 456.106556,60.6434221 C456.609465,59.0997578 458.268344,58.2564429 459.811444,58.7595363 C461.352736,59.2644394 462.195743,60.9239239 461.692833,62.4657785" id="Fill-13" fill="#80CACA"></path>
                <path d="M445.943438,455.492135 C450.183799,457.260201 452.186392,462.131882 450.418972,466.371983 C448.653361,470.612083 443.781649,472.619028 439.544906,470.849152 C435.304545,469.082896 433.300142,464.209405 435.067563,459.969304 C436.834983,455.729204 441.703076,453.72226 445.943438,455.492135" id="Fill-14" fill="#80CACA"></path>
                <path d="M390.795226,181.9939 C393.014903,181.083626 395.55116,182.147723 396.459292,184.370021 C397.367424,186.588699 396.303715,189.127692 394.085847,190.036156 C391.86617,190.944619 389.329913,189.880522 388.421781,187.660035 C387.51184,185.439547 388.575549,182.902363 390.795226,181.9939" id="Fill-15" fill="#80CACA"></path>
                <path d="M492.17676,401.489218 C488.614785,403.97754 483.706892,403.10708 481.219479,399.540183 C478.732066,395.976907 479.602208,391.067221 483.165993,388.57709 C486.731587,386.086958 491.63767,386.961038 494.126892,390.527934 C496.614306,394.089401 495.742354,398.999087 492.17676,401.489218" id="Fill-16" fill="#80CACA"></path>
                <path d="M159.496552,407.137256 C159.049722,405.358332 160.131521,403.554073 161.909795,403.10708 C163.688069,402.661896 165.489861,403.740471 165.936691,405.521204 C166.38533,407.300128 165.303531,409.102578 163.525257,409.549571 C161.745174,409.996564 159.943382,408.91618 159.496552,407.137256" id="Fill-17" fill="#80CACA"></path>
                <path d="M160.809906,49.1211349 C162.655115,49.562699 163.794802,51.4194394 163.357017,53.2671315 C162.915615,55.1166332 161.059552,56.256737 159.212535,55.815173 C157.363708,55.373609 156.222212,53.5186782 156.665424,51.6691765 C157.106826,49.8232941 158.96108,48.6813806 160.809906,49.1211349" id="Fill-18" fill="#80CACA"></path>
                <path d="M12.4587743,178.655024 C10.8650208,177.726654 10.3277396,175.678087 11.2575799,174.085561 C12.1856111,172.491225 14.2316215,171.951938 15.825375,172.883927 C17.4191285,173.814107 17.9564097,175.859055 17.0265694,177.453391 C16.0967292,179.047727 14.0525278,179.587014 12.4587743,178.655024" id="Fill-19" fill="#80CACA"></path>
                <path d="M178.326722,91.3465986 C176.231868,91.7537785 174.203948,90.3820346 173.798726,88.2864152 C173.393503,86.1907958 174.762938,84.1621349 176.859601,83.754955 C178.956264,83.3477751 180.982375,84.719519 181.389406,86.8151384 C181.792819,88.9125675 180.421576,90.9412284 178.326722,91.3465986" id="Fill-20" fill="#80CACA"></path>
                <path d="M151.895017,142.110173 C151.336028,145.521436 148.117767,147.834218 144.704132,147.275024 C141.294115,146.714021 138.983986,143.492775 139.542976,140.081512 C140.103774,136.668439 143.323844,134.355657 146.732052,134.916661 C150.145687,135.475855 152.455816,138.6971 151.895017,142.110173" id="Fill-21" fill="#80CACA"></path>
                <path d="M326.847903,416.042734 C325.961479,417.486865 324.071045,417.935668 322.625632,417.047111 C321.183837,416.158554 320.735198,414.267429 321.621622,412.823298 C322.511663,411.379166 324.402097,410.930363 325.843892,411.81892 C327.289306,412.707478 327.737944,414.598602 326.847903,416.042734" id="Fill-22" fill="#80CACA"></path>
                <path d="M399.424288,144.21846 C398.626507,140.398208 401.081358,136.646723 404.902024,135.85227 C408.7245,135.054197 412.470997,137.509945 413.266969,141.330197 C414.06475,145.155879 411.611708,148.901934 407.789233,149.700007 C403.968566,150.49627 400.222069,148.042332 399.424288,144.21846" id="Fill-23" fill="#80CACA"></path>
                <path d="M16.9180278,469.7 C17.3160139,471.880675 15.8724097,473.976294 13.6907222,474.376235 C11.5108438,474.776176 9.41598958,473.332045 9.01619444,471.149561 C8.61459028,468.967076 10.0600035,466.871457 12.241691,466.471516 C14.4233785,466.071574 16.5164236,467.515706 16.9180278,469.7" id="Fill-24" fill="#80CACA"></path>
                <path d="M411.112417,19.7426505 C410.430413,21.3514637 408.57616,22.1006747 406.967934,21.4202318 C405.361517,20.7397889 404.610771,18.8830484 405.292774,17.276045 C405.972969,15.6672318 407.827222,14.9180208 409.433639,15.5984637 C411.041865,16.2789066 411.792611,18.1338374 411.112417,19.7426505" id="Fill-25" fill="#80CACA"></path>
                <path d="M306.384181,60.2290035 C307.601656,61.347391 307.683063,63.2421349 306.566892,64.4600554 C305.450722,65.6797855 303.55667,65.7612215 302.337385,64.6410242 C301.118101,63.5244464 301.036694,61.6297024 302.152865,60.4099723 C303.274462,59.1938616 305.166705,59.1106159 306.384181,60.2290035" id="Fill-26" fill="#80CACA"></path>
                <path d="M50.3705694,6.29666436 C53.3247118,7.61954671 54.6489201,11.08691 53.3301389,14.0403218 C52.0095486,16.9955433 48.5434514,18.322045 45.589309,16.9991626 C42.6351667,15.67809 41.3109583,12.214346 42.6315486,9.25912457 C43.9521389,6.30390311 47.4164271,4.97921107 50.3705694,6.29666436" id="Fill-27" fill="#80CACA"></path>
                <path d="M252.57284,99.88109 C254.398149,99.6295433 256.082354,100.905374 256.330191,102.733159 C256.581646,104.557325 255.306281,106.243955 253.480972,106.493692 C251.655663,106.741619 249.973267,105.465789 249.721812,103.641623 C249.472167,101.813837 250.747531,100.132637 252.57284,99.88109" id="Fill-28" fill="#80CACA"></path>
                <path d="M449.632045,159.749208 C452.530108,157.697021 456.542531,158.386512 458.593969,161.285633 C460.643597,164.184754 459.956167,168.198644 457.056295,170.25083 C454.160042,172.303017 450.145809,171.613526 448.096181,168.714405 C446.044743,165.815284 446.733983,161.801394 449.632045,159.749208" id="Fill-29" fill="#80CACA"></path>
                <path d="M450.073448,377.93974 C448.126934,379.91773 444.946663,379.943066 442.971205,377.997651 C440.992128,376.052235 440.968611,372.868993 442.915125,370.892813 C444.858021,368.914824 448.038292,368.889488 450.017368,370.836713 C451.992826,372.782128 452.018153,375.963561 450.073448,377.93974" id="Fill-30" fill="#80CACA"></path>
                <path d="M493.55524,38.5109308 C497.048472,40.9920138 497.87158,45.8401696 495.391403,49.3328685 C492.911226,52.8291869 488.066649,53.6507855 484.571608,51.1697024 C481.078375,48.6886194 480.258885,43.8422734 482.739063,40.3495744 C485.21924,36.8532561 490.062007,36.0298478 493.55524,38.5109308" id="Fill-31" fill="#80CACA"></path>
                <path d="M503.95534,339.120111 C508.192083,339.138208 511.612955,342.591093 511.598483,346.829384 C511.580392,351.067675 508.128767,354.489796 503.892024,354.471699 C499.655281,354.457221 496.236219,351.004336 496.2525,346.766045 C496.266972,342.527754 499.718597,339.107443 503.95534,339.120111" id="Fill-32" fill="#80CACA"></path>
                <path d="M43.9286215,288.883156 C46.9496979,286.990221 50.9313681,287.904114 52.8254201,290.924484 C54.7194722,293.943045 53.8077222,297.931599 50.7866458,299.824533 C47.7691875,301.719277 43.7838993,300.803574 41.8898472,297.785014 C39.9957951,294.764644 40.9111632,290.77609 43.9286215,288.883156" id="Fill-33" fill="#80CACA"></path>
                <path d="M228.908948,242.598561 C224.659542,242.730668 221.106611,239.386363 220.976361,235.133595 C220.84792,230.882637 224.189194,227.330218 228.438601,227.19992 C232.689816,227.071433 236.240937,230.415737 236.371187,234.668505 C236.499628,238.919464 233.158354,242.471882 228.908948,242.598561" id="Fill-34" fill="#80CACA"></path>
                <path d="M509.563326,304.564107 C511.014167,305.658969 511.309038,307.723824 510.212767,309.177003 C509.121924,310.630183 507.056014,310.921543 505.601556,309.830301 C504.150715,308.73363 503.857653,306.670585 504.952115,305.215595 C506.042958,303.760606 508.110677,303.471055 509.563326,304.564107" id="Fill-35" fill="#80CACA"></path>
                <path d="M17.3105868,61.3691073 C16.2287882,62.8096194 14.1863958,63.0973599 12.7464097,62.0133564 C11.3082326,60.9329723 11.0205972,58.8880242 12.1005868,57.4493218 C13.1823854,56.0088097 15.2283958,55.7192595 16.6665729,56.8014533 C18.10475,57.8854567 18.3941944,59.9304048 17.3105868,61.3691073" id="Fill-36" fill="#80CACA"></path>
                <path d="M20.5993993,308.26854 C20.0874444,309.931644 18.3200243,310.861824 16.6593368,310.347872 C14.9950313,309.832111 14.065191,308.065855 14.5825729,306.402751 C15.0981458,304.741457 16.8601389,303.811277 18.5244444,304.325228 C20.1851319,304.84099 21.1149722,306.607246 20.5993993,308.26854" id="Fill-37" fill="#80CACA"></path>
                <path d="M241.810934,31.2251246 C241.959274,33.1271073 240.537378,34.7902111 238.634281,34.9386055 C236.731184,35.087 235.066878,33.6627751 234.920347,31.7607924 C234.772007,29.8588097 236.193903,28.1957059 238.097,28.0473114 C240.000097,27.898917 241.664403,29.3213322 241.810934,31.2251246" id="Fill-38" fill="#80CACA"></path>
                <path d="M12.8368611,211.985869 C15.6408542,209.65318 19.8070451,210.035024 22.1388819,212.840042 C24.4707187,215.645059 24.0890139,219.812772 21.2850208,222.14546 C18.4828368,224.479958 14.3166458,224.096304 11.984809,221.291287 C9.64935417,218.48627 10.0346771,214.318557 12.8368611,211.985869" id="Fill-39" fill="#80CACA"></path>
                <path d="M10.6298472,394.197983 C10.2680417,391.8291 11.8961667,389.614042 14.2659931,389.252104 C16.6340104,388.890166 18.8500694,390.520696 19.210066,392.889578 C19.5700625,395.26027 17.9419375,397.473519 15.5739201,397.835457 C13.2040938,398.197394 10.9916528,396.568675 10.6298472,394.197983" id="Fill-40" fill="#80CACA"></path>
                <path d="M323.524719,179.512817 C324.038483,182.263543 322.227646,184.907498 319.479733,185.42326 C316.731819,185.939021 314.085212,184.127522 313.571448,181.376796 C313.057684,178.629689 314.868521,175.982114 317.614625,175.468163 C320.364347,174.952401 323.010955,176.7639 323.524719,179.512817" id="Fill-41" fill="#80CACA"></path>
                <path d="M201.572729,404.2689 C204.235618,406.035156 204.964656,409.629197 203.200854,412.294869 C201.435243,414.96054 197.840705,415.688035 195.181434,413.921779 C192.516736,412.157332 191.785889,408.561481 193.5515,405.897619 C195.31892,403.231948 198.908031,402.504453 201.572729,404.2689" id="Fill-42" fill="#80CACA"></path>
                <path d="M73.7251181,471.822765 C71.5796111,473.855045 68.1913021,473.762751 66.1597639,471.614651 C64.1282257,469.46836 64.2241042,466.078813 66.3678021,464.048343 C68.5169271,462.014253 71.9052361,462.108356 73.9349653,464.256457 C75.9665035,466.402747 75.872434,469.792294 73.7251181,471.822765" id="Fill-43" fill="#80CACA"></path>
                <path d="M90.0769201,209.242381 C86.9816736,211.10817 82.9602049,210.111031 81.0950972,207.016464 C79.2299896,203.921896 80.2267639,199.898958 83.3183924,198.02955 C86.4136389,196.163761 90.4332986,197.1609 92.2984062,200.255467 C94.168941,203.350035 93.1721667,207.374782 90.0769201,209.242381" id="Fill-44" fill="#80CACA"></path>
                <path d="M420.598958,304.308941 C417.362608,306.741163 412.765868,306.086055 410.334535,302.848522 C407.901392,299.61099 408.558069,295.012571 411.79442,292.582159 C415.030771,290.149938 419.62751,290.803235 422.058844,294.040768 C424.488368,297.278301 423.835309,301.87672 420.598958,304.308941" id="Fill-45" fill="#80CACA"></path>
                <path d="M49.1820382,260.901751 C46.5969375,263.238059 42.6080312,263.033564 40.2725764,260.449329 C37.9371215,257.863284 38.1379236,253.87292 40.7248333,251.536612 C43.306316,249.200304 47.2970312,249.40118 49.6342951,251.987225 C51.967941,254.57327 51.7653299,258.565443 49.1820382,260.901751" id="Fill-46" fill="#80CACA"></path>
                <path d="M108.272122,163.390301 C106.417868,160.777111 107.034747,157.157734 109.645174,155.306422 C112.25741,153.455111 115.875465,154.068595 117.72791,156.681785 C119.580354,159.293166 118.963476,162.912543 116.35124,164.765664 C113.740812,166.616976 110.122757,166.001682 108.272122,163.390301" id="Fill-47" fill="#80CACA"></path>
                <path d="M461.68017,238.291502 C462.642573,239.634291 462.336847,241.501889 460.996358,242.464644 C459.655868,243.425588 457.79076,243.121561 456.82474,241.780581 C455.864146,240.439602 456.169872,238.572003 457.510361,237.609249 C458.850851,236.646495 460.719576,236.952332 461.68017,238.291502" id="Fill-48" fill="#80CACA"></path>
                <path d="M484.419649,427.724273 C484.893615,429.581014 483.772017,431.468519 481.917764,431.940848 C480.06351,432.411367 478.176694,431.29117 477.702729,429.436239 C477.230573,427.579498 478.35217,425.691993 480.206424,425.221474 C482.060677,424.749145 483.947493,425.869343 484.419649,427.724273" id="Fill-49" fill="#80CACA"></path>
                <path d="M359.634722,453.344035 C357.775042,449.878481 359.077542,445.564183 362.540021,443.705633 C366.0025,441.848893 370.317031,443.150059 372.174903,446.613803 C374.032774,450.077547 372.730274,454.393654 369.267795,456.252204 C365.805316,458.108945 361.490785,456.807779 359.634722,453.344035" id="Fill-50" fill="#80CACA"></path>
                <path d="M16.1003472,261.812024 C13.9819757,263.498654 10.8921563,263.147574 9.20433333,261.026619 C7.51831944,258.905664 7.86927083,255.816526 9.98764236,254.126277 C12.1096319,252.439647 15.1976424,252.790727 16.8854653,254.911682 C18.5750972,257.034446 18.2205278,260.123585 16.1003472,261.812024" id="Fill-51" fill="#80CACA"></path>
                <path d="M84.2428056,400.946311 C87.2331285,402.354249 88.5157292,405.917526 87.1101146,408.907131 C85.706309,411.896737 82.1407153,413.181616 79.1522014,411.777298 C76.1636875,410.36936 74.8810868,406.806083 76.2867014,403.814668 C77.692316,400.826872 81.2542917,399.541993 84.2428056,400.946311" id="Fill-52" fill="#80CACA"></path>
                <path d="M248.178712,169.058246 C247.422538,165.865955 249.394378,162.662806 252.587312,161.904547 C255.778437,161.148097 258.980417,163.120657 259.73659,166.312948 C260.496382,169.507048 258.520924,172.708388 255.331608,173.464837 C252.140483,174.224907 248.938503,172.250536 248.178712,169.058246" id="Fill-53" fill="#80CACA"></path>
                <path d="M121.492497,45.0963875 C124.175285,44.2404048 127.042594,45.7207301 127.898264,48.4044983 C128.753934,51.0864567 127.27234,53.9530035 124.591361,54.8089862 C121.910382,55.6631592 119.043073,54.1828339 118.185594,51.5008754 C117.329924,48.8171073 118.813326,45.9505606 121.492497,45.0963875" id="Fill-54" fill="#80CACA"></path>
                <path d="M97.1393646,241.415024 C96.906,244.281571 94.3986875,246.417003 91.5331875,246.187173 C88.6713056,245.953723 86.5366528,243.443685 86.7663993,240.577138 C86.9997639,237.714211 89.5070764,235.578779 92.3689583,235.808609 C95.2344583,236.042059 97.3691111,238.552097 97.1393646,241.415024" id="Fill-55" fill="#80CACA"></path>
                <path d="M363.316094,154.012495 C366.791236,154.575308 369.155635,157.850844 368.593028,161.329066 C368.03042,164.803668 364.757889,167.168931 361.282747,166.606118 C357.805795,166.045114 355.441396,162.771388 356.004003,159.293166 C356.566611,155.814945 359.840951,153.451491 363.316094,154.012495" id="Fill-56" fill="#80CACA"></path>
                <path d="M43.4058125,93.5055571 C42.2227083,89.4337578 44.5653993,85.1701315 48.6357118,83.9902145 C52.7096424,82.8048685 56.9662847,85.1484152 58.1511979,89.2202145 C59.330684,93.2956332 56.9879931,97.5556401 52.9176806,98.7391765 C48.8473681,99.9209031 44.5852986,97.5773564 43.4058125,93.5055571" id="Fill-57" fill="#80CACA"></path>
                <path d="M226.280431,435.098754 C227.407455,436.69309 227.027559,438.897291 225.435615,440.022917 C223.84367,441.148543 221.642083,440.768509 220.51325,439.175983 C219.389844,437.583457 219.767931,435.381066 221.361684,434.255439 C222.951819,433.129813 225.157024,433.509848 226.280431,435.098754" id="Fill-58" fill="#80CACA"></path>
                <path d="M240.063413,398.231779 C239.321712,395.904519 240.607931,393.418007 242.932531,392.677844 C245.258941,391.937682 247.744545,393.22437 248.486247,395.54982 C249.226139,397.87708 247.93992,400.363592 245.61351,401.103754 C243.28891,401.843917 240.801497,400.559038 240.063413,398.231779" id="Fill-59" fill="#80CACA"></path>
                <path d="M96.0792743,306.978232 C98.3170417,306.936609 100.164059,308.719152 100.207476,310.955927 C100.249083,313.192702 98.469,315.040394 96.2312326,315.082017 C93.9952743,315.12364 92.1464479,313.341097 92.1048403,311.104322 C92.0632326,308.867547 93.843316,307.019855 96.0792743,306.978232" id="Fill-60" fill="#80CACA"></path>
                <path d="M473.319455,455.63691 C476.56666,453.582913 480.863101,454.551097 482.914538,457.799488 C484.967785,461.047879 483.999955,465.345889 480.75275,467.399886 C477.507354,469.450263 473.209104,468.48208 471.157667,465.237308 C469.106229,461.988917 470.075868,457.690907 473.319455,455.63691" id="Fill-61" fill="#80CACA"></path>
                <path d="M368.193233,508.972052 C369.099556,510.358273 368.708806,512.222253 367.321281,513.128907 C365.931948,514.035561 364.072267,513.644668 363.165944,512.254827 C362.259622,510.868606 362.650372,509.004626 364.037896,508.097972 C365.427229,507.191318 367.285101,507.582211 368.193233,508.972052" id="Fill-62" fill="#80CACA"></path>
                <path d="M276.070302,179.000675 C277.803351,175.701612 281.882708,174.43483 285.180566,176.168512 C288.476615,177.904003 289.742934,181.984851 288.009885,185.282104 C286.275028,188.581166 282.19567,189.847948 278.899622,188.112457 C275.603573,186.378775 274.335444,182.297927 276.070302,179.000675" id="Fill-63" fill="#E576A3"></path>
                <path d="M392.808674,109.369287 C391.898733,111.164498 389.702573,111.882945 387.906208,110.970862 C386.111653,110.060588 385.393469,107.863626 386.305219,106.068415 C387.216969,104.273204 389.411319,103.554758 391.207684,104.466841 C393.00224,105.378924 393.720424,107.574076 392.808674,109.369287" id="Fill-64" fill="#E576A3"></path>
                <path d="M266.884059,280.616498 C270.270559,283.428754 270.737288,288.45426 267.926059,291.841997 C265.11483,295.227924 260.089351,295.694824 256.70466,292.882567 C253.31816,290.070311 252.85324,285.042997 255.664469,281.65526 C258.475698,278.269332 263.499368,277.804242 266.884059,280.616498" id="Fill-65" fill="#E576A3"></path>
                <path d="M461.506503,290.94801 C461.864691,286.686194 465.60576,283.515619 469.869639,283.868509 C474.131708,284.225017 477.301125,287.971073 476.946556,292.234699 C476.590177,296.500135 472.84549,299.6689 468.58342,299.314201 C464.32316,298.957692 461.153743,295.213446 461.506503,290.94801" id="Fill-66" fill="#E576A3"></path>
                <path d="M405.061219,405.076021 C405.285538,403.210232 406.982406,401.88373 408.843896,402.108131 C410.705385,402.334343 412.035021,404.030021 411.808892,405.89219 C411.582764,407.75617 409.889514,409.082671 408.028024,408.85827 C406.164726,408.632059 404.836899,406.93819 405.061219,405.076021" id="Fill-67" fill="#E576A3"></path>
                <path d="M48.8148056,214.76736 C50.1932847,213.766602 52.1217083,214.07063 53.1257188,215.449612 C54.1279201,216.828595 53.8221944,218.761343 52.4437153,219.7621 C51.0652361,220.764668 49.1350035,220.46064 48.1328021,219.079848 C47.1324097,217.702675 47.4381354,215.769927 48.8148056,214.76736" id="Fill-68" fill="#E576A3"></path>
                <path d="M384.389458,71.9793114 C384.288153,73.626128 382.868066,74.8748131 381.220042,74.7716609 C379.573826,74.6648893 378.323788,73.2442837 378.428712,71.5974671 C378.535444,69.9542699 379.955531,68.7037751 381.598128,68.8051176 C383.246153,68.9118893 384.496191,70.3324948 384.389458,71.9793114" id="Fill-69" fill="#E576A3"></path>
                <path d="M452.285889,503.937498 C451.077458,505.117415 449.136372,505.095699 447.956885,503.883208 C446.777399,502.674336 446.799108,500.734349 448.009347,499.554433 C449.217778,498.372706 451.158865,498.398042 452.338351,499.606913 C453.517837,500.815785 453.496128,502.755772 452.285889,503.937498" id="Fill-70" fill="#E576A3"></path>
                <path d="M449.579583,416.605547 C449.720687,419.89918 447.16634,422.68791 443.868483,422.830875 C440.576052,422.973841 437.78834,420.416751 437.647236,417.121308 C437.502514,413.825865 440.060479,411.038945 443.35291,410.89417 C446.648958,410.751204 449.43667,413.308294 449.579583,416.605547" id="Fill-71" fill="#E576A3"></path>
                <path d="M504.906889,509.533055 C505.033521,507.650979 506.658028,506.224945 508.541226,506.351623 C510.424424,506.476491 511.848128,508.101592 511.725115,509.985478 C511.602101,511.869363 509.972167,513.293588 508.088969,513.170529 C506.209389,513.045661 504.782066,511.416941 504.906889,509.533055" id="Fill-72" fill="#E576A3"></path>
                <path d="M410.050517,501.105336 C411.864972,504.646896 410.461167,508.991958 406.920899,510.803457 C403.378823,512.616765 399.037156,511.217875 397.22451,507.676315 C395.410056,504.131135 396.813861,499.787882 400.354128,497.974574 C403.896205,496.161266 408.236063,497.563775 410.050517,501.105336" id="Fill-73" fill="#E576A3"></path>
                <path d="M128.762979,229.905405 C129.365385,228.1301 131.292,227.180014 133.066656,227.78445 C134.839503,228.387076 135.789243,230.314394 135.185028,232.089699 C134.582622,233.863194 132.656007,234.81509 130.88316,234.210654 C129.108503,233.608028 128.158764,231.6789 128.762979,229.905405" id="Fill-74" fill="#E576A3"></path>
                <path d="M404.950868,366.404785 C406.115882,365.118097 408.105812,365.016754 409.392031,366.182194 C410.681868,367.347633 410.779556,369.338291 409.614542,370.624979 C408.449528,371.911668 406.463215,372.01301 405.173378,370.849381 C403.88716,369.682131 403.787663,367.693284 404.950868,366.404785" id="Fill-75" fill="#E576A3"></path>
                <path d="M323.508438,118.320007 C323.631451,120.073595 322.310861,121.597353 320.557913,121.720412 C318.803156,121.84528 317.279955,120.522398 317.155132,118.770619 C317.032118,117.013412 318.352708,115.489654 320.109274,115.366595 C321.862222,115.241727 323.385424,116.564609 323.508438,118.320007" id="Fill-76" fill="#E576A3"></path>
                <path d="M270.321212,66.438045 C269.628354,68.5517612 267.352597,69.7063426 265.237844,69.0132318 C263.124899,68.3219308 261.97074,66.0453426 262.663597,63.9280069 C263.356455,61.8142907 265.632212,60.661519 267.746965,61.3546298 C269.85991,62.0477405 271.014069,64.3243287 270.321212,66.438045" id="Fill-77" fill="#E576A3"></path>
                <path d="M427.786226,223.855616 C426.621212,225.487955 424.350882,225.869799 422.71733,224.707979 C421.083778,223.544349 420.702073,221.271381 421.863469,219.639042 C423.028483,218.003083 425.298813,217.621239 426.932365,218.783059 C428.565917,219.950308 428.947622,222.219657 427.786226,223.855616" id="Fill-78" fill="#E576A3"></path>
                <path d="M152.124764,482.784048 C148.445201,485.406287 143.332889,484.548495 140.711608,480.865779 C138.088517,477.181253 138.949615,472.067073 142.629177,469.444834 C146.310549,466.822595 151.421052,467.680388 154.042333,471.364913 C156.665424,475.04763 155.806135,480.16181 152.124764,482.784048" id="Fill-79" fill="#E576A3"></path>
                <path d="M259.407347,495.755896 C260.206937,497.364709 259.552069,499.317363 257.945653,500.117246 C256.337427,500.917128 254.383677,500.262021 253.585896,498.655017 C252.784497,497.046204 253.441174,495.09355 255.04759,494.291858 C256.655816,493.493785 258.605948,494.147083 259.407347,495.755896" id="Fill-80" fill="#E576A3"></path>
                <path d="M153.530378,334.134419 C151.468087,338.101256 146.580094,339.64492 142.612896,337.585495 C138.649316,335.52064 137.102597,330.632671 139.164889,326.664024 C141.227181,322.697187 146.115174,321.151713 150.082372,323.212948 C154.045951,325.277803 155.59267,330.165772 153.530378,334.134419" id="Fill-81" fill="#E576A3"></path>
                <path d="M275.489604,434.829111 C278.79108,432.68101 283.212344,433.61481 285.35966,436.917491 C287.508785,440.221983 286.571708,444.641242 283.272042,446.789343 C279.968757,448.939253 275.547493,448.003644 273.400177,444.700962 C271.251052,441.39828 272.188128,436.979021 275.489604,434.829111" id="Fill-82" fill="#E576A3"></path>
                <path d="M51.0453368,182.554903 C48.3426493,184.576325 44.5129375,184.017131 42.4940625,181.313457 C40.4769965,178.609782 41.0323681,174.782291 43.7350556,172.760869 C46.4377431,170.741256 50.2674549,171.29683 52.2845208,174.000505 C54.3033958,176.70418 53.7480243,180.535291 51.0453368,182.554903" id="Fill-83" fill="#E576A3"></path>
                <path d="M28.7490694,138.669955 C26.9906944,138.425647 25.7605556,136.804166 26.0047743,135.046958 C26.245375,133.287941 27.8662639,132.057353 29.6246389,132.299851 C31.3830139,132.542349 32.6113437,134.16383 32.3707431,135.922848 C32.1283333,137.681865 30.5056354,138.908834 28.7490694,138.669955" id="Fill-84" fill="#E576A3"></path>
                <path d="M78.8591389,271.682066 C80.688066,269.15755 84.2174792,268.594737 86.7392639,270.422522 C89.2628576,272.252118 89.8254653,275.78282 87.9965382,278.307336 C86.1694201,280.830042 82.6400069,281.392855 80.1164132,279.56326 C77.5946285,277.733664 77.0320208,274.204772 78.8591389,271.682066" id="Fill-85" fill="#E576A3"></path>
                <path d="M219.863809,190.702121 C222.412729,187.669083 226.938917,187.272761 229.972656,189.824422 C233.006396,192.372464 233.398955,196.900304 230.848226,199.936962 C228.301115,202.97 223.774927,203.362702 220.739378,200.814661 C217.709257,198.26119 217.316698,193.733349 219.863809,190.702121" id="Fill-86" fill="#E576A3"></path>
                <path d="M362.939816,259.358087 C363.755688,260.894512 363.173181,262.800114 361.637316,263.619903 C360.10326,264.436073 358.194736,263.853353 357.378865,262.316927 C356.562993,260.780502 357.1455,258.8749 358.677747,258.055111 C360.21542,257.238941 362.122135,257.821661 362.939816,259.358087" id="Fill-87" fill="#E576A3"></path>
                <path d="M208.405427,163.16228 C207.282021,160.543661 208.494069,157.507003 211.111733,156.383187 C213.729396,155.25937 216.764944,156.471862 217.888351,159.090481 C219.011757,161.71091 217.799708,164.745758 215.182045,165.869574 C212.562573,166.993391 209.528833,165.7809 208.405427,163.16228" id="Fill-88" fill="#E576A3"></path>
                <path d="M93.0690521,130.341768 C90.4097813,126.715152 91.1912813,121.61726 94.8183819,118.955208 C98.4436736,116.293156 103.539705,117.076751 106.198976,120.705176 C108.860056,124.331792 108.078556,129.429685 104.451455,132.091737 C100.824354,134.753789 95.7301319,133.970194 93.0690521,130.341768" id="Fill-89" fill="#E576A3"></path>
                <path d="M79.5972222,153.047931 C83.2984931,154.770754 84.9049097,159.168298 83.1790972,162.87092 C81.4587118,166.571734 77.0645833,168.175118 73.3615035,166.454104 C69.6620417,164.73128 68.057434,160.331927 69.7778194,156.631114 C71.5018229,152.930301 75.8977604,151.325107 79.5972222,153.047931" id="Fill-90" fill="#E576A3"></path>
                <path d="M25.0188542,349.594588 C24.7673993,351.587055 22.9511354,353.000422 20.9630139,352.754304 C18.9730833,352.504567 17.5602326,350.68764 17.8080694,348.696983 C18.0540972,346.706325 19.8703611,345.291149 21.8602917,345.539076 C23.8520312,345.788813 25.266691,347.60574 25.0188542,349.594588" id="Fill-91" fill="#E576A3"></path>
                <path d="M403.617615,477.744066 C402.624458,476.346986 402.953701,474.412429 404.350271,473.42072 C405.743222,472.42901 407.677073,472.756564 408.670229,474.153644 C409.659767,475.548913 409.334142,477.481661 407.939382,478.47518 C406.542812,479.466889 404.607153,479.139336 403.617615,477.744066" id="Fill-92" fill="#E576A3"></path>
                <path d="M44.9579583,413.699187 C46.0904097,412.46317 48.0134062,412.379924 49.2507812,413.512789 C50.4863472,414.647464 50.5677535,416.569353 49.4334931,417.80718 C48.3028507,419.043197 46.3816632,419.124633 45.1442882,417.991768 C43.9069132,416.857093 43.8236979,414.937014 44.9579583,413.699187" id="Fill-93" fill="#E576A3"></path>
                <path d="M492.36309,270.393567 C489.475882,270.223457 487.270677,267.742374 487.440726,264.854111 C487.610774,261.967657 490.090951,259.761647 492.97816,259.931758 C495.863559,260.100059 498.068764,262.581142 497.898715,265.469405 C497.730476,268.357668 495.250299,270.563678 492.36309,270.393567" id="Fill-94" fill="#E576A3"></path>
                <path d="M350.245868,124.007858 C352.266552,123.050533 354.679795,123.908325 355.636771,125.927938 C356.593747,127.94574 355.736267,130.359865 353.717392,131.32081 C351.700326,132.278135 349.287083,131.420343 348.328299,129.40254 C347.369514,127.379308 348.228802,124.965183 350.245868,124.007858" id="Fill-95" fill="#E576A3"></path>
                <path d="M176.48875,369.445062 C176.219205,373.98919 172.317132,377.456554 167.776472,377.18691 C163.232194,376.920886 159.766097,373.019197 160.035642,368.475069 C160.301569,363.929131 164.205451,360.461768 168.746111,360.729602 C173.28858,360.997436 176.754677,364.900934 176.48875,369.445062" id="Fill-96" fill="#E576A3"></path>
                <path d="M480.144917,362.982664 C481.280986,361.426332 483.464483,361.08792 485.020247,362.224405 C486.57601,363.362699 486.914299,365.546993 485.77642,367.103325 C484.640351,368.659657 482.456854,368.998069 480.90109,367.859775 C479.347135,366.721481 479.007038,364.537187 480.144917,362.982664" id="Fill-97" fill="#E576A3"></path>
                <path d="M154.107458,290.727228 C156.72874,288.365585 160.770108,288.580938 163.130889,291.204986 C165.489861,293.829035 165.274587,297.870069 162.653306,300.231713 C160.030215,302.593356 155.988847,302.379813 153.629875,299.753955 C151.269094,297.129907 151.482559,293.088872 154.107458,290.727228" id="Fill-98" fill="#E576A3"></path>
                <path d="M321.742826,352.768782 C320.912483,354.601997 318.752503,355.412737 316.918149,354.58209 C315.089222,353.751443 314.276969,351.590675 315.107312,349.75746 C315.939465,347.926055 318.099444,347.113505 319.930181,347.944152 C321.762726,348.774799 322.57317,350.937377 321.742826,352.768782" id="Fill-99" fill="#E576A3"></path>
                <path d="M371.928875,346.33172 C372.634396,343.910356 375.174271,342.520516 377.59475,343.229913 C380.01342,343.937502 381.400944,346.476495 380.693615,348.897858 C379.984476,351.319221 377.44641,352.707253 375.02774,351.999664 C372.60726,351.290266 371.217927,348.753083 371.928875,346.33172" id="Fill-100" fill="#E576A3"></path>
                <path d="M184.891684,342.828163 C182.90899,342.623668 181.469003,340.844744 181.673424,338.863135 C181.877844,336.876097 183.654309,335.433775 185.637003,335.64008 C187.623316,335.844574 189.065111,337.621689 188.858882,339.605107 C188.652653,341.592145 186.877997,343.032657 184.891684,342.828163" id="Fill-101" fill="#E576A3"></path>
                <path d="M79.4271736,67.7699758 C78.9821528,71.4671696 75.6264062,74.1075052 71.9305625,73.6659412 C68.2311007,73.2243772 65.5917292,69.8655952 66.03675,66.164782 C66.4781528,62.4675882 69.8338993,59.8272526 73.5297431,60.2688166 C77.2292049,60.7121903 79.8685764,64.0691626 79.4271736,67.7699758" id="Fill-102" fill="#E576A3"></path>
                <path d="M410.701767,438.734419 C411.890299,440.518772 411.405479,442.927467 409.625396,444.112813 C407.841694,445.298159 405.433878,444.816782 404.247156,443.032429 C403.062243,441.251696 403.543444,438.84119 405.328955,437.655844 C407.109038,436.468689 409.516854,436.951875 410.701767,438.734419" id="Fill-103" fill="#E576A3"></path>
                <path d="M480.741896,136.371651 C485.300646,136.216017 489.123122,139.786533 489.278698,144.345138 C489.434274,148.903744 485.865062,152.727616 481.308122,152.883249 C476.751181,153.040692 472.930514,149.470176 472.774937,144.911571 C472.617552,140.351156 476.186764,136.529093 480.741896,136.371651" id="Fill-104" fill="#E576A3"></path>
                <path d="M118.402677,190.468671 C119.309,187.171419 122.717208,185.233242 126.011448,186.139896 C129.307497,187.04655 131.244965,190.456003 130.338642,193.751446 C129.432319,197.046889 126.024111,198.986875 122.729872,198.080221 C119.433823,197.173567 117.496354,193.764114 118.402677,190.468671" id="Fill-105" fill="#E576A3"></path>
                <path d="M299.479122,146.355702 C298.315917,147.493997 296.450809,147.47228 295.312931,146.308651 C294.176861,145.145021 294.198569,143.281042 295.361774,142.142747 C296.524979,141.004453 298.390087,141.02436 299.526156,142.18799 C300.662226,143.353429 300.642326,145.219218 299.479122,146.355702" id="Fill-106" fill="#E576A3"></path>
                <path d="M177.800295,134.976381 C174.705049,133.575682 173.330188,129.932779 174.730375,126.836401 C176.128753,123.740024 179.772135,122.364661 182.867382,123.76355 C185.962628,125.164249 187.33749,128.807152 185.937302,131.903529 C184.542542,134.999907 180.895542,136.37527 177.800295,134.976381" id="Fill-107" fill="#E576A3"></path>
                <path d="M350.292903,195.94117 C351.971681,195.631713 353.583524,196.742862 353.894677,198.420443 C354.202212,200.101644 353.093278,201.715886 351.4145,202.023533 C349.735722,202.33299 348.123878,201.223651 347.814535,199.54426 C347.503382,197.864869 348.614125,196.250626 350.292903,195.94117" id="Fill-108" fill="#E576A3"></path>
                <path d="M104.011861,441.264363 C100.346771,439.633834 98.6933194,435.337633 100.321444,431.669394 C101.949569,428.002965 106.244201,426.34891 109.91291,427.97763 C113.578,429.606349 115.231451,433.90255 113.603326,437.572599 C111.973392,441.239028 107.67876,442.893083 104.011861,441.264363" id="Fill-109" fill="#E576A3"></path>
                <path d="M502.421285,468.661239 C503.150323,465.588388 506.229288,463.686405 509.301017,464.4139 C512.370937,465.141394 514.272226,468.221484 513.544997,471.292526 C512.821385,474.367187 509.738802,476.26736 506.668882,475.539865 C503.598962,474.81418 501.695865,471.73409 502.421285,468.661239" id="Fill-110" fill="#E576A3"></path>
                <path d="M436.283229,331.226249 C434.559226,332.683048 431.979552,332.464076 430.523285,330.737633 C429.068826,329.013 429.287719,326.434194 431.011722,324.977394 C432.737535,323.520595 435.317208,323.739567 436.769858,325.464201 C438.226125,327.192453 438.007233,329.77126 436.283229,331.226249" id="Fill-111" fill="#E576A3"></path>
                <path d="M328.012917,249.676253 C325.957861,249.328792 324.572146,247.377948 324.91767,245.320332 C325.265003,243.264526 327.211517,241.878304 329.268382,242.223955 C331.323438,242.571415 332.712771,244.51864 332.367247,246.576256 C332.018104,248.632062 330.069781,250.021903 328.012917,249.676253" id="Fill-112" fill="#E576A3"></path>
                <path d="M67.9796458,499.069436 C71.572375,496.870664 76.2686111,498.00172 78.4647708,501.597571 C80.6609306,505.191612 79.5302882,509.887754 75.937559,512.084716 C72.3430208,514.281678 67.6504028,513.150623 65.4542431,509.556581 C63.2562743,505.964349 64.3869167,501.266398 67.9796458,499.069436" id="Fill-113" fill="#E576A3"></path>
                <path d="M510.364726,423.679619 C513.181382,424.25691 514.995837,427.009446 514.418757,429.823512 C513.841677,432.641197 511.090146,434.456315 508.277108,433.880834 C505.460451,433.301734 503.645997,430.551007 504.224885,427.733322 C504.800156,424.917446 507.549878,423.104138 510.364726,423.679619" id="Fill-114" fill="#E576A3"></path>
                <path d="M347.535944,375.550952 C350.03783,378.460931 349.710396,382.845806 346.806906,385.348606 C343.899799,387.851405 339.514715,387.522042 337.01283,384.617491 C334.510944,381.711131 334.840188,377.326256 337.743677,374.823457 C340.648976,372.317038 345.034059,372.646401 347.535944,375.550952" id="Fill-115" fill="#E576A3"></path>
                <path d="M107.465295,81.7805848 C108.691816,84.4715917 107.505094,87.6494048 104.81326,88.8763737 C102.125045,90.1033426 98.9483924,88.9143772 97.7218715,86.2233702 C96.4971597,83.5323633 97.6838819,80.3563599 100.372097,79.129391 C103.063931,77.9024221 106.238774,79.0895779 107.465295,81.7805848" id="Fill-116" fill="#E576A3"></path>
                <path d="M501.979882,142.542689 C501.750135,138.977602 504.454632,135.893893 508.020226,135.662253 C511.587628,135.432422 514.666594,138.139716 514.898149,141.704803 C515.129705,145.271699 512.425208,148.353599 508.857806,148.583429 C505.290403,148.816879 502.211437,146.109585 501.979882,142.542689" id="Fill-117" fill="#E576A3"></path>
                <path d="M491.45134,180.743405 C494.409101,177.913052 499.09991,178.018014 501.92742,180.973235 C504.75674,183.930266 504.653625,188.622789 501.697674,191.453142 C498.739913,194.283495 494.050913,194.180343 491.221594,191.223311 C488.392274,188.264471 488.495389,183.571948 491.45134,180.743405" id="Fill-118" fill="#E576A3"></path>
                <path d="M28.9552986,502.810062 C26.5492917,501.222965 25.8853785,497.981813 27.4755139,495.573118 C29.0602222,493.166232 32.300191,492.502076 34.7061979,494.090983 C37.1140139,495.679889 37.7779271,498.921042 36.1914097,501.327927 C34.6012743,503.734813 31.3613056,504.398969 28.9552986,502.810062" id="Fill-119" fill="#E576A3"></path>
                <path d="M370.59924,14.2882491 C374.928243,13.4503633 379.117951,16.282526 379.95734,20.611301 C380.796729,24.9418858 377.96741,29.1331246 373.638406,29.9710104 C369.309403,30.8125156 365.119694,27.9785433 364.280306,23.6479585 C363.440917,19.3173737 366.272045,15.1297543 370.59924,14.2882491" id="Fill-120" fill="#E576A3"></path>
                <path d="M61.5141806,337.661502 C58.2488854,334.601318 58.0806458,329.472661 61.1397118,326.206173 C64.1969687,322.939685 69.3255625,322.771384 72.5908576,325.831567 C75.8561528,328.889941 76.0243924,334.018599 72.9653264,337.286896 C69.9080694,340.551574 64.7794757,340.719875 61.5141806,337.661502" id="Fill-121" fill="#E576A3"></path>
                <path d="M113.330163,348.780228 C112.863434,346.782332 114.104427,344.780817 116.103403,344.312107 C118.102378,343.845208 120.103163,345.088464 120.568083,347.08817 C121.034813,349.086066 119.795628,351.087581 117.794844,351.552671 C115.799486,352.021381 113.798701,350.779934 113.330163,348.780228" id="Fill-122" fill="#E576A3"></path>
                <path d="M249.197194,125.292737 C253.860868,125.21673 257.701434,128.93564 257.779222,133.597398 C257.853392,138.259156 254.139458,142.102934 249.475785,142.180751 C244.815729,142.256758 240.975163,138.537848 240.897375,133.87609 C240.819587,129.214332 244.537139,125.370554 249.197194,125.292737" id="Fill-123" fill="#FBD25B"></path>
                <path d="M291.284226,94.6872837 C293.702896,94.9786436 295.432326,97.1792249 295.141073,99.6005882 C294.849819,102.021952 292.651851,103.750204 290.231372,103.458844 C287.810892,103.167484 286.08508,100.968713 286.374524,98.5473495 C286.663969,96.1259862 288.863747,94.3977336 291.284226,94.6872837" id="Fill-124" fill="#FBD25B"></path>
                <path d="M128.885993,113.090007 C128.126201,111.506529 128.797351,109.606356 130.38025,108.848097 C131.963149,108.091647 133.864438,108.761232 134.620611,110.346519 C135.376785,111.929997 134.709253,113.82836 133.126354,114.588429 C131.539837,115.344879 129.642167,114.675294 128.885993,113.090007" id="Fill-125" fill="#FBD25B"></path>
                <path d="M346.647712,300.293242 C350.757823,300.495927 353.923622,303.990436 353.72101,308.098429 C353.523826,312.204612 350.028785,315.375187 345.920483,315.174311 C341.81399,314.973436 338.648191,311.480737 338.847184,307.369125 C339.047986,303.262941 342.543028,300.092367 346.647712,300.293242" id="Fill-126" fill="#FBD25B"></path>
                <path d="M337.363781,91.0697163 C333.743917,92.4794637 329.66275,90.6914913 328.253517,87.0684948 C326.842476,83.4491176 328.631604,79.3664602 332.253278,77.9530934 C335.871333,76.543346 339.9525,78.3349377 341.363542,81.9543149 C342.774583,85.5773114 340.983646,89.6599689 337.363781,91.0697163" id="Fill-127" fill="#FBD25B"></path>
                <path d="M218.955677,505.414204 C217.372778,505.893772 215.697618,504.996166 215.220035,503.412689 C214.740642,501.827401 215.634302,500.155249 217.220819,499.673872 C218.803719,499.194304 220.477069,500.09191 220.956462,501.677197 C221.435854,503.260675 220.538576,504.932827 218.955677,505.414204" id="Fill-128" fill="#FBD25B"></path>
                <path d="M382.949472,223.218606 C383.477708,225.346799 382.184253,227.503948 380.058646,228.034187 C377.931229,228.564426 375.776677,227.266879 375.246632,225.142304 C374.716587,223.014111 376.011851,220.858772 378.135649,220.328533 C380.263066,219.798294 382.419427,221.092221 382.949472,223.218606" id="Fill-129" fill="#FBD25B"></path>
                <path d="M488.249361,493.629512 C490.195875,493.638561 491.76792,495.223848 491.758875,497.171073 C491.751639,499.118298 490.166931,500.692727 488.220417,500.685488 C486.273903,500.678249 484.701858,499.091152 484.707285,497.143927 C484.71633,495.194893 486.301038,493.622273 488.249361,493.629512" id="Fill-130" fill="#FBD25B"></path>
                <path d="M406.133972,67.5745294 C403.870878,63.6547439 405.214986,58.6382872 409.13334,56.3743668 C413.055312,54.1104464 418.069937,55.455045 420.331222,59.3766401 C422.594316,63.2982353 421.248399,68.3165017 417.328236,70.5786125 C413.408073,72.8425329 408.395257,71.4961246 406.133972,67.5745294" id="Fill-131" fill="#FBD25B"></path>
                <path d="M439.790934,26.3661107 C443.46326,28.0690277 445.058823,32.4303772 443.356528,36.1022353 C441.654233,39.7740934 437.294476,41.3702388 433.623958,39.6673218 C429.953441,37.9625952 428.357878,33.6030554 430.060174,29.9311972 C431.764278,26.2593391 436.120417,24.6631938 439.790934,26.3661107" id="Fill-132" fill="#FBD25B"></path>
                <path d="M196.234288,268.182128 C200.053146,266.578744 204.449083,268.377574 206.048264,272.197827 C207.649253,276.01627 205.854698,280.413813 202.03584,282.017197 C198.215174,283.616962 193.822854,281.819941 192.220056,278.001498 C190.619066,274.181246 192.413622,269.783702 196.234288,268.182128" id="Fill-133" fill="#FBD25B"></path>
                <path d="M252.446208,317.302505 C254.651413,314.443197 258.754288,313.912958 261.612552,316.117159 C264.470816,318.32317 265.000861,322.431163 262.797465,325.290471 C260.59226,328.149779 256.485767,328.680017 253.627503,326.474007 C250.76924,324.267997 250.241003,320.161813 252.446208,317.302505" id="Fill-134" fill="#FBD25B"></path>
                <path d="M232.908708,69.6466228 C234.67251,70.8735917 235.106677,73.2985744 233.880156,75.0612111 C232.651826,76.8256574 230.227729,77.2599827 228.465736,76.0330138 C226.701934,74.8042353 226.267767,72.3792526 227.496097,70.6148062 C228.722618,68.8521696 231.144906,68.4160346 232.908708,69.6466228" id="Fill-135" fill="#FBD25B"></path>
                <path d="M287.720441,394.114737 C290.36524,395.31637 291.535681,398.438083 290.334486,401.082038 C289.135101,403.727803 286.016337,404.902291 283.371538,403.700657 C280.72674,402.499024 279.55449,399.377311 280.753875,396.733356 C281.955069,394.085782 285.073833,392.916723 287.720441,394.114737" id="Fill-136" fill="#FBD25B"></path>
                <path d="M215.390083,375.637817 C211.643587,375.878505 208.410854,373.037294 208.168444,369.289429 C207.927844,365.543374 210.769826,362.30946 214.514514,362.065152 C218.259201,361.824464 221.491934,364.667484 221.736153,368.41354 C221.976753,372.159595 219.13658,375.395318 215.390083,375.637817" id="Fill-137" fill="#FBD25B"></path>
                <path d="M214.069493,106.618561 C214.731597,108.627315 213.638944,110.791702 211.630924,111.455858 C209.621094,112.118204 207.457497,111.023343 206.795392,109.014588 C206.133288,107.007644 207.225941,104.839637 209.235771,104.177291 C211.241983,103.514945 213.409198,104.607997 214.069493,106.618561" id="Fill-138" fill="#FBD25B"></path>
                <path d="M380.885372,299.511457 C377.440983,299.877014 374.352972,297.377834 373.983931,293.933997 C373.620316,290.48654 376.114965,287.395592 379.559354,287.030035 C383.005552,286.664478 386.097181,289.161848 386.460795,292.607495 C386.828028,296.053142 384.32976,299.14409 380.885372,299.511457" id="Fill-139" fill="#FBD25B"></path>
                <path d="M10.4652257,432.753398 C8.70865972,431.11563 8.61459028,428.366713 10.2499514,426.613125 C11.8853125,424.857727 14.6350347,424.763623 16.3879826,426.397772 C18.1391215,428.03373 18.235,430.784457 16.6014479,432.536235 C14.9660868,434.289824 12.2181736,434.387547 10.4652257,432.753398" id="Fill-140" fill="#FBD25B"></path>
                <path d="M324.823601,459.495166 C323.470448,460.528498 321.532979,460.267903 320.501833,458.914256 C319.470687,457.560609 319.731187,455.624242 321.08434,454.59272 C322.437493,453.559388 324.371344,453.819983 325.40249,455.17363 C326.435444,456.527277 326.176753,458.463644 324.823601,459.495166" id="Fill-141" fill="#FBD25B"></path>
                <path d="M297.747882,216.938986 C299.081135,215.161872 301.60292,214.799934 303.379385,216.133675 C305.15766,217.467415 305.517656,219.988311 304.184403,221.767235 C302.851149,223.544349 300.331174,223.904478 298.552899,222.572547 C296.776434,221.240616 296.416437,218.7161 297.747882,216.938986" id="Fill-142" fill="#FBD25B"></path>
                <path d="M255.635524,213.075301 C256.165569,210.851194 258.394292,209.48126 260.615778,210.011498 C262.839073,210.541737 264.210316,212.771273 263.680271,214.993571 C263.150226,217.217678 260.916076,218.589422 258.69459,218.059183 C256.474913,217.528945 255.105479,215.293979 255.635524,213.075301" id="Fill-143" fill="#FBD25B"></path>
                <path d="M298.677722,484.485156 C303.068233,484.63717 306.509003,488.325315 306.355236,492.717429 C306.203278,497.111353 302.518288,500.549761 298.125969,500.397747 C293.733649,500.245734 290.296497,496.559398 290.448455,492.167284 C290.602222,487.77336 294.285403,484.334952 298.677722,484.485156" id="Fill-144" fill="#FBD25B"></path>
                <path d="M165.524233,436.108561 C167.159594,437.476685 167.380295,439.912526 166.01267,441.548484 C164.650472,443.184443 162.215521,443.405225 160.578351,442.03891 C158.941181,440.674405 158.720479,438.238564 160.088104,436.600796 C161.452111,434.963028 163.887063,434.744055 165.524233,436.108561" id="Fill-145" fill="#FBD25B"></path>
                <path d="M495.040451,228.244111 C494.940955,224.523391 497.875198,221.423394 501.59275,221.323862 C505.312111,221.220709 508.410976,224.156024 508.51409,227.876744 C508.613587,231.597464 505.679344,234.69746 501.961792,234.798803 C498.242431,234.898336 495.143566,231.96483 495.040451,228.244111" id="Fill-146" fill="#FBD25B"></path>
                <path d="M473.209104,106.79772 C475.11401,105.829536 477.444038,106.589606 478.413677,108.495208 C479.381507,110.40081 478.623524,112.733498 476.716809,113.701682 C474.813712,114.673484 472.483684,113.913415 471.514045,112.007813 C470.544406,110.100401 471.302389,107.769522 473.209104,106.79772" id="Fill-147" fill="#FBD25B"></path>
                <path d="M173.563552,16.479782 C175.249566,13.6910519 178.874858,12.7970657 181.662569,14.4836955 C184.450281,16.1667059 185.343941,19.7951315 183.657927,22.5838616 C181.973722,25.370782 178.348431,26.2647682 175.560719,24.5817578 C172.773007,22.895128 171.879347,19.2685121 173.563552,16.479782" id="Fill-148" fill="#FBD25B"></path>
                <path d="M508.606351,24.4840346 C507.094003,25.6006125 504.962969,25.2802976 503.846799,23.7710173 C502.72701,22.2581176 503.047208,20.1244948 504.557747,19.0061073 C506.070094,17.8877197 508.202938,18.2062249 509.319108,19.7191246 C510.437087,21.2320242 510.116889,23.3638374 508.606351,24.4840346" id="Fill-149" fill="#FBD25B"></path>
                <path d="M468.046139,335.278142 C466.418014,335.214803 465.149885,333.843059 465.211392,332.216149 C465.274708,330.585619 466.645951,329.317028 468.274076,329.380367 C469.902201,329.443706 471.17033,330.81364 471.108823,332.44417 C471.045507,334.07108 469.674264,335.339671 468.046139,335.278142" id="Fill-150" fill="#FBD25B"></path>
                <path d="M147.157174,18.8812388 C146.037385,22.314218 142.343351,24.1872457 138.913434,23.0652388 C135.483517,21.9432318 133.609365,18.2496574 134.730962,14.8166782 C135.854368,11.3855087 139.546594,9.51248097 142.97651,10.6344879 C146.408236,11.7564948 148.28058,15.4500692 147.157174,18.8812388" id="Fill-151" fill="#FBD25B"></path>
                <path d="M20.4673403,32.0612007 C20.6771875,28.8055709 23.4847986,26.329917 26.7392396,26.5380311 C29.9972986,26.7443356 32.4702396,29.5565917 32.2622014,32.8122215 C32.0577812,36.0714706 29.2483611,38.5453149 25.9903021,38.3372007 C22.7322431,38.1308962 20.2593021,35.3204498 20.4673403,32.0612007" id="Fill-152" fill="#FBD25B"></path>
                <path d="M200.404097,305.725927 C201.844083,306.489616 202.392219,308.277588 201.625191,309.716291 C200.861781,311.158612 199.074462,311.703329 197.634476,310.93964 C196.19449,310.172332 195.648163,308.38436 196.413382,306.945657 C197.178601,305.506955 198.964111,304.958619 200.404097,305.725927" id="Fill-153" fill="#FBD25B"></path>
                <path d="M72.3828194,126.776682 C69.0578264,128.783626 64.736059,127.7141 62.7316562,124.387893 C60.7254444,121.061685 61.7963889,116.736529 65.1213819,114.731394 C68.446375,112.72626 72.7681424,113.795785 74.7725451,117.120183 C76.7769479,120.446391 75.7078125,124.771547 72.3828194,126.776682" id="Fill-154" fill="#FBD25B"></path>
                <path d="M75.3984687,35.4833218 C74.7598819,38.3372007 71.9305625,40.1342215 69.0759167,39.4972111 C66.2194618,38.858391 64.4249062,36.0280381 65.061684,33.1723495 C65.6984618,30.3184706 68.5313993,28.5214498 71.3842361,29.1566505 C74.2370729,29.7954706 76.0352465,32.6276332 75.3984687,35.4833218" id="Fill-155" fill="#FBD25B"></path>
                <path d="M466.62967,18.4541522 C464.417229,18.6749343 462.44358,17.0570727 462.224687,14.8456332 C462.003986,12.6305744 463.619448,10.6562042 465.831889,10.4372318 C468.04433,10.2164498 470.017979,11.8343114 470.236872,14.0457509 C470.459382,16.2608097 468.842111,18.2351799 466.62967,18.4541522" id="Fill-156" fill="#FBD25B"></path>
                <path d="M275.912917,19.4965329 C274.923378,22.9783737 271.299896,24.9979862 267.819326,24.0080865 C264.340566,23.0181869 262.319882,19.3933806 263.30942,15.9133495 C264.298958,12.4315087 267.922441,10.4118962 271.401201,11.3999862 C274.879962,12.3880761 276.900646,16.014692 275.912917,19.4965329" id="Fill-157" fill="#FBD25B"></path>
                <path d="M296.843368,31.3807578 C296.787288,29.2109412 298.496819,27.4084913 300.664035,27.3487716 C302.83125,27.2926713 304.63666,29.002827 304.696358,31.1726436 C304.754247,33.3406505 303.042906,35.1467197 300.873882,35.2028201 C298.704858,35.2625398 296.901257,33.5523841 296.843368,31.3807578" id="Fill-158" fill="#FBD25B"></path>
                <path d="M324.204913,12.3790277 C326.377556,9.54867474 330.433396,9.0166263 333.260906,11.1900623 C336.090226,13.3634983 336.620271,17.4208201 334.449438,20.2493633 C332.278604,23.0797163 328.222764,23.6135744 325.391635,21.4383287 C322.565934,19.2648927 322.032271,15.2075709 324.204913,12.3790277" id="Fill-159" fill="#FBD25B"></path>
                <path d="M128.967399,386.888651 C130.910295,386.210017 133.034094,387.23792 133.712479,389.181526 C134.390865,391.126941 133.363337,393.251516 131.418632,393.930149 C129.475736,394.606972 127.348319,393.580879 126.669934,391.637273 C125.995167,389.691858 127.020885,387.565474 128.967399,386.888651" id="Fill-160" fill="#FBD25B"></path>
                <path d="M201.428007,54.2045502 C199.732948,55.7590727 197.095385,55.646872 195.541431,53.9511938 C193.985667,52.2573253 194.097826,49.6187993 195.791076,48.0606574 C197.487944,46.5061349 200.123698,46.6183356 201.681271,48.3140138 C203.237035,50.0078824 203.123066,52.648218 201.428007,54.2045502" id="Fill-161" fill="#FBD25B"></path>
                <path d="M191.201573,486.573536 C190.955545,489.532377 188.354163,491.729339 185.396403,491.483221 C182.440451,491.235294 180.242483,488.632962 180.48851,485.675931 C180.736347,482.71528 183.337729,480.516509 186.293681,480.766246 C189.251441,481.014173 191.44941,483.614696 191.201573,486.573536" id="Fill-162" fill="#FBD25B"></path>
                <path d="M172.138038,173.696478 C171.806986,176.785616 169.031938,179.022391 165.945736,178.691218 C162.857726,178.354616 160.623576,175.580363 160.956438,172.494844 C161.28749,169.405706 164.060729,167.168931 167.146931,167.500104 C170.234941,167.833087 172.472708,170.607339 172.138038,173.696478" id="Fill-163" fill="#FBD25B"></path>
                <path d="M214.257632,10.4716159 C215.892993,10.6109619 217.105042,12.0496644 216.965747,13.6838131 C216.824642,15.3197716 215.388274,16.5304533 213.752913,16.3911073 C212.119361,16.2517612 210.907312,14.8130588 211.046608,13.17891 C211.185903,11.5447612 212.62408,10.3322699 214.257632,10.4716159" id="Fill-164" fill="#FBD25B"></path>
                <path d="M419.85183,179.089349 C421.192319,176.096125 424.70726,174.760574 427.697583,176.101554 C430.686097,177.444343 432.02116,180.958758 430.68067,183.948363 C429.340181,186.941588 425.827049,188.277138 422.836726,186.936159 C419.846403,185.59337 418.51134,182.078955 419.85183,179.089349" id="Fill-165" fill="#FBD25B"></path>
                <path d="M24.2138368,97.2208478 C22.4120451,100.300938 18.4538924,101.337889 15.3767361,99.5354394 C12.2977708,97.7329896 11.2630069,93.7715813 13.0647986,90.6914913 C14.8665903,87.6132111 18.8247431,86.5762595 21.9018993,88.380519 C24.9826736,90.1829689 26.0174375,94.1425675 24.2138368,97.2208478" id="Fill-166" fill="#FBD25B"></path>
                <path d="M353.912767,47.2227716 C357.000778,48.1692388 358.742872,51.4429654 357.794941,54.5321038 C356.852438,57.6248616 353.579906,59.3639723 350.488278,58.4211246 C347.396649,57.4764671 345.658174,54.2009308 346.604295,51.1117924 C347.548608,48.0190346 350.821139,46.2799239 353.912767,47.2227716" id="Fill-167" fill="#FBD25B"></path>
                <path d="M437.866128,85.045263 C441.988903,86.39891 444.235715,90.8435052 442.878944,94.9659758 C441.525792,99.0920657 437.08101,101.339699 432.958236,99.9824325 C428.835462,98.6287855 426.592267,94.1841903 427.949038,90.0581003 C429.302191,85.9338201 433.743354,83.6879965 437.866128,85.045263" id="Fill-168" fill="#FBD25B"></path>
                <path d="M464.189292,202.427093 C463.102066,204.761592 460.330635,205.773208 457.998799,204.687394 C455.666962,203.601581 454.655715,200.829138 455.741132,198.49645 C456.82474,196.163761 459.59617,195.152145 461.929816,196.236149 C464.261653,197.321962 465.272899,200.094405 464.189292,202.427093" id="Fill-169" fill="#FBD25B"></path>
                <path d="M511.043111,70.8156817 C512.658573,70.6202353 514.127503,71.7693875 514.324687,73.3836298 C514.520062,74.9996817 513.37133,76.4709585 511.757677,76.6682145 C510.142215,76.8636609 508.673285,75.7145087 508.474292,74.0984567 C508.278917,72.4824048 509.429458,71.0129377 511.043111,70.8156817" id="Fill-170" fill="#FBD25B"></path>
                <path d="M230.350743,263.236249 C233.449608,261.109865 237.686351,261.900699 239.811958,265.002505 C241.935757,268.104311 241.145212,272.342602 238.044538,274.468986 C234.943865,276.593561 230.707122,275.802727 228.583323,272.70092 C226.457715,269.599114 227.24826,265.360824 230.350743,263.236249" id="Fill-171" fill="#FBD25B"></path>
                <path d="M87.073934,368.487737 C88.7527118,369.484875 89.3026563,371.651073 88.3058819,373.328654 C87.3109167,375.004426 85.1418924,375.556381 83.4667326,374.559242 C81.7915729,373.563913 81.2398194,371.395907 82.2365938,369.720135 C83.231559,368.042554 85.3987743,367.490599 87.073934,368.487737" id="Fill-172" fill="#FBD25B"></path>
                <path d="M116.915656,285.251111 C114.598292,282.073298 115.28934,277.617844 118.464184,275.297824 C121.639028,272.975993 126.094663,273.670913 128.412028,276.846917 C130.731201,280.02292 130.038344,284.480183 126.865309,286.798394 C123.688656,289.118415 119.233021,288.425304 116.915656,285.251111" id="Fill-173" fill="#FBD25B"></path>
                <path d="M490.829035,92.117526 C488.678101,91.4171765 487.500424,89.1043945 488.204135,86.9544844 C488.904229,84.800955 491.214358,83.6264671 493.367101,84.3268166 C495.518035,85.0271661 496.692094,87.3399481 495.992,89.4916678 C495.291906,91.6433875 492.97816,92.8196851 490.829035,92.117526" id="Fill-174" fill="#FBD25B"></path>
                <path d="M169.098872,257.334855 C167.572052,256.31419 167.161403,254.249336 168.183503,252.721958 C169.203795,251.194581 171.267896,250.785592 172.794715,251.806256 C174.319726,252.82873 174.730375,254.891775 173.708274,256.419152 C172.687983,257.946529 170.623882,258.355519 169.098872,257.334855" id="Fill-175" fill="#FBD25B"></path>
                <path d="M46.1446806,453.9539 C43.3424965,456.988747 38.6082708,457.176955 35.5745312,454.373747 C32.5407917,451.57054 32.3526528,446.836394 35.1566458,443.799737 C37.9570208,440.764889 42.6912465,440.578491 45.7249861,443.381699 C48.7587257,446.183097 48.9468646,450.919052 46.1446806,453.9539" id="Fill-176" fill="#FBD25B"></path>
                <path d="M199.099788,208.554699 C201.406299,209.629654 202.410309,212.369522 201.335747,214.680495 C200.262993,216.987848 197.524125,217.990415 195.213997,216.91727 C192.905677,215.842315 191.905285,213.100637 192.976229,210.791474 C194.050792,208.484121 196.791469,207.481554 199.099788,208.554699" id="Fill-177" fill="#FBD25B"></path>
                <path d="M106.772437,484.476107 C105.627323,482.092747 106.624097,479.23163 109.004778,478.082478 C111.385458,476.935135 114.24734,477.932273 115.396073,480.315633 C116.544806,482.697183 115.544413,485.558301 113.163733,486.707453 C110.783052,487.856606 107.92117,486.855848 106.772437,484.476107" id="Fill-178" fill="#FBD25B"></path>
                <path d="M440.324597,127.07528 C441.684986,125.832024 443.794312,125.931557 445.038924,127.292443 C446.278108,128.651519 446.184038,130.761616 444.823649,132.003062 C443.46326,133.248128 441.353934,133.148595 440.109323,131.787709 C438.870139,130.426824 438.964208,128.316727 440.324597,127.07528" id="Fill-179" fill="#FBD25B"></path>
                <path d="M262.723295,362.503097 C260.263017,359.062879 261.05899,354.278062 264.49976,351.818696 C267.936913,349.359329 272.719983,350.155592 275.178451,353.59581 C277.63692,357.036028 276.840948,361.820844 273.403795,364.280211 C269.963024,366.739578 265.181764,365.943315 262.723295,362.503097" id="Fill-180" fill="#FBD25B"></path>
                <path d="M369.951608,409.225637 C368.024993,409.042858 366.608524,407.332702 366.791236,405.405384 C366.972139,403.478066 368.683479,402.062889 370.610094,402.243858 C372.536708,402.426637 373.951368,404.136792 373.768656,406.064111 C373.589563,407.991429 371.878222,409.406606 369.951608,409.225637" id="Fill-181" fill="#FBD25B"></path>
                <path d="M41.9839167,369.151893 C43.0421979,366.098948 46.3762361,364.482896 49.4262569,365.539754 C52.4798958,366.600232 54.0935486,369.933678 53.0352674,372.986623 C51.9769861,376.039567 48.6447569,377.655619 45.5929271,376.595142 C42.5429063,375.536474 40.9256354,372.204837 41.9839167,369.151893" id="Fill-182" fill="#FBD25B"></path>
            </g>
        </g>
    </g>
</svg>