<?xml version="1.0" encoding="UTF-8" standalone="no"?>
<svg width="67px" height="50px" viewBox="0 0 67 50" version="1.1" xmlns="http://www.w3.org/2000/svg" xmlns:xlink="http://www.w3.org/1999/xlink">
    <!-- Generator: Sketch 3.6.1 (26313) - http://www.bohemiancoding.com/sketch -->
    <title>crown2</title>
    <desc>Created with Sketch.</desc>
    <defs>
        <linearGradient x1="0%" y1="50.1138952%" x2="100%" y2="50.1138952%" id="linearGradient-1">
            <stop stop-color="#ADADAD" offset="0%"></stop>
            <stop stop-color="#DDDDDD" offset="60%"></stop>
            <stop stop-color="#ADADAD" offset="100%"></stop>
        </linearGradient>
        <linearGradient x1="96%" y1="907%" x2="1656%" y2="907%" id="linearGradient-2">
            <stop stop-color="#ADADAD" offset="0%"></stop>
            <stop stop-color="#DDDDDD" offset="60%"></stop>
            <stop stop-color="#ADADAD" offset="100%"></stop>
        </linearGradient>
        <path id="path-3" d="M41.5228492,5.61692489 L41.3247486,5.61692489 C39.3326089,2.29051112 35.1075384,1.04587266 31.6178212,2.75741877 C30.1667822,1.08680923 28.0519186,0.134910061 25.8334897,0.153893666 C23.6150608,0.17287727 21.5169476,1.16082784 20.0949721,2.85602243 C16.6052549,1.14447632 12.3801844,2.38911477 10.3880447,5.71552854 L10.1899441,5.61692489 C7.71729504,4.8787082 5.03764842,5.41864636 3.04801249,7.05599578 C1.05837656,8.69334519 0.0216652024,11.2117437 0.284916201,13.7681607 C0.732647095,19.0151108 2.94248577,23.9590392 6.55810056,27.8027482 L45.2867598,27.8027482 C48.9320155,23.9684877 51.1763447,19.025444 51.6589944,13.7681607 C51.9541436,11.1569894 50.8897535,8.57651903 48.8364631,6.92531399 C46.7831727,5.27410895 44.0251738,4.78070914 41.5228492,5.61692489 L41.5228492,5.61692489 Z"></path>
        <linearGradient x1="0%" y1="50%" x2="100%" y2="50%" id="linearGradient-5">
            <stop stop-color="#ADADAD" offset="0%"></stop>
            <stop stop-color="#F4F4F4" offset="60%"></stop>
            <stop stop-color="#ADADAD" offset="100%"></stop>
        </linearGradient>
        <linearGradient x1="310%" y1="1400%" x2="424%" y2="1400%" id="linearGradient-6">
            <stop stop-color="#ADADAD" offset="0%"></stop>
            <stop stop-color="#F4F4F4" offset="60%"></stop>
            <stop stop-color="#ADADAD" offset="100%"></stop>
        </linearGradient>
        <linearGradient x1="479%" y1="1400%" x2="594%" y2="1400%" id="linearGradient-7">
            <stop stop-color="#ADADAD" offset="0%"></stop>
            <stop stop-color="#F4F4F4" offset="60%"></stop>
            <stop stop-color="#ADADAD" offset="100%"></stop>
        </linearGradient>
        <linearGradient x1="649%" y1="1400%" x2="764%" y2="1400%" id="linearGradient-8">
            <stop stop-color="#ADADAD" offset="0%"></stop>
            <stop stop-color="#F4F4F4" offset="60%"></stop>
            <stop stop-color="#ADADAD" offset="100%"></stop>
        </linearGradient>
        <linearGradient x1="819%" y1="1400%" x2="933%" y2="1400%" id="linearGradient-9">
            <stop stop-color="#ADADAD" offset="0%"></stop>
            <stop stop-color="#F4F4F4" offset="60%"></stop>
            <stop stop-color="#ADADAD" offset="100%"></stop>
        </linearGradient>
        <linearGradient x1="988%" y1="1400%" x2="1103%" y2="1400%" id="linearGradient-10">
            <stop stop-color="#ADADAD" offset="0%"></stop>
            <stop stop-color="#F4F4F4" offset="60%"></stop>
            <stop stop-color="#ADADAD" offset="100%"></stop>
        </linearGradient>
        <linearGradient x1="1158%" y1="1400%" x2="1272%" y2="1400%" id="linearGradient-11">
            <stop stop-color="#ADADAD" offset="0%"></stop>
            <stop stop-color="#F4F4F4" offset="60%"></stop>
            <stop stop-color="#ADADAD" offset="100%"></stop>
        </linearGradient>
        <linearGradient x1="1327%" y1="1400%" x2="1442%" y2="1400%" id="linearGradient-12">
            <stop stop-color="#ADADAD" offset="0%"></stop>
            <stop stop-color="#F4F4F4" offset="60%"></stop>
            <stop stop-color="#ADADAD" offset="100%"></stop>
        </linearGradient>
    </defs>
    <g id="icons" stroke="none" stroke-width="1" fill="none" fill-rule="evenodd">
        <g id="crown2">
            <g id="shape" transform="translate(3.000000, -2.000000)">
                <path d="M28.783352,10.7999028 L27.6277654,6.29700235 L29.9059218,4.06198607 L32.1510615,6.29700235 L31.0284916,10.7999028 L34.4292179,9.68239465 L35.5517877,10.7999028 L34.4292179,13.0349191 L31.0284916,11.9174109 L32.1510615,18.4909882 L27.6277654,18.4909882 L28.783352,11.9174109 L25.3826257,13.0349191 L24.2600559,10.7999028 L25.3826257,9.68239465 L28.783352,10.7999028 L28.783352,10.7999028 Z" id="Shape" fill="url(#linearGradient-1)"></path>
                <path d="M45.5228492,20.4301935 L45.3247486,20.4301935 C43.3326089,17.1037797 39.1075384,15.8591413 35.6178212,17.5706874 C34.1667822,15.9000779 32.0519186,14.9481787 29.8334897,14.9671623 C27.6150608,14.9861459 25.5169476,15.9740965 24.0949721,17.6692911 C20.6052549,15.9577449 16.3801844,17.2023834 14.3880447,20.5287972 L14.1899441,20.4301935 C11.717295,19.6919768 9.03764842,20.231915 7.04801249,21.8692644 C5.05837656,23.5066138 4.0216652,26.0250123 4.2849162,28.5814293 C4.73264709,33.8283795 6.94248577,38.7723079 10.5581006,42.6160168 L49.2867598,42.6160168 C52.9320155,38.7817563 55.1763447,33.8387126 55.6589944,28.5814293 C55.9541436,25.970258 54.8897535,23.3897877 52.8364631,21.7385826 C50.7831727,20.0873776 48.0251738,19.5939778 45.5228492,20.4301935 L45.5228492,20.4301935 Z" id="Shape" fill="url(#linearGradient-2)"></path>
                <g id="Clipped" transform="translate(4.000000, 14.813269)">
                    <mask id="mask-4" fill="white">
                        <use xlink:href="#path-3"></use>
                    </mask>
                    <g id="Shape"></g>
                    <g id="Group" mask="url(#mask-4)">
                        <g transform="translate(-3.016760, -15.812937)">
                            <rect id="Rectangle-path" stroke="none" fill="#F4F4F4" fill-rule="evenodd" opacity="0.8" transform="translate(10.848289, 10.783332) rotate(-44.990000) translate(-10.848289, -10.783332) " x="4.45954562" y="4.42339574" width="12.777486" height="12.719872"></rect>
                            <rect id="Rectangle-path" stroke="none" fill="#F4F4F4" fill-rule="evenodd" opacity="0.5" transform="translate(28.901437, 10.820522) rotate(-45.000000) translate(-28.901437, -10.820522) " x="22.5126944" y="4.46058602" width="12.777486" height="12.719872"></rect>
                            <rect id="Rectangle-path" stroke="none" fill="#F4F4F4" fill-rule="evenodd" opacity="0.8" transform="translate(47.002023, 10.790056) rotate(-45.020000) translate(-47.002023, -10.790056) " x="40.61328" y="4.43012046" width="12.777486" height="12.719872"></rect>
                            <rect id="Rectangle-path" stroke="none" fill="#F4F4F4" fill-rule="evenodd" opacity="0.5" transform="translate(10.864616, 28.808522) rotate(-45.000000) translate(-10.864616, -28.808522) " x="4.47587317" y="22.4485862" width="12.777486" height="12.719872"></rect>
                            <rect id="Rectangle-path" stroke="none" fill="#F4F4F4" fill-rule="evenodd" opacity="0.8" transform="translate(28.917770, 28.801296) rotate(-45.020000) translate(-28.917770, -28.801296) " x="22.5290274" y="22.4413602" width="12.777486" height="12.719872"></rect>
                            <rect id="Rectangle-path" stroke="none" fill="#F4F4F4" fill-rule="evenodd" opacity="0.5" transform="translate(47.020582, 28.804137) rotate(-45.030000) translate(-47.020582, -28.804137) " x="40.6318394" y="22.4442008" width="12.777486" height="12.719872"></rect>
                            <rect id="Rectangle-path" stroke="none" fill="#F4F4F4" fill-rule="evenodd" opacity="0.8" transform="translate(10.820118, 46.787375) rotate(-44.990000) translate(-10.820118, -46.787375) " x="4.43137492" y="40.427439" width="12.777486" height="12.719872"></rect>
                            <rect id="Rectangle-path" stroke="none" fill="#F4F4F4" fill-rule="evenodd" opacity="0.5" transform="translate(28.910746, 46.820124) rotate(-45.000000) translate(-28.910746, -46.820124) " x="22.5220027" y="40.4601879" width="12.777486" height="12.719872"></rect>
                            <rect id="Rectangle-path" stroke="none" fill="#F4F4F4" fill-rule="evenodd" opacity="0.8" transform="translate(46.987237, 46.780773) rotate(-45.020000) translate(-46.987237, -46.780773) " x="40.5984935" y="40.4208375" width="12.777486" height="12.719872"></rect>
                            <path d="M0,0 L57.8453631,57.6174049" id="Shape" stroke="#F4F4F4" stroke-width="2.53" stroke-dasharray="4.21" fill="none"></path>
                            <path d="M18.0601676,0 L57.8453631,39.6058031" id="Shape" stroke="#F4F4F4" stroke-width="2.53" stroke-dasharray="4.21" fill="none"></path>
                            <path d="M36.153352,0 L57.8453631,21.5942014" id="Shape" stroke="#F4F4F4" stroke-width="2.53" stroke-dasharray="4.21" fill="none"></path>
                            <path d="M0,35.9903356 L21.6920112,57.6174049" id="Shape" stroke="#F4F4F4" stroke-width="2.53" stroke-dasharray="4.21" fill="none"></path>
                            <path d="M0,18.0116018 L39.7521788,57.6174049" id="Shape" stroke="#F4F4F4" stroke-width="2.53" stroke-dasharray="4.21" fill="none"></path>
                            <path d="M0,57.6174049 L57.8453631,0" id="Shape" stroke="#F4F4F4" stroke-width="2.53" stroke-dasharray="4.21" fill="none"></path>
                            <path d="M0,39.6058031 L39.7521788,0" id="Shape" stroke="#F4F4F4" stroke-width="2.53" stroke-dasharray="4.21" fill="none"></path>
                            <path d="M0,21.5942014 L21.6920112,0" id="Shape" stroke="#F4F4F4" stroke-width="2.53" stroke-dasharray="4.21" fill="none"></path>
                            <path d="M36.153352,57.6174049 L57.8453631,35.9903356" id="Shape" stroke="#F4F4F4" stroke-width="2.53" stroke-dasharray="4.21" fill="none"></path>
                            <path d="M18.0601676,57.6174049 L57.8453631,18.0116018" id="Shape" stroke="#F4F4F4" stroke-width="2.53" stroke-dasharray="4.21" fill="none"></path>
                        </g>
                    </g>
                </g>
                <path d="M49.253743,47.4147283 L10.5250838,47.4147283 L10.5581006,42.6160168 L49.253743,42.6160168 L49.253743,47.4147283 L49.253743,47.4147283 Z" id="Shape" fill="url(#linearGradient-5)"></path>
                <rect id="Rectangle-path" fill="url(#linearGradient-6)" transform="translate(13.107693, 44.996486) rotate(-45.060000) translate(-13.107693, -44.996486) " x="11.7705147" y="43.6653363" width="2.67435754" height="2.6622988"></rect>
                <rect id="Rectangle-path" fill="url(#linearGradient-7)" transform="translate(18.701322, 45.013724) rotate(-44.970000) translate(-18.701322, -45.013724) " x="17.3641432" y="43.682575" width="2.67435754" height="2.6622988"></rect>
                <rect id="Rectangle-path" fill="url(#linearGradient-8)" transform="translate(24.282481, 44.997797) rotate(-45.060000) translate(-24.282481, -44.997797) " x="22.9453027" y="43.666648" width="2.67435754" height="2.6622988"></rect>
                <rect id="Rectangle-path" fill="url(#linearGradient-9)" transform="translate(29.872597, 45.019316) rotate(-45.050000) translate(-29.872597, -45.019316) " x="28.5354178" y="43.6881668" width="2.67435754" height="2.6622988"></rect>
                <rect id="Rectangle-path" fill="url(#linearGradient-10)" transform="translate(35.483104, 44.982966) rotate(-45.010000) translate(-35.483104, -44.982966) " x="34.1459256" y="43.6518171" width="2.67435754" height="2.6622988"></rect>
                <rect id="Rectangle-path" fill="url(#linearGradient-11)" transform="translate(41.077283, 45.019887) rotate(-44.990000) translate(-41.077283, -45.019887) " x="39.7401045" y="43.6887377" width="2.67435754" height="2.6622988"></rect>
                <rect id="Rectangle-path" fill="url(#linearGradient-12)" transform="translate(46.698185, 45.010703) rotate(-45.080000) translate(-46.698185, -45.010703) " x="45.3610066" y="43.6795536" width="2.67435754" height="2.6622988"></rect>
                <rect id="Rectangle-path" x="6.69513966" y="0.643725886" width="52.8268156" height="52.5886183"></rect>
                <rect id="Rectangle-path" x="11.1524022" y="0.249311249" width="52.8268156" height="52.5886183"></rect>
                <path d="M12.6930024,35.2607625 L12.6930024,32.8793362 L20.4326379,32.8793362 L20.4326379,27.521127 L2.95296865,27.521127 L2.95296865,28.9023542 L11.121261,28.9023542 L11.121261,31.4981089 L4.23893887,31.4981089 C3.85791066,33.3794357 3.26255408,35.7846763 2.76245455,37.3087892 L4.33419593,37.5469318 L4.59615282,36.6658041 L9.66859091,36.6658041 C7.43005016,38.6900165 3.95316771,40.4522719 0.881127743,41.3095854 C1.21452743,41.6191708 1.66699843,42.2145274 1.90514107,42.5955556 C5.12006662,41.5477281 8.73983464,39.5235157 11.121261,37.1420893 L11.121261,43.0242124 L12.6930024,43.0242124 L12.6930024,36.6658041 L20.170681,36.6658041 C19.9087241,39.0234161 19.6467672,40.0236152 19.265739,40.3570149 C19.0752249,40.547529 18.8370823,40.5713433 18.4084256,40.5713433 C18.0035831,40.5713433 16.8604984,40.5713433 15.6697853,40.4284577 C15.9317422,40.8571144 16.098442,41.452471 16.1222563,41.9287563 C16.8128699,41.9763848 17.455855,41.9763848 18.0035831,41.9763848 C20.7660376,41.9763848 21.2423229,41.8811277 21.8614937,35.8799334 C21.885308,35.7132335 21.9329365,35.5465337 21.9329365,35.3798339 L21.0041803,35.2369483 L20.6469663,35.2607625 L12.6930024,35.2607625 Z M18.8608966,28.9023542 L18.8608966,31.4981089 L12.6930024,31.4981089 L12.6930024,28.9023542 L18.8608966,28.9023542 Z M11.121261,35.2607625 L4.95336677,35.2607625 C5.14388088,34.4987061 5.35820925,33.6652069 5.52490909,32.8793362 L11.121261,32.8793362 L11.121261,35.2607625 Z M7.8587069,26.6876277 C7.69200706,26.0684569 7.35860737,25.1635149 6.95376489,24.3538299 L11.573732,24.3538299 L11.573732,23.0440454 L4.97718104,23.0440454 C5.21532367,22.5677602 5.4534663,22.0676607 5.64398041,21.5913754 C5.88212304,21.6151896 6.09645141,21.5437469 6.14407994,21.377047 L4.33419593,20.7816904 C3.52451097,22.9964169 2.1432837,25.2349577 0.738242163,26.5685564 C1.11927038,26.7590705 1.66699843,27.1400987 1.97658386,27.4020556 C2.76245455,26.5923707 3.5721395,25.5207288 4.26275314,24.3538299 L5.35820925,24.3538299 C5.81068025,25.3064005 6.26315126,26.4732994 6.4298511,27.2353558 L7.8587069,26.6876277 Z M13.7646442,20.7816904 C12.931145,23.0202312 11.4308464,25.1397006 9.81147649,26.3780423 C10.1925047,26.5923707 10.7402328,26.9972132 11.0260039,27.2591701 C11.9547602,26.5209279 12.8597022,25.4969146 13.6217586,24.3538299 L15.4792712,24.3538299 C16.2413276,25.3064005 16.9557555,26.4971136 17.2653409,27.3067986 L18.6703825,26.7352563 C18.3846113,26.0684569 17.8368832,25.1635149 17.2177124,24.3538299 L22.9093213,24.3538299 L22.9093213,23.0440454 L14.4314436,23.0440454 C14.6934005,22.5677602 14.9315431,22.0676607 15.1458715,21.5675611 C15.3840141,21.5675611 15.5745282,21.5199326 15.6221567,21.3532328 L13.7646442,20.7816904 Z M35.5308809,39.3806301 L27.6483597,39.3806301 L27.6483597,39.3330016 L29.0534013,37.8565172 C32.7446121,34.1414922 35.1022241,31.2837806 35.1022241,27.9259694 C35.1022241,25.4731003 33.6733683,22.8535313 30.0774146,22.8535313 C28.1722735,22.8535313 26.5529036,23.6155878 25.4574475,24.5919726 L26.1242469,25.9731998 C26.9815604,25.2825862 28.2675306,24.4967155 29.6963864,24.4967155 C32.2683268,24.4967155 33.101826,26.258971 33.101826,28.1641121 C33.101826,31.0694522 30.9585423,33.6652069 26.7196035,37.9517743 L24.9811622,39.7854726 L24.9811622,41 L35.5308809,41 L35.5308809,39.3806301 Z M41.0081615,43.0956552 L42.5560886,43.0956552 L42.5560886,27.3067986 C42.865674,27.2829843 42.9847453,27.163913 43.0323738,27.0210274 L42.3893887,26.8543276 C43.2228879,25.2587719 43.9611301,23.5917735 44.580301,21.9247751 C44.8660721,21.9485893 45.032772,21.8771465 45.128029,21.7104467 L43.2228879,21.0674616 C41.8416607,25.1873291 39.5554914,29.3071967 37.2693221,31.7838801 C37.531279,32.1649083 37.9361215,32.9031505 38.1028213,33.2841787 C39.1030204,32.141094 40.1032194,30.8074953 41.0081615,29.3071967 L41.0081615,43.0956552 Z M44.0325729,41.8811277 L60.0119436,41.8811277 L60.0119436,40.3332006 L44.0325729,40.3332006 L44.0325729,41.8811277 Z M44.6279295,27.2591701 L59.3927727,27.2591701 L59.3927727,25.7112429 L52.629522,25.7112429 L52.629522,21.4008613 C52.9629216,21.3532328 53.081993,21.2579757 53.1058072,21.0674616 L51.0339663,20.9483903 L51.0339663,25.7112429 L44.6279295,25.7112429 L44.6279295,27.2591701 Z M55.892076,28.7356544 C55.344348,31.8076944 54.2727061,36.1418903 53.3439499,38.7138307 C53.3439499,38.737645 54.7251771,39.1663017 54.7251771,39.1663017 C55.6777477,36.6181755 56.7732038,32.4506795 57.3923746,29.5691536 C57.6781458,29.5691536 57.8924742,29.4500823 57.9401027,29.2833824 L55.892076,28.7356544 Z M46.485442,29.1404969 C47.390384,32.3554224 48.1762547,36.6181755 48.3667688,39.0234161 L49.9623245,38.6900165 C49.7479961,36.2609616 48.8906826,32.1172798 47.9381121,28.87854 L46.485442,29.1404969 Z" id="text" fill="#000000"></path>
            </g>
        </g>
    </g>
</svg>