<?xml version="1.0" encoding="UTF-8" standalone="no"?>
<svg width="67px" height="50px" viewBox="0 0 67 50" version="1.1" xmlns="http://www.w3.org/2000/svg" xmlns:xlink="http://www.w3.org/1999/xlink">
    <!-- Generator: Sketch 3.6.1 (26313) - http://www.bohemiancoding.com/sketch -->
    <title>crown3</title>
    <desc>Created with Sketch.</desc>
    <defs>
        <linearGradient x1="0.292397661%" y1="49.8861048%" x2="100%" y2="49.8861048%" id="linearGradient-1">
            <stop stop-color="#AD5232" offset="0%"></stop>
            <stop stop-color="#DD9F8C" offset="60%"></stop>
            <stop stop-color="#AD5232" offset="100%"></stop>
        </linearGradient>
        <linearGradient x1="96%" y1="906%" x2="1655%" y2="906%" id="linearGradient-2">
            <stop stop-color="#AD5232" offset="0%"></stop>
            <stop stop-color="#DD9F8C" offset="60%"></stop>
            <stop stop-color="#AD5232" offset="100%"></stop>
        </linearGradient>
        <path id="path-3" d="M43.4183893,5.91592449 L43.2106531,5.91592449 C41.1346233,2.36945258 36.7154396,1.03952028 33.0662016,2.86300011 C31.5496332,1.07506701 29.3348412,0.0524039889 27.0085267,0.0659156534 C24.6822121,0.0794273179 22.4791298,1.12775017 20.9828789,2.93318228 C17.333641,1.10970245 12.9144572,2.43963475 10.8384274,5.98610666 L10.5960685,5.91592449 C8.03957784,5.12807738 5.26405417,5.67435951 3.18430879,7.37471656 C1.10456341,9.0750736 -0.00952069552,11.7088548 0.209258085,14.407967 C0.683719226,20.0774803 3.05328458,25.4130411 6.92606214,29.5322245 L47.3653773,29.5322245 C51.2059005,25.3984009 53.5494212,20.0665171 54.012936,14.407967 C54.2589942,11.6584883 53.1194393,8.96883333 50.9829152,7.25630571 C48.8463911,5.5437781 46.0014627,5.03967662 43.4183893,5.91592449 L43.4183893,5.91592449 Z"></path>
        <linearGradient x1="0%" y1="50%" x2="100%" y2="50%" id="linearGradient-5">
            <stop stop-color="#AD5232" offset="0%"></stop>
            <stop stop-color="#F7DDD7" offset="60%"></stop>
            <stop stop-color="#AD5232" offset="100%"></stop>
        </linearGradient>
        <linearGradient x1="310%" y1="1399%" x2="424%" y2="1399%" id="linearGradient-6">
            <stop stop-color="#AD5232" offset="0%"></stop>
            <stop stop-color="#F7DDD7" offset="60%"></stop>
            <stop stop-color="#AD5232" offset="100%"></stop>
        </linearGradient>
        <linearGradient x1="479%" y1="1399%" x2="594%" y2="1399%" id="linearGradient-7">
            <stop stop-color="#AD5232" offset="0%"></stop>
            <stop stop-color="#F7DDD7" offset="60%"></stop>
            <stop stop-color="#AD5232" offset="100%"></stop>
        </linearGradient>
        <linearGradient x1="649%" y1="1399%" x2="763%" y2="1399%" id="linearGradient-8">
            <stop stop-color="#AD5232" offset="0%"></stop>
            <stop stop-color="#F7DDD7" offset="60%"></stop>
            <stop stop-color="#AD5232" offset="100%"></stop>
        </linearGradient>
        <linearGradient x1="818%" y1="1399%" x2="933%" y2="1399%" id="linearGradient-9">
            <stop stop-color="#AD5232" offset="0%"></stop>
            <stop stop-color="#F7DDD7" offset="60%"></stop>
            <stop stop-color="#AD5232" offset="100%"></stop>
        </linearGradient>
        <linearGradient x1="988%" y1="1399%" x2="1102%" y2="1399%" id="linearGradient-10">
            <stop stop-color="#AD5232" offset="0%"></stop>
            <stop stop-color="#F7DDD7" offset="60%"></stop>
            <stop stop-color="#AD5232" offset="100%"></stop>
        </linearGradient>
        <linearGradient x1="1157%" y1="1399%" x2="1271%" y2="1399%" id="linearGradient-11">
            <stop stop-color="#AD5232" offset="0%"></stop>
            <stop stop-color="#F7DDD7" offset="60%"></stop>
            <stop stop-color="#AD5232" offset="100%"></stop>
        </linearGradient>
        <linearGradient x1="1327%" y1="1399%" x2="1441%" y2="1399%" id="linearGradient-12">
            <stop stop-color="#AD5232" offset="0%"></stop>
            <stop stop-color="#F7DDD7" offset="60%"></stop>
            <stop stop-color="#AD5232" offset="100%"></stop>
        </linearGradient>
    </defs>
    <g id="icons" stroke="none" stroke-width="1" fill="none" fill-rule="evenodd">
        <g id="crown3">
            <g id="shape" transform="translate(5.000000, -3.000000)">
                <path d="M27.8646798,11.134185 L26.6875079,6.32670638 L29.0418516,3.94051262 L31.430818,6.32670638 L30.2536462,11.134185 L33.7851617,9.94108811 L34.9623335,11.134185 L33.7851617,13.5203788 L30.2536462,12.3272819 L31.430818,19.3454988 L26.6875079,19.3454988 L27.8646798,12.3272819 L24.3331642,13.5203788 L23.1213697,11.134185 L24.3331642,9.94108811 L27.8646798,11.134185 L27.8646798,11.134185 Z" id="Shape" fill="url(#linearGradient-1)"></path>
                <path d="M45.4183893,21.4158728 L45.2106531,21.4158728 C43.1346233,17.8694009 38.7154396,16.5394686 35.0662016,18.3629484 C33.5496332,16.5750153 31.3348412,15.5523523 29.0085267,15.565864 C26.6822121,15.5793757 24.4791298,16.6276985 22.9828789,18.4331306 C19.333641,16.6096508 14.9144572,17.9395831 12.8384274,21.486055 L12.5960685,21.4158728 C10.0395778,20.6280257 7.26405417,21.1743078 5.18430879,22.8746649 C3.10456341,24.5750219 1.9904793,27.2088031 2.20925808,29.9079153 C2.68371923,35.5774286 5.05328458,40.9129894 8.92606214,45.0321729 L49.3653773,45.0321729 C53.2059005,40.8983492 55.5494212,35.5664655 56.012936,29.9079153 C56.2589942,27.1584366 55.1194393,24.4687817 52.9829152,22.7562541 C50.8463911,21.0437264 48.0014627,20.539625 45.4183893,21.4158728 L45.4183893,21.4158728 Z" id="Shape" fill="url(#linearGradient-2)"></path>
                <g id="Clipped" transform="translate(2.000000, 15.499948)">
                    <mask id="mask-4" fill="white">
                        <use xlink:href="#path-3"></use>
                    </mask>
                    <g id="Shape"></g>
                    <g id="Group" mask="url(#mask-4)">
                        <g transform="translate(-3.253012, -16.963463)">
                            <rect id="Rectangle-path" stroke="none" fill="#F7DDD7" fill-rule="evenodd" opacity="0.8" transform="translate(11.375951, 11.512721) rotate(-44.990000) translate(-11.375951, -11.512721) " x="4.67645878" y="4.72259618" width="13.3989854" height="13.5802498"></rect>
                            <rect id="Rectangle-path" stroke="none" fill="#F7DDD7" fill-rule="evenodd" opacity="0.5" transform="translate(30.307209, 11.517336) rotate(-45.000000) translate(-30.307209, -11.517336) " x="23.6077162" y="4.72721094" width="13.3989854" height="13.5802498"></rect>
                            <rect id="Rectangle-path" stroke="none" fill="#F7DDD7" fill-rule="evenodd" opacity="0.8" transform="translate(49.263737, 11.544722) rotate(-45.020000) translate(-49.263737, -11.544722) " x="42.5642443" y="4.75459757" width="13.3989854" height="13.5802498"></rect>
                            <rect id="Rectangle-path" stroke="none" fill="#F7DDD7" fill-rule="evenodd" opacity="0.5" transform="translate(11.368591, 30.732330) rotate(-45.000000) translate(-11.368591, -30.732330) " x="4.66909856" y="23.9422053" width="13.3989854" height="13.5802498"></rect>
                            <rect id="Rectangle-path" stroke="none" fill="#F7DDD7" fill-rule="evenodd" opacity="0.8" transform="translate(30.299846, 30.724624) rotate(-45.020000) translate(-30.299846, -30.724624) " x="23.6003531" y="23.9344992" width="13.3989854" height="13.5802498"></rect>
                            <rect id="Rectangle-path" stroke="none" fill="#F7DDD7" fill-rule="evenodd" opacity="0.5" transform="translate(49.258709, 30.717396) rotate(-45.030000) translate(-49.258709, -30.717396) " x="42.559216" y="23.9272713" width="13.3989854" height="13.5802498"></rect>
                            <rect id="Rectangle-path" stroke="none" fill="#F7DDD7" fill-rule="evenodd" opacity="0.8" transform="translate(11.356556, 49.927276) rotate(-44.990000) translate(-11.356556, -49.927276) " x="4.65706288" y="43.1371513" width="13.3989854" height="13.5802498"></rect>
                            <rect id="Rectangle-path" stroke="none" fill="#F7DDD7" fill-rule="evenodd" opacity="0.5" transform="translate(30.292488, 49.927154) rotate(-45.000000) translate(-30.292488, -49.927154) " x="23.5929953" y="43.1370287" width="13.3989854" height="13.5802498"></rect>
                            <rect id="Rectangle-path" stroke="none" fill="#F7DDD7" fill-rule="evenodd" opacity="0.8" transform="translate(49.258364, 49.909972) rotate(-45.020000) translate(-49.258364, -49.909972) " x="42.5588709" y="43.119847" width="13.3989854" height="13.5802498"></rect>
                            <path d="M0,0 L60.62435,61.4444894" id="Shape" stroke="#F7DDD7" stroke-width="2.53" stroke-dasharray="4.21" fill="none"></path>
                            <path d="M18.9386176,0 L60.62435,42.249666" id="Shape" stroke="#F7DDD7" stroke-width="2.53" stroke-dasharray="4.21" fill="none"></path>
                            <path d="M37.8772353,0 L60.62435,23.0548427" id="Shape" stroke="#F7DDD7" stroke-width="2.53" stroke-dasharray="4.21" fill="none"></path>
                            <path d="M0,38.3896467 L22.7471148,61.4444894" id="Shape" stroke="#F7DDD7" stroke-width="2.53" stroke-dasharray="4.21" fill="none"></path>
                            <path d="M0,19.1948234 L41.6857324,61.4444894" id="Shape" stroke="#F7DDD7" stroke-width="2.53" stroke-dasharray="4.21" fill="none"></path>
                            <path d="M0,61.4444894 L60.62435,0" id="Shape" stroke="#F7DDD7" stroke-width="2.53" stroke-dasharray="4.21" fill="none"></path>
                            <path d="M0,42.249666 L41.6857324,0" id="Shape" stroke="#F7DDD7" stroke-width="2.53" stroke-dasharray="4.21" fill="none"></path>
                            <path d="M0,23.0548427 L22.7471148,0" id="Shape" stroke="#F7DDD7" stroke-width="2.53" stroke-dasharray="4.21" fill="none"></path>
                            <path d="M37.8772353,61.4444894 L60.62435,38.3896467" id="Shape" stroke="#F7DDD7" stroke-width="2.53" stroke-dasharray="4.21" fill="none"></path>
                            <path d="M18.9386176,61.4444894 L60.62435,19.1948234" id="Shape" stroke="#F7DDD7" stroke-width="2.53" stroke-dasharray="4.21" fill="none"></path>
                        </g>
                    </g>
                </g>
                <path d="M49.3307546,50.1905623 L8.78757134,50.1905623 L8.78757134,45.0672639 L49.3307546,45.0672639 L49.3307546,50.1905623 L49.3307546,50.1905623 Z" id="Shape" fill="url(#linearGradient-5)"></path>
                <rect id="Rectangle-path" fill="url(#linearGradient-6)" transform="translate(11.466894, 47.591614) rotate(-45.050000) translate(-11.466894, -47.591614) " x="10.0646746" y="46.170425" width="2.80443881" height="2.84237786"></rect>
                <rect id="Rectangle-path" fill="url(#linearGradient-7)" transform="translate(17.333346, 47.610705) rotate(-44.960000) translate(-17.333346, -47.610705) " x="15.9311265" y="46.189516" width="2.80443881" height="2.84237786"></rect>
                <rect id="Rectangle-path" fill="url(#linearGradient-8)" transform="translate(23.186676, 47.594481) rotate(-45.050000) translate(-23.186676, -47.594481) " x="21.7844562" y="46.1732921" width="2.80443881" height="2.84237786"></rect>
                <rect id="Rectangle-path" fill="url(#linearGradient-9)" transform="translate(29.047192, 47.628031) rotate(-45.030000) translate(-29.047192, -47.628031) " x="27.6449723" y="46.2068423" width="2.80443881" height="2.84237786"></rect>
                <rect id="Rectangle-path" fill="url(#linearGradient-10)" transform="translate(34.907566, 47.615484) rotate(-44.990000) translate(-34.907566, -47.615484) " x="33.5053463" y="46.1942947" width="2.80443881" height="2.84237786"></rect>
                <rect id="Rectangle-path" fill="url(#linearGradient-11)" transform="translate(40.800569, 47.620232) rotate(-44.980000) translate(-40.800569, -47.620232) " x="39.3983495" y="46.1990426" width="2.80443881" height="2.84237786"></rect>
                <rect id="Rectangle-path" fill="url(#linearGradient-12)" transform="translate(46.636504, 47.600954) rotate(-45.070000) translate(-46.636504, -47.600954) " x="45.2342851" y="46.1797651" width="2.80443881" height="2.84237786"></rect>
                <rect id="Rectangle-path" x="6.39860495" y="0.291039802" width="55.3963221" height="56.1457356"></rect>
                <path d="M11.9445299,36.59919 L11.9445299,34.3581901 L19.2277799,34.3581901 L19.2277799,29.3159401 L2.77883998,29.3159401 L2.77883998,30.6157201 L10.4654699,30.6157201 L10.4654699,33.0584101 L3.98897997,33.0584101 C3.63041998,34.8288 3.07016998,37.09221 2.59955998,38.52645 L4.07861997,38.75055 L4.32512997,37.92138 L9.09845994,37.92138 C6.99191995,39.82623 3.72005997,41.48457 0.829169994,42.29133 C1.14290999,42.58266 1.56869999,43.14291 1.79279999,43.50147 C4.81814997,42.51543 8.22446994,40.61058 10.4654699,38.36958 L10.4654699,43.90485 L11.9445299,43.90485 L11.9445299,37.92138 L18.9812699,37.92138 C18.7347599,40.13997 18.4882499,41.08119 18.1296899,41.39493 C17.9504099,41.57421 17.7263099,41.59662 17.3229299,41.59662 C16.9419599,41.59662 15.8662799,41.59662 14.7457799,41.46216 C14.9922899,41.86554 15.1491599,42.42579 15.1715699,42.87399 C15.8214599,42.91881 16.4265299,42.91881 16.9419599,42.91881 C19.5415199,42.91881 19.9897199,42.82917 20.5723799,37.18185 C20.5947899,37.02498 20.6396099,36.86811 20.6396099,36.71124 L19.7656199,36.57678 L19.4294699,36.59919 L11.9445299,36.59919 Z M17.7487199,30.6157201 L17.7487199,33.0584101 L11.9445299,33.0584101 L11.9445299,30.6157201 L17.7487199,30.6157201 Z M10.4654699,36.59919 L4.66127997,36.59919 C4.84055997,35.88207 5.04224997,35.09772 5.19911996,34.3581901 L10.4654699,34.3581901 L10.4654699,36.59919 Z M7.39529995,28.5315901 C7.23842995,27.9489301 6.92468995,27.0973501 6.54371996,26.3354101 L10.8912599,26.3354101 L10.8912599,25.1028601 L4.68368997,25.1028601 C4.90778997,24.6546601 5.13188997,24.1840501 5.31116996,23.7358501 C5.53526996,23.7582601 5.73695996,23.6910301 5.78177996,23.5341601 L4.07861997,22.9739101 C3.31667998,25.0580401 2.01689999,27.1645801 0.694709995,28.4195401 C1.05326999,28.5988201 1.56869999,28.9573801 1.86002999,29.2038901 C2.59955998,28.4419501 3.36149998,27.4335001 4.01138997,26.3354101 L5.04224997,26.3354101 C5.46803996,27.2318101 5.89382996,28.3299001 6.05069996,29.0470201 L7.39529995,28.5315901 Z M12.9529799,22.9739101 C12.1686299,25.0804501 10.7567999,27.0749401 9.23291994,28.2402601 C9.59147993,28.4419501 10.1069099,28.8229201 10.3758299,29.0694301 C11.2498199,28.3747201 12.1013999,27.4110901 12.8185199,26.3354101 L14.5664999,26.3354101 C15.2836199,27.2318101 15.9559199,28.3523101 16.2472499,29.1142501 L17.5694399,28.5764101 C17.3005199,27.9489301 16.7850899,27.0973501 16.2024299,26.3354101 L21.5584199,26.3354101 L21.5584199,25.1028601 L13.5804599,25.1028601 C13.8269699,24.6546601 14.0510699,24.1840501 14.2527599,23.7134401 C14.4768599,23.7134401 14.6561399,23.6686201 14.7009599,23.5117501 L12.9529799,22.9739101 Z M29.4467398,32.8567201 C31.3964098,32.1620101 32.4944998,30.6157201 32.4944998,28.8901501 C32.4944998,26.8732501 31.1274898,24.9235801 28.0573198,24.9235801 C26.4437998,24.9235801 24.8750998,25.5510601 24.0683398,26.1785401 L24.6285898,27.5455501 C25.3008898,27.0525301 26.4662098,26.4474601 27.6987598,26.4474601 C29.7156598,26.4474601 30.5896498,27.7024201 30.5896498,29.1590701 C30.5896498,31.2656101 28.5055198,32.2740601 26.8919998,32.2740601 L25.7939098,32.2740601 L25.7939098,33.6634801 L26.8919998,33.6634801 C29.0881798,33.6634801 31.1723098,34.78398 31.1723098,37.24908 C31.1723098,38.79537 30.2534998,40.76745 27.4298398,40.76745 C25.9507798,40.76745 24.6061798,40.16238 24.0011098,39.759 L23.4408598,41.19324 C24.2027998,41.73108 25.7266798,42.26892 27.4074298,42.26892 C31.1723098,42.26892 33.0995698,39.93828 33.0995698,37.27149 C33.0995698,34.85121 31.4188198,33.2601001 29.4467398,32.9239501 L29.4467398,32.8567201 Z M38.5900197,43.97208 L40.0466697,43.97208 L40.0466697,29.1142501 C40.3379997,29.0918401 40.4500497,28.9797901 40.4948697,28.8453301 L39.8897997,28.6884601 C40.6741497,27.1869901 41.3688597,25.6182901 41.9515197,24.0495901 C42.2204397,24.0720001 42.3773097,24.0047701 42.4669497,23.8479001 L40.6741497,23.2428301 C39.3743697,27.1197601 37.2230097,30.9966901 35.0716498,33.3273301 C35.3181598,33.6858901 35.6991298,34.3806001 35.8559998,34.73916 C36.7972197,33.6634801 37.7384397,32.4085201 38.5900197,30.9966901 L38.5900197,43.97208 Z M41.4360897,42.82917 L56.4731996,42.82917 L56.4731996,41.37252 L41.4360897,41.37252 L41.4360897,42.82917 Z M41.9963397,29.0694301 L55.8905396,29.0694301 L55.8905396,27.6127801 L49.5260997,27.6127801 L49.5260997,23.5565701 C49.8398397,23.5117501 49.9518897,23.4221101 49.9742997,23.2428301 L48.0246297,23.1307801 L48.0246297,27.6127801 L41.9963397,27.6127801 L41.9963397,29.0694301 Z M52.5962696,30.4588501 C52.0808396,33.3497401 51.0723897,37.42836 50.1983997,39.84864 C50.1983997,39.87105 51.4981796,40.27443 51.4981796,40.27443 C52.3945796,37.87656 53.4254396,33.9548101 54.0080996,31.2432001 C54.2770196,31.2432001 54.4787096,31.1311501 54.5235296,30.9742801 L52.5962696,30.4588501 Z M43.7443197,30.8398201 C44.5958997,33.8651701 45.3354297,37.87656 45.5147097,40.13997 L47.0161797,39.82623 C46.8144897,37.54041 46.0077297,33.6410701 45.1113297,30.5933101 L43.7443197,30.8398201 Z" id="text" fill="#000000"></path>
            </g>
        </g>
    </g>
</svg>