<?xml version="1.0" encoding="UTF-8" standalone="no"?>
<svg width="16px" height="16px" viewBox="0 0 16 16" version="1.1" xmlns="http://www.w3.org/2000/svg" xmlns:xlink="http://www.w3.org/1999/xlink">
    <!-- Generator: Sketch 3.6.1 (26313) - http://www.bohemiancoding.com/sketch -->
    <title>fingar-arrow</title>
    <desc>Created with Sketch.</desc>
    <defs></defs>
    <g id="icons" stroke="none" stroke-width="1" fill="none" fill-rule="evenodd">
        <g id="fingar-arrow" fill="#333333">
            <g id="icon" transform="translate(0.000000, 2.000000)">
                <path d="M15.8464688,4.7674418 C15.6993438,4.4307924 15.4597188,4.13834059 15.1629688,3.92601589 C15.0144688,3.81995993 14.8510313,3.73423972 14.6773125,3.67463074 C14.5033125,3.61547772 14.3185625,3.58197997 14.1294375,3.58197997 L8.618875,3.58197997 C8.7919375,3.41585907 9.0735625,3.15444283 9.5190625,2.76061623 C9.711875,2.58981416 9.8638125,2.40007461 9.968,2.19644352 C10.0724375,1.99284283 10.1281875,1.77471226 10.1281875,1.55390674 C10.1281875,1.38514128 10.095375,1.21567668 10.0304063,1.0526867 C9.90509375,0.737892919 9.6705,0.478482902 9.380875,0.29743696 C9.09121875,0.116360622 8.7435,0.0118853195 8.37971875,0.0116725389 C8.03015625,0.0116725389 7.69365625,0.112591364 7.41340625,0.304793092 C7.37303125,0.332697755 7.2865,0.390087737 7.16690625,0.468877375 C6.74734375,0.744397927 5.91534375,1.28419206 5.06565625,1.83386528 C4.30340625,2.32678687 3.52765625,2.82779413 3.02015625,3.15553713 C2.72753125,2.92512608 2.356625,2.79095268 1.96184375,2.79095268 L1.68459375,2.79095268 C1.22071875,2.79095268 0.79796875,2.97515993 0.49384375,3.27165458 C0.18934375,3.56723731 0,3.97823834 0,4.42991088 L0,9.14461347 C0,9.59604283 0.18934375,10.0072566 0.49390625,10.3028698 C0.79803125,10.5989085 1.22078125,10.7833285 1.68465625,10.7833285 L1.96190625,10.7833285 C2.34109375,10.7833285 2.7014375,10.6609796 2.992,10.4412988 L6.5160625,11.5754197 C6.5160625,11.5754197 6.5160625,11.5754197 6.5158125,11.5754197 L6.51696875,11.5756629 C6.81234375,11.6723261 7.11946875,11.7216912 7.42953125,11.7216912 C8.57275,11.721904 9.60353125,11.0601865 10.0538438,10.0378667 L11.2168125,7.39832263 L14.0383125,7.39832263 C14.578625,7.39832263 15.0704375,7.18399171 15.4248125,6.83928705 C15.7794375,6.49415682 16.00025,6.0159171 16,5.49016649 C16,5.23717029 15.944,4.99229016 15.8464688,4.7674418 L15.8464688,4.7674418 Z M14.7073437,6.14091054 C14.5352187,6.30791295 14.3001875,6.41038204 14.0382812,6.41038204 L11.1116875,6.41038204 C10.769,6.41038204 10.4598437,6.60887599 10.325125,6.91518895 L9.120625,9.64872124 C8.97165625,9.98649534 8.72859375,10.2568484 8.43275,10.4441865 C8.1366875,10.6312511 7.7878125,10.7337506 7.42953125,10.7337506 C7.23353125,10.7337506 7.03475,10.7033838 6.83921875,10.6390936 L6.83715625,10.6382121 L3.2311875,9.47794957 L3.2311875,6.4503848 C3.2311875,6.31420518 3.1175625,6.20346805 2.97734375,6.20346805 C2.83734375,6.20346805 2.7235,6.31420518 2.7235,6.4503848 L2.7235,9.37414301 L2.603,9.37414301 L2.52840625,9.48956131 C2.46915625,9.58154335 2.3865625,9.65856995 2.2896875,9.71170432 C2.19284375,9.76529465 2.082,9.79566149 1.9619375,9.79566149 L1.6846875,9.79566149 C1.49925,9.79566149 1.33353125,9.7228601 1.2114375,9.60476684 C1.09003125,9.48621762 1.01565625,9.32480829 1.0154375,9.14464387 L1.0154375,4.42991088 C1.0156875,4.24950328 1.09003125,4.08788117 1.2114375,3.96954473 C1.33353125,3.85145147 1.49925,3.77910604 1.6846875,3.77865009 L1.9619375,3.77865009 C2.11021875,3.77910604 2.2445,3.82488428 2.35534375,3.90367392 C2.46596875,3.98228117 2.55090625,4.09344387 2.59565625,4.22226736 L2.65371875,4.38969534 L2.94384375,4.38969534 L3.007625,4.34905423 C3.007625,4.34905423 4.14421875,3.61587288 5.33565625,2.8456677 C5.9315,2.46032193 6.54084375,2.06561382 7.02928125,1.74814508 C7.27346875,1.58919793 7.48715625,1.44985699 7.65403125,1.34070052 C7.73734375,1.28598549 7.8091875,1.23890017 7.86703125,1.20050846 C7.92534375,1.16232953 7.96940625,1.13284421 7.99921875,1.1121133 C8.05546875,1.07305285 8.1158125,1.04578653 8.179625,1.02706183 C8.2434375,1.00876269 8.3106875,0.999369948 8.37978125,0.999369948 C8.4725,0.999369948 8.56796875,1.01608843 8.65746875,1.0471544 C8.79196875,1.09314542 8.9115625,1.17172228 8.99096875,1.26191088 C9.03090625,1.30747634 9.06096875,1.3552304 9.08115625,1.40325803 C9.10090625,1.45171123 9.111,1.5003772 9.11146875,1.55217409 C9.11103125,1.61558273 9.09634375,1.6840981 9.05503125,1.76383005 C9.01346875,1.84328843 8.94440625,1.93393299 8.8360625,2.02971468 C8.3260625,2.48068808 8.01828125,2.76848912 7.83671875,2.94573541 C7.65446875,3.12301209 7.59871875,3.18906528 7.59021875,3.19891399 C7.44675,3.35251123 7.3705625,3.54963731 7.3705625,3.75013748 C7.3705625,3.85886839 7.3928125,3.96872401 7.43828125,4.07228739 C7.57115625,4.37413195 7.87596875,4.56970777 8.21315625,4.56970777 L14.1294687,4.56970777 C14.2281562,4.56970777 14.3303125,4.5947247 14.430375,4.64381623 C14.5809375,4.71658722 14.7241562,4.84431641 14.8251562,4.99745769 C14.9265937,5.15105492 14.9851562,5.32653817 14.9846562,5.49019689 C14.984375,5.7453209 14.8790312,5.97348256 14.7073437,6.14091054 L14.7073437,6.14091054 Z" id="Shape"></path>
            </g>
        </g>
    </g>
</svg>