<?xml version="1.0" encoding="UTF-8" standalone="no"?>
<svg width="16px" height="16px" viewBox="0 0 16 16" version="1.1" xmlns="http://www.w3.org/2000/svg" xmlns:xlink="http://www.w3.org/1999/xlink">
    <!-- Generator: Sketch 3.6.1 (26313) - http://www.bohemiancoding.com/sketch -->
    <title>kirakira-righttop</title>
    <desc>Created with Sketch.</desc>
    <defs>
        <linearGradient x1="50%" y1="0%" x2="50%" y2="100%" id="linearGradient-1">
            <stop stop-color="#FBDA61" offset="0%"></stop>
            <stop stop-color="#F76B1C" offset="100%"></stop>
        </linearGradient>
    </defs>
    <g id="icons" stroke="none" stroke-width="1" fill="none" fill-rule="evenodd">
        <g id="kirakira-righttop" fill="url(#linearGradient-1)">
            <g id="shape" transform="translate(4.000000, -2.000000)">
                <g id="kirakira">
                    <path d="M7.62816975,7.83290482 C4.89818683,5.0657736 6.22278281,5.0657736 3.49467875,7.83290482 C6.22466167,5.0657736 6.22466167,6.40839405 3.49467875,3.64316725 C6.22466167,6.41029847 4.90006569,6.41029847 7.62816975,3.64316725 C4.90006569,6.41029847 4.90006569,5.06767803 7.62816975,7.83290482 L7.62816975,7.83290482 Z" id="Shape" style="mix-blend-mode: lighten;"></path>
                    <path d="M5.56142425,11.2913427 C5.56142425,3.959302 7.31627907,5.73803604 0.08266982,5.73803604 C7.31627907,5.73803604 5.56142425,7.51677007 5.56142425,0.184729338 C5.56142425,7.51677007 3.80656944,5.73803604 11.0401787,5.73803604 C3.80656944,5.73803604 5.56142425,3.959302 5.56142425,11.2913427 L5.56142425,11.2913427 Z" id="Shape" style="mix-blend-mode: lighten;"></path>
                </g>
                <g id="kirakira-copy" transform="translate(9.407171, 7.594796) rotate(-315.000000) translate(-9.407171, -7.594796) translate(5.907171, 4.094796)">
                    <path d="M4.62313318,4.60759107 C2.96859808,2.97986682 3.77138352,2.97986682 2.11798712,4.60759107 C3.77252223,2.97986682 3.77252223,3.76964356 2.11798712,2.14303956 C3.77252223,3.77076381 2.96973678,3.77076381 4.62313318,2.14303956 C2.96973678,3.77076381 2.96973678,2.98098707 4.62313318,4.60759107 L4.62313318,4.60759107 Z" id="Shape" style="mix-blend-mode: lighten;"></path>
                    <path d="M3.37056015,6.64196631 C3.37056015,2.32900118 4.43410853,3.37531532 0.0501029212,3.37531532 C4.43410853,3.37531532 3.37056015,4.42162946 3.37056015,0.108664316 C3.37056015,4.42162946 2.30701178,3.37531532 6.69101739,3.37531532 C2.30701178,3.37531532 3.37056015,2.32900118 3.37056015,6.64196631 L3.37056015,6.64196631 Z" id="Shape" style="mix-blend-mode: lighten;"></path>
                </g>
            </g>
        </g>
    </g>
</svg>