<?xml version="1.0" encoding="UTF-8" standalone="no"?>
<svg width="16px" height="16px" viewBox="0 0 16 16" version="1.1" xmlns="http://www.w3.org/2000/svg" xmlns:xlink="http://www.w3.org/1999/xlink">
    <!-- Generator: Sketch 3.6.1 (26313) - http://www.bohemiancoding.com/sketch -->
    <title>kirakira-leftbottom</title>
    <desc>Created with Sketch.</desc>
    <defs>
        <linearGradient x1="50%" y1="0%" x2="50%" y2="100%" id="linearGradient-1">
            <stop stop-color="#FBDA61" offset="0%"></stop>
            <stop stop-color="#F76B1C" offset="100%"></stop>
        </linearGradient>
    </defs>
    <g id="icons" stroke="none" stroke-width="1" fill="none" fill-rule="evenodd">
        <g id="kirakira-leftbottom" fill="url(#linearGradient-1)">
            <g id="shape" transform="translate(0.000000, 5.000000)">
                <g id="kirakira">
                    <path d="M7.17109723,7.5405 C4.60469224,4.87666667 5.84991971,4.87666667 3.285281,7.5405 C5.85168599,4.87666667 5.85168599,6.16916667 3.285281,3.50716667 C5.85168599,6.171 4.60645852,6.171 7.17109723,3.50716667 C4.60645852,6.171 4.60645852,4.8785 7.17109723,7.5405 L7.17109723,7.5405 Z" id="Shape" style="mix-blend-mode: lighten;"></path>
                    <path d="M5.22818912,10.8698333 C5.22818912,3.8115 6.87789474,5.52383333 0.0777163247,5.52383333 C6.87789474,5.52383333 5.22818912,7.23616667 5.22818912,0.177833333 C5.22818912,7.23616667 3.5784835,5.52383333 10.3786619,5.52383333 C3.5784835,5.52383333 5.22818912,3.8115 5.22818912,10.8698333 L5.22818912,10.8698333 Z" id="Shape" style="mix-blend-mode: lighten;"></path>
                </g>
                <g id="kirakira-copy" transform="translate(5.684211, 3.882353)">
                    <path d="M4.34611954,4.43558824 C2.79072257,2.86862745 3.54540589,2.86862745 1.99107939,4.43558824 C3.54647636,2.86862745 3.54647636,3.62892157 1.99107939,2.06303922 C3.54647636,3.63 2.79179304,3.63 4.34611954,2.06303922 C2.79179304,3.63 2.79179304,2.86970588 4.34611954,4.43558824 L4.34611954,4.43558824 Z" id="Shape" style="mix-blend-mode: lighten;"></path>
                    <path d="M3.16859946,6.39401961 C3.16859946,2.24205882 4.16842105,3.24931373 0.0471008029,3.24931373 C4.16842105,3.24931373 3.16859946,4.25656863 3.16859946,0.104607843 C3.16859946,4.25656863 2.16877788,3.24931373 6.29009813,3.24931373 C2.16877788,3.24931373 3.16859946,2.24205882 3.16859946,6.39401961 L3.16859946,6.39401961 Z" id="Shape" style="mix-blend-mode: lighten;"></path>
                </g>
            </g>
        </g>
    </g>
</svg>