<?xml version="1.0" encoding="UTF-8" standalone="no"?>
<svg width="34px" height="50px" viewBox="0 0 34 50" version="1.1" xmlns="http://www.w3.org/2000/svg" xmlns:xlink="http://www.w3.org/1999/xlink">
    <!-- Generator: Sketch 3.6.1 (26313) - http://www.bohemiancoding.com/sketch -->
    <title>kirakira2</title>
    <desc>Created with Sketch.</desc>
    <defs>
        <linearGradient x1="50%" y1="0%" x2="50%" y2="100%" id="linearGradient-1">
            <stop stop-color="#FBDA61" offset="0%"></stop>
            <stop stop-color="#F76B1C" offset="100%"></stop>
        </linearGradient>
    </defs>
    <g id="icons" stroke="none" stroke-width="1" fill="none" fill-rule="evenodd">
        <g id="kirakira2" fill="url(#linearGradient-1)">
            <g id="shape" transform="translate(-3.000000, 15.000000)">
                <g id="1">
                    <path d="M22.996967,23.9925 C14.7667717,15.5166667 18.7600874,15.5166667 10.5355563,23.9925 C18.7657516,15.5166667 18.7657516,19.6291667 10.5355563,11.1591667 C18.7657516,19.635 14.7724359,19.635 22.996967,11.1591667 C14.7724359,19.635 14.7724359,15.5225 22.996967,23.9925 L22.996967,23.9925 Z" id="Shape" style="mix-blend-mode: lighten;"></path>
                    <path d="M16.7662617,34.5858333 C16.7662617,12.1275 22.0566969,17.5758333 0.249228214,17.5758333 C22.0566969,17.5758333 16.7662617,23.0241667 16.7662617,0.565833333 C16.7662617,23.0241667 11.4758264,17.5758333 33.2832951,17.5758333 C11.4758264,17.5758333 16.7662617,12.1275 16.7662617,34.5858333 L16.7662617,34.5858333 Z" id="Shape" style="mix-blend-mode: lighten;"></path>
                </g>
                <g id="2" transform="translate(18.228675, 12.352941)">
                    <path d="M13.9375558,14.1132353 C8.94955858,9.12745098 11.3697499,9.12745098 6.38518564,14.1132353 C11.3731828,9.12745098 11.3731828,11.5465686 6.38518564,6.56421569 C11.3731828,11.55 8.95299148,11.55 13.9375558,6.56421569 C8.95299148,11.55 8.95299148,9.13088235 13.9375558,14.1132353 L13.9375558,14.1132353 Z" id="Shape" style="mix-blend-mode: lighten;"></path>
                    <path d="M10.1613707,20.3446078 C10.1613707,7.13382353 13.3676951,10.3387255 0.151047402,10.3387255 C13.3676951,10.3387255 10.1613707,13.5436275 10.1613707,0.332843137 C10.1613707,13.5436275 6.95504629,10.3387255 20.171694,10.3387255 C6.95504629,10.3387255 10.1613707,7.13382353 10.1613707,20.3446078 L10.1613707,20.3446078 Z" id="Shape" style="mix-blend-mode: lighten;"></path>
                </g>
            </g>
        </g>
    </g>
</svg>