<?xml version="1.0" encoding="UTF-8" standalone="no"?>
<svg width="16px" height="13px" viewBox="0 0 16 13" version="1.1" xmlns="http://www.w3.org/2000/svg" xmlns:xlink="http://www.w3.org/1999/xlink">
    <!-- Generator: Sketch 42 (36781) - http://www.bohemiancoding.com/sketch -->
    <title>mail</title>
    <desc>Created with Sketch.</desc>
    <defs></defs>
    <g id="Symbols" stroke="none" stroke-width="1" fill="none" fill-rule="evenodd">
        <g id="Footer" transform="translate(-628.000000, -15.000000)" fill-rule="nonzero" fill="#6D6D6D">
            <g id="Group-7">
                <g transform="translate(529.000000, 13.000000)">
                    <g id="mail" transform="translate(99.000000, 2.000000)">
                        <path d="M14.5,0 L1.5,0 C0.675,0 0,0.675 0,1.5 L0,11.5 C0,12.325 0.675,13 1.5,13 L14.5,13 C15.325,13 16,12.325 16,11.5 L16,1.5 C16,0.675 15.325,0 14.5,0 Z M6.23,6.6 L2,9.895 L2,2.057 L6.23,6.6 Z M2.756,2 L13.244,2 L8,5.938 L2.756,2 L2.756,2 Z M6.395,6.777 L8,8.5 L9.605,6.777 L12.895,11 L3.105,11 L6.395,6.777 L6.395,6.777 Z M9.77,6.6 L14,2.057 L14,9.895 L9.77,6.6 Z" id="Shape"></path>
                    </g>
                </g>
            </g>
        </g>
    </g>
</svg>