<?xml version="1.0" encoding="UTF-8" standalone="no"?>
<svg width="95px" height="18px" viewBox="0 0 95 18" version="1.1" xmlns="http://www.w3.org/2000/svg" xmlns:xlink="http://www.w3.org/1999/xlink">
    <!-- Generator: Sketch 3.8.3 (29802) - http://www.bohemiancoding.com/sketch -->
    <title>start-3-half</title>
    <desc>Created with Sketch.</desc>
    <defs>
        <polygon id="path-1" points="18.9263564 6.87540559 12.3875221 5.92524336 9.46317821 0 6.53890828 5.92524336 0 6.87540559 4.73158911 11.487559 3.61463835 18 9.46317821 14.9252434 15.3117181 18 14.1947304 11.487559 18.9263564 6.87540559"></polygon>
        <mask id="mask-2" maskContentUnits="userSpaceOnUse" maskUnits="objectBoundingBox" x="0" y="0" width="18.9263564" height="18" fill="white">
            <use xlink:href="#path-1"></use>
        </mask>
        <polygon id="path-3" points="37.9263564 6.87540559 31.3875221 5.92524336 28.4631782 0 25.5389083 5.92524336 19 6.87540559 23.7315891 11.487559 22.6146384 18 28.4631782 14.9252434 34.3117181 18 33.1947304 11.487559 37.9263564 6.87540559"></polygon>
        <mask id="mask-4" maskContentUnits="userSpaceOnUse" maskUnits="objectBoundingBox" x="0" y="0" width="18.9263564" height="18" fill="white">
            <use xlink:href="#path-3"></use>
        </mask>
        <polygon id="path-5" points="56.9263564 6.87540559 50.3875221 5.92524336 47.4631782 0 44.5389083 5.92524336 38 6.87540559 42.7315891 11.487559 41.6146384 18 47.4631782 14.9252434 53.3117181 18 52.1947304 11.487559 56.9263564 6.87540559"></polygon>
        <mask id="mask-6" maskContentUnits="userSpaceOnUse" maskUnits="objectBoundingBox" x="0" y="0" width="18.9263564" height="18" fill="white">
            <use xlink:href="#path-5"></use>
        </mask>
        <polygon id="path-7" points="88.3875221 5.92524336 85.4631782 0 82.5389083 5.92524336 76 6.87540559 80.7315891 11.487559 79.6146384 18 85.4631782 14.9252434 91.3117181 18 90.1947304 11.487559 94.9263564 6.87540559"></polygon>
        <mask id="mask-8" maskContentUnits="userSpaceOnUse" maskUnits="objectBoundingBox" x="0" y="0" width="18.9263564" height="18" fill="white">
            <use xlink:href="#path-7"></use>
        </mask>
        <polygon id="path-9" points="88.3875221 5.92524336 85.4631782 0 82.5389083 5.92524336 76 6.87540559 80.7315891 11.487559 79.6146384 18 85.4631782 14.9252434 91.3117181 18 90.1947304 11.487559 94.9263564 6.87540559"></polygon>
        <mask id="mask-10" maskContentUnits="userSpaceOnUse" maskUnits="objectBoundingBox" x="0" y="0" width="18.9263564" height="18" fill="white">
            <use xlink:href="#path-9"></use>
        </mask>
        <polygon id="path-11" points="12.3875221 5.92524336 9.46317821 0 6.53890828 5.92524336 0 6.87540559 4.73158911 11.487559 3.61463835 18 9.46317821 14.9252434 15.3117181 18 14.1947304 11.487559 18.9263564 6.87540559"></polygon>
        <mask id="mask-12" maskContentUnits="userSpaceOnUse" maskUnits="objectBoundingBox" x="0" y="0" width="18.9263564" height="18" fill="white">
            <use xlink:href="#path-11"></use>
        </mask>
    </defs>
    <g id="Page-1" stroke="none" stroke-width="1" fill="none" fill-rule="evenodd">
        <g id="start-3-half">
            <use id="Shape" stroke="#BA7D00" mask="url(#mask-2)" stroke-width="2" fill="#FFC900" xlink:href="#path-1"></use>
            <use id="Shape" stroke="#BA7D00" mask="url(#mask-4)" stroke-width="2" fill="#FFC900" xlink:href="#path-3"></use>
            <use id="Shape" stroke="#BA7D00" mask="url(#mask-6)" stroke-width="2" fill="#FFC900" xlink:href="#path-5"></use>
            <use id="Shape" stroke="#BA7D00" mask="url(#mask-8)" stroke-width="2" xlink:href="#path-7"></use>
            <use id="Shape" stroke="#BA7D00" mask="url(#mask-10)" stroke-width="2" xlink:href="#path-9"></use>
            <g id="Half" transform="translate(57.000000, 0.000000)">
                <polygon id="Shape" fill="#FFC900" points="9.46317821 0 6.53890828 5.92524336 0 6.87540559 4.73158911 11.487559 3.61463835 18 9.46317821 14.9252434"></polygon>
                <use id="Shape" stroke="#BA7D00" mask="url(#mask-12)" stroke-width="2" xlink:href="#path-11"></use>
            </g>
        </g>
    </g>
</svg>