<?xml version="1.0" encoding="UTF-8" standalone="no"?>
<svg width="16px" height="13px" viewBox="0 0 16 13" version="1.1" xmlns="http://www.w3.org/2000/svg" xmlns:xlink="http://www.w3.org/1999/xlink">
    <!-- Generator: Sketch 42 (36781) - http://www.bohemiancoding.com/sketch -->
    <title>twitter</title>
    <desc>Created with Sketch.</desc>
    <defs></defs>
    <g id="Symbols" stroke="none" stroke-width="1" fill="none" fill-rule="evenodd">
        <g id="Footer" transform="translate(-650.000000, -15.000000)" fill-rule="nonzero" fill="#6D6D6D">
            <g id="Group-7">
                <g transform="translate(529.000000, 13.000000)">
                    <g id="twitter" transform="translate(120.000000, 2.000000)">
                        <path d="M17,1.538 C16.412,1.801 15.778,1.976 15.116,2.054 C15.794,1.648 16.313,1.004 16.56,0.238 C15.926,0.613 15.222,0.888 14.476,1.035 C13.876,0.397 13.023,0.001 12.079,0.001 C10.266,0.001 8.798,1.47 8.798,3.282 C8.798,3.538 8.826,3.788 8.882,4.029 C6.154,3.891 3.735,2.585 2.116,0.598 C1.835,1.082 1.672,1.648 1.672,2.248 C1.672,3.386 2.25,4.392 3.131,4.979 C2.593,4.963 2.087,4.813 1.643,4.57 L1.643,4.611 C1.643,6.202 2.774,7.53 4.277,7.83 C4.002,7.905 3.711,7.946 3.411,7.946 C3.199,7.946 2.995,7.924 2.792,7.887 C3.211,9.19 4.423,10.14 5.858,10.168 C4.733,11.049 3.32,11.574 1.78,11.574 C1.514,11.574 1.255,11.558 0.996,11.527 C2.452,12.461 4.177,13.002 6.03,13.002 C12.067,13.002 15.371,7.999 15.371,3.661 C15.371,3.517 15.368,3.377 15.362,3.236 C16.003,2.777 16.559,2.198 16.999,1.539 L17,1.538 Z" id="Shape"></path>
                    </g>
                </g>
            </g>
        </g>
    </g>
</svg>