<?xml version="1.0" encoding="UTF-8" standalone="no"?>
<svg width="67px" height="50px" viewBox="0 0 67 50" version="1.1" xmlns="http://www.w3.org/2000/svg" xmlns:xlink="http://www.w3.org/1999/xlink">
    <!-- Generator: Sketch 3.6.1 (26313) - http://www.bohemiancoding.com/sketch -->
    <title>4</title>
    <desc>Created with Sketch.</desc>
    <defs>
        <linearGradient x1="0%" y1="0%" x2="101.999998%" y2="100.999999%" id="linearGradient-1">
            <stop stop-color="#3023AE" offset="0%"></stop>
            <stop stop-color="#C96DD8" offset="100%"></stop>
        </linearGradient>
    </defs>
    <g id="icons" stroke="none" stroke-width="1" fill="none" fill-rule="evenodd">
        <g id="4">
            <g id="rank-circle" transform="translate(9.000000, 2.000000)">
                <g id="a470ff10-a1fa-422a-9807-96215074f722">
                    <path d="M24.8830909,45.1923077 C24.398008,44.8304319 23.8664666,44.537488 23.3032121,44.3216026 C22.148,43.8546154 20.9066667,43.508141 19.6772121,43.1164744 C17.2153333,42.3421795 14.7564242,41.3539744 12.5796364,39.8686538 C10.4032245,38.3861807 8.52216052,36.5002891 7.03521212,34.31 C5.53897493,32.1362995 4.4451352,29.7045041 3.80715152,27.1334615 C3.17227931,24.5611672 3.01716873,21.8911059 3.34981818,19.2609615 C4.01047437,13.9570202 6.70853665,9.13219918 10.8572121,5.83583333 C12.9072594,4.21754378 15.2182139,2.97189418 17.6875152,2.15416667 C17.7898271,2.13077464 17.8930338,2.18953363 17.9266572,2.29031818 C17.9602807,2.39110273 17.9134659,2.50137557 17.8181818,2.54583333 C15.4030618,3.3658115 13.1463367,4.60434086 11.1482424,6.20641026 C7.13023246,9.44633334 4.53653748,14.1654529 3.93187879,19.3362821 C3.62940867,21.8907838 3.80063646,24.4801476 4.43672727,26.9707692 C5.07254527,29.457127 6.14929829,31.8052524 7.61430303,33.9002564 C9.06403975,36.0045503 10.892815,37.8118372 13.004303,39.2269231 C15.1098182,40.6399359 17.4826061,41.5769231 19.923697,42.3241026 C21.1442424,42.7097436 22.3855758,43.0411538 23.6209697,43.5292308 C24.2614064,43.7702142 24.8659985,44.0997113 25.4176364,44.5083974 C25.6997576,44.7253205 29.1119394,47.5061538 26.3798182,46.8704487 C25.8363636,46.7439103 25.3374545,45.5689103 24.8830909,45.1923077 L24.8830909,45.1923077 Z" id="Shape" fill="#BD0FE1"></path>
                    <path d="M22.8310303,39.9620513 C23.7070909,40.5646154 24.8682424,42.6464744 23.5437576,43.6798718 C21.9371515,43.2249359 22.2400606,40.8508333 22.8310303,39.9620513 L22.8310303,39.9620513 Z" id="Shape" fill="#BD0FE1"></path>
                    <path d="M19.7336364,45.1380769 C20.6601818,45.6502564 23.0210909,45.740641 23.3150909,44.0655128 C22.1747273,42.8272436 20.2384848,44.1950641 19.7336364,45.1380769 L19.7336364,45.1380769 Z" id="Shape" fill="#BD0FE1"></path>
                    <path d="M19.0476364,38.808141 C19.923697,39.4107051 21.0848485,41.4925641 19.7603636,42.5259615 C18.1537576,42.0710256 18.4566667,39.6969231 19.0476364,38.808141 L19.0476364,38.808141 Z" id="Shape" fill="#BD0FE1"></path>
                    <path d="M15.9502424,43.9871795 C16.8767879,44.499359 19.237697,44.5897436 19.531697,42.9146154 C18.394303,41.6733333 16.4550909,43.0411538 15.9502424,43.9871795 L15.9502424,43.9871795 Z" id="Shape" fill="#BD0FE1"></path>
                    <path d="M15.5552727,37.2836538 C16.4313333,37.8862179 17.5924848,39.9680769 16.268,41.0014744 C14.6613939,40.5465385 14.964303,38.1724359 15.5552727,37.2836538 L15.5552727,37.2836538 Z" id="Shape" fill="#BD0FE1"></path>
                    <path d="M12.4578788,42.4566667 C13.3844242,42.9688462 15.7453333,43.0592308 16.0393333,41.3841026 C14.8989697,40.1488462 12.9627273,41.5166667 12.4578788,42.4566667 L12.4578788,42.4566667 Z" id="Shape" fill="#BD0FE1"></path>
                    <path d="M12.2143636,35.6205769 C13.0904242,36.223141 14.2515758,38.305 12.9270909,39.3383974 C11.3204848,38.8864744 11.6233939,36.509359 12.2143636,35.6205769 L12.2143636,35.6205769 Z" id="Shape" fill="#BD0FE1"></path>
                    <path d="M9.1169697,40.7966026 C10.0435152,41.3087821 12.4044242,41.3991667 12.6984242,39.7240385 C11.5610303,38.4857692 9.62181818,39.8566026 9.1169697,40.7966026 L9.1169697,40.7966026 Z" id="Shape" fill="#BD0FE1"></path>
                    <path d="M10.064303,33.1410256 C10.7681212,33.9394231 11.3947273,36.2502564 9.86236364,36.9251282 C8.41315152,36.0785256 9.28030303,33.8490385 10.064303,33.1410256 L10.064303,33.1410256 Z" id="Shape" fill="#BD0FE1"></path>
                    <path d="M5.81466667,37.3830769 C6.59272727,38.1091667 8.85860606,38.775 9.54757576,37.2294231 C8.73981818,35.7501282 6.53333333,36.5967308 5.81466667,37.3830769 L5.81466667,37.3830769 Z" id="Shape" fill="#BD0FE1"></path>
                    <path d="M8.45472727,30.6524359 C9.04866667,31.5351923 9.37236364,33.9092949 7.76872727,34.3762821 C6.43830303,33.3519231 7.58460606,31.2580128 8.45472727,30.6524359 L8.45472727,30.6524359 Z" id="Shape" fill="#BD0FE1"></path>
                    <path d="M3.69430303,34.3069872 C4.37139394,35.1294872 6.53333333,36.0875641 7.42424242,34.6474359 C6.80654545,33.0717308 4.508,33.6200641 3.69430303,34.3069872 L3.69430303,34.3069872 Z" id="Shape" fill="#BD0FE1"></path>
                    <path d="M7.22527273,27.7450641 C7.66478788,28.7182051 7.58163636,31.1133974 5.92157576,31.2971795 C4.78418182,30.0589103 6.26606061,28.1909615 7.22527273,27.7450641 L7.22527273,27.7450641 Z" id="Shape" fill="#BD0FE1"></path>
                    <path d="M1.92139394,30.5228846 C2.45,31.4508333 4.41890909,32.7704487 5.52957576,31.5020513 C5.194,29.845 2.83606061,29.9866026 1.92139394,30.5228846 L1.92139394,30.5228846 Z" id="Shape" fill="#BD0FE1"></path>
                    <path d="M6.50660606,24.7412821 C6.72636364,25.7897436 6.12945455,28.1066026 4.46939394,27.9167949 C3.626,26.4555769 5.47315152,24.9612179 6.50660606,24.7412821 L6.50660606,24.7412821 Z" id="Shape" fill="#BD0FE1"></path>
                    <path d="M0.733515152,26.2748077 C1.04830303,27.2961538 2.67272727,29.0225 4.04175758,28.0192308 C4.07145455,26.3380769 1.74024242,25.9554487 0.733515152,26.2748077 L0.733515152,26.2748077 Z" id="Shape" fill="#BD0FE1"></path>
                    <path d="M6.48284848,21.5025 C6.44721212,22.5720513 5.32466667,24.6810256 3.75666667,24.0935256 C3.26666667,22.4666026 5.42860606,21.4663462 6.48284848,21.5025 L6.48284848,21.5025 Z" id="Shape" fill="#BD0FE1"></path>
                    <path d="M0.513757576,21.5898718 C0.593939394,22.6594231 1.764,24.7322436 3.31418182,24.1025641 C3.74181818,22.4605769 1.5709697,21.5235897 0.513757576,21.5898718 L0.513757576,21.5898718 Z" id="Shape" fill="#BD0FE1"></path>
                    <path d="M6.60757576,17.9172436 C6.50660606,18.9837821 5.25933333,21.0174359 3.72993939,20.3275 C3.35278788,18.6794872 5.55630303,17.8148077 6.60757576,17.9172436 L6.60757576,17.9172436 Z" id="Shape" fill="#BD0FE1"></path>
                    <path d="M0.644424242,17.6340385 C0.644424242,18.7066026 1.70163636,20.8487179 3.28745455,20.3124359 C3.81309091,18.7035897 1.70163636,17.6340385 0.644424242,17.6340385 L0.644424242,17.6340385 Z" id="Shape" fill="#BD0FE1"></path>
                    <path d="M7.53115152,14.8682692 C7.27575758,15.9076923 5.74933333,17.7274359 4.32981818,16.8175641 C4.20212121,15.1273718 6.50660606,14.6061538 7.53115152,14.8682692 L7.53115152,14.8682692 Z" id="Shape" fill="#BD0FE1"></path>
                    <path d="M1.68084848,13.6782051 C1.52345455,14.7387179 2.2510303,17.0164103 3.89624242,16.7271795 C4.65351515,15.2207692 2.72618182,13.8378846 1.68084848,13.6782051 L1.68084848,13.6782051 Z" id="Shape" fill="#BD0FE1"></path>
                    <path d="M8.87048485,12.3103846 C8.39236364,13.1871154 6.57193939,14.4555128 5.51472727,13.2865385 C5.79981818,11.7319231 8.01818182,11.8253205 8.87048485,12.3103846 L8.87048485,12.3103846 Z" id="Shape" fill="#BD0FE1"></path>
                    <path d="M3.86060606,9.80371795 C3.46563636,10.7075641 3.58145455,12.958141 5.13757576,13.1027564 C6.18587879,11.9247436 4.77230303,10.2044231 3.86060606,9.80371795 L3.86060606,9.80371795 Z" id="Shape" fill="#BD0FE1"></path>
                    <path d="M10.7473333,9.52352564 C10.2187273,10.3701282 8.33,11.5270513 7.34109091,10.3008333 C7.72121212,8.76128205 9.91284848,8.98724359 10.7473333,9.52352564 L10.7473333,9.52352564 Z" id="Shape" fill="#BD0FE1"></path>
                    <path d="M5.89781818,6.72461538 C5.44939394,7.62846154 5.43751515,9.85794872 6.98175758,10.0929487 C8.09242424,8.97820513 6.77684848,7.17955128 5.89781818,6.72461538 L5.89781818,6.72461538 Z" id="Shape" fill="#BD0FE1"></path>
                    <path d="M12.6152727,7.83333333 C11.9530303,8.43589744 10.0227273,9.00833333 9.44363636,7.69173077 C10.1355758,6.42935897 12.0094545,7.15544872 12.6152727,7.83333333 L12.6152727,7.83333333 Z" id="Shape" fill="#BD0FE1"></path>
                    <path d="M9.016,4.20288462 C8.42206061,4.87775641 7.87563636,6.83910256 9.17636364,7.4175641 C10.4117576,6.70955128 9.68418182,4.82051282 9.016,4.20288462 L9.016,4.20288462 Z" id="Shape" fill="#BD0FE1"></path>
                    <path d="M14.768303,6.42032051 C14.014,6.90839744 12.0153939,7.12230769 11.6709091,5.72737179 C12.5618182,4.60961538 14.2872121,5.6550641 14.768303,6.42032051 L14.768303,6.42032051 Z" id="Shape" fill="#BD0FE1"></path>
                    <path d="M11.8401818,2.22044872 C11.1333939,2.78083333 10.2692121,4.63070513 11.4511515,5.41705128 C12.7875152,4.93198718 12.3925455,2.9375 11.8401818,2.22044872 L11.8401818,2.22044872 Z" id="Shape" fill="#BD0FE1"></path>
                    <path d="M17.4618182,4.68794872 C16.7431515,5.04647436 14.9524242,5.0374359 14.7890909,3.76301282 C15.68,2.86217949 17.1084242,3.95884615 17.4618182,4.68794872 L17.4618182,4.68794872 Z" id="Shape" fill="#BD0FE1"></path>
                    <path d="M15.2731515,0.671858974 C14.5930909,1.09666667 13.6487273,2.64224359 14.6198182,3.46775641 C15.8492727,3.1725 15.6918788,1.36179487 15.2731515,0.671858974 L15.2731515,0.671858974 Z" id="Shape" fill="#BD0FE1"></path>
                    <path d="M19.7425455,1.75044872 C19.3564848,2.46147436 17.8775758,3.48884615 17.0193333,2.54282051 C17.2539394,1.28044872 19.041697,1.35576923 19.7425455,1.75044872 L19.7425455,1.75044872 Z" id="Shape" fill="#BD0FE1"></path>
                    <path d="M24.1139394,45.1923077 C24.5991019,44.8305592 25.1306255,44.5376251 25.6938182,44.3216026 C26.8490303,43.8546154 28.0903636,43.508141 29.3198182,43.1164744 C31.781697,42.3421795 34.2406061,41.3539744 36.4173939,39.8686538 C38.5940775,38.3865179 40.4751989,36.5005687 41.9618182,34.31 C43.4582156,32.1334767 44.5511011,29.6985026 45.1869091,27.1244231 C45.8223368,24.5522151 45.9774535,21.8820478 45.6442424,19.2519231 C44.9843338,13.9468966 42.2861997,9.1208644 38.1368485,5.82378205 C36.0868339,4.20544129 33.7758702,2.95978675 31.3065455,2.14211538 C31.2042335,2.11872335 31.1010268,2.17748235 31.0674034,2.2782669 C31.0337799,2.37905145 31.0805947,2.48932429 31.1758788,2.53378205 C33.5928863,3.35706344 35.8506994,4.59971607 37.8487879,6.20641026 C41.8661877,9.44643696 44.4588999,14.1657104 45.0621818,19.3362821 C45.3614336,21.8925177 45.1861702,24.4830017 44.5454545,26.9737821 C43.9096366,29.4601398 42.8328835,31.8082652 41.3678788,33.9032692 C39.9221823,36.0050355 38.0985646,37.8111816 35.9927273,39.2269231 C33.8872121,40.6399359 31.5144242,41.5769231 29.0733333,42.3241026 C27.8527879,42.7097436 26.6114545,43.0411538 25.3760606,43.5292308 C24.7345886,43.7699627 24.1289824,44.0994679 23.5764242,44.5083974 C23.294303,44.7253205 19.8821212,47.5061538 22.6172121,46.8704487 C23.1487879,46.7439103 23.6566061,45.5689103 24.1139394,45.1923077 L24.1139394,45.1923077 Z" id="Shape" fill="#BD0FE1"></path>
                    <path d="M26.1630303,39.9620513 C25.2869697,40.5646154 24.1258182,42.6464744 25.450303,43.6798718 C27.0598788,43.2249359 26.754,40.8508333 26.1630303,39.9620513 L26.1630303,39.9620513 Z" id="Shape" fill="#BD0FE1"></path>
                    <path d="M29.2633939,45.1380769 C28.3368485,45.6502564 25.9759394,45.740641 25.6819394,44.0655128 C26.8193333,42.8272436 28.7555758,44.1950641 29.2633939,45.1380769 L29.2633939,45.1380769 Z" id="Shape" fill="#BD0FE1"></path>
                    <path d="M29.9464242,38.808141 C29.0703636,39.4107051 27.9092121,41.4925641 29.233697,42.5259615 C30.840303,42.0710256 30.5373939,39.6969231 29.9464242,38.808141 L29.9464242,38.808141 Z" id="Shape" fill="#BD0FE1"></path>
                    <path d="M33.0438182,43.9871795 C32.1172727,44.499359 29.7563636,44.5897436 29.4623636,42.9146154 C30.5878788,41.6733333 32.5389697,43.0411538 33.0438182,43.9871795 L33.0438182,43.9871795 Z" id="Shape" fill="#BD0FE1"></path>
                    <path d="M33.4417576,37.2836538 C32.565697,37.8862179 31.4045455,39.9680769 32.7260606,41.0014744 C34.3356364,40.5465385 34.0297576,38.1724359 33.4417576,37.2836538 L33.4417576,37.2836538 Z" id="Shape" fill="#BD0FE1"></path>
                    <path d="M36.5272727,42.4566667 C35.6007273,42.9688462 33.2398182,43.0592308 32.9458182,41.3841026 C34.0950909,40.1488462 36.0313333,41.5166667 36.5272727,42.4566667 L36.5272727,42.4566667 Z" id="Shape" fill="#BD0FE1"></path>
                    <path d="M36.779697,35.6205769 C35.9036364,36.223141 34.7424848,38.305 36.0669697,39.3383974 C37.6735758,38.8864744 37.3706667,36.509359 36.779697,35.6205769 L36.779697,35.6205769 Z" id="Shape" fill="#BD0FE1"></path>
                    <path d="M39.8770909,40.7966026 C38.9505455,41.3087821 36.5896364,41.3991667 36.2956364,39.7240385 C37.436,38.4857692 39.3722424,39.8566026 39.8770909,40.7966026 L39.8770909,40.7966026 Z" id="Shape" fill="#BD0FE1"></path>
                    <path d="M38.9297576,33.1410256 C38.2259394,33.9394231 37.5993333,36.2502564 39.131697,36.9251282 C40.5838788,36.0785256 39.7167273,33.8490385 38.9297576,33.1410256 L38.9297576,33.1410256 Z" id="Shape" fill="#BD0FE1"></path>
                    <path d="M43.1793939,37.3830769 C42.404303,38.1091667 40.1354545,38.775 39.4494545,37.2294231 C40.2542424,35.7501282 42.4666667,36.5967308 43.1793939,37.3830769 L43.1793939,37.3830769 Z" id="Shape" fill="#BD0FE1"></path>
                    <path d="M40.5393333,30.6524359 C39.9453939,31.5351923 39.6187273,33.9092949 41.2253333,34.3762821 C42.5587273,33.3519231 41.4124242,31.2580128 40.5393333,30.6524359 L40.5393333,30.6524359 Z" id="Shape" fill="#BD0FE1"></path>
                    <path d="M45.2997576,34.3069872 C44.6226667,35.1294872 42.4666667,36.0875641 41.5757576,34.6474359 C42.1904848,33.0717308 44.4890303,33.6200641 45.2997576,34.3069872 L45.2997576,34.3069872 Z" id="Shape" fill="#BD0FE1"></path>
                    <path d="M41.7687879,27.7450641 C41.3292727,28.7182051 41.4124242,31.1133974 43.0724848,31.2971795 C44.2098788,30.0589103 42.728,28.1909615 41.7687879,27.7450641 L41.7687879,27.7450641 Z" id="Shape" fill="#BD0FE1"></path>
                    <path d="M47.0726667,30.5228846 C46.5440606,31.4508333 44.5751515,32.7704487 43.4644848,31.5020513 C43.8000606,29.845 46.158,29.9866026 47.0726667,30.5228846 L47.0726667,30.5228846 Z" id="Shape" fill="#BD0FE1"></path>
                    <path d="M42.4874545,24.7412821 C42.267697,25.7897436 42.8646061,28.1066026 44.5246667,27.9167949 C45.3680606,26.4555769 43.5209091,24.9612179 42.4874545,24.7412821 L42.4874545,24.7412821 Z" id="Shape" fill="#BD0FE1"></path>
                    <path d="M48.2605455,26.2748077 C47.9457576,27.2961538 46.3064848,29.0225 44.952303,28.0312821 C44.9226061,26.3380769 47.2538182,25.9554487 48.2605455,26.2748077 L48.2605455,26.2748077 Z" id="Shape" fill="#BD0FE1"></path>
                    <path d="M42.5112121,21.5025 C42.5468485,22.5720513 43.6693939,24.6810256 45.2373939,24.0935256 C45.7125455,22.4666026 43.5684242,21.4663462 42.5112121,21.5025 L42.5112121,21.5025 Z" id="Shape" fill="#BD0FE1"></path>
                    <path d="M48.480303,21.5898718 C48.4060606,22.6594231 47.2181818,24.7322436 45.6798788,24.1025641 C45.2522424,22.4605769 47.4260606,21.5235897 48.480303,21.5898718 L48.480303,21.5898718 Z" id="Shape" fill="#BD0FE1"></path>
                    <path d="M42.3894545,17.9172436 C42.4874545,18.9837821 43.737697,21.0174359 45.2670909,20.3275 C45.6412727,18.6794872 43.4407273,17.8148077 42.3894545,17.9172436 L42.3894545,17.9172436 Z" id="Shape" fill="#BD0FE1"></path>
                    <path d="M48.3496364,17.6340385 C48.3496364,18.7066026 47.2924242,20.8487179 45.7066061,20.3124359 C45.1809697,18.7035897 47.2924242,17.6340385 48.3496364,17.6340385 L48.3496364,17.6340385 Z" id="Shape" fill="#BD0FE1"></path>
                    <path d="M41.4629091,14.8682692 C41.718303,15.9076923 43.2447273,17.7274359 44.6642424,16.8175641 C44.7919394,15.1273718 42.4874545,14.6061538 41.4629091,14.8682692 L41.4629091,14.8682692 Z" id="Shape" fill="#BD0FE1"></path>
                    <path d="M47.3132121,13.6782051 C47.4735758,14.7387179 46.7430303,17.0164103 45.0978182,16.7271795 C44.3405455,15.2207692 46.2708485,13.8378846 47.3132121,13.6782051 L47.3132121,13.6782051 Z" id="Shape" fill="#BD0FE1"></path>
                    <path d="M40.1265455,12.3103846 C40.6046667,13.1871154 42.4250909,14.4555128 43.482303,13.2865385 C43.1942424,11.7319231 40.9818182,11.8253205 40.1265455,12.3103846 L40.1265455,12.3103846 Z" id="Shape" fill="#BD0FE1"></path>
                    <path d="M45.1393939,9.80371795 C45.5343636,10.7075641 45.4215152,12.958141 43.8624242,13.1027564 C42.8081818,11.9247436 44.2247273,10.2044231 45.1393939,9.80371795 L45.1393939,9.80371795 Z" id="Shape" fill="#BD0FE1"></path>
                    <path d="M38.2467273,9.52352564 C38.7753333,10.3701282 40.6640606,11.5270513 41.6529697,10.3008333 C41.2787879,8.76128205 39.0812121,8.98724359 38.2467273,9.52352564 L38.2467273,9.52352564 Z" id="Shape" fill="#BD0FE1"></path>
                    <path d="M43.0992121,6.72461538 C43.5476364,7.62846154 43.5595152,9.85794872 42.0152727,10.0929487 C40.9046061,8.97820513 42.2172121,7.17955128 43.0992121,6.72461538 L43.0992121,6.72461538 Z" id="Shape" fill="#BD0FE1"></path>
                    <path d="M36.3787879,7.83333333 C37.0410303,8.43589744 38.9713333,9.00833333 39.5504242,7.69173077 C38.8584848,6.42935897 36.9846061,7.15544872 36.3787879,7.83333333 L36.3787879,7.83333333 Z" id="Shape" fill="#BD0FE1"></path>
                    <path d="M39.9780606,4.20288462 C40.572,4.87775641 41.1184242,6.83910256 39.817697,7.4175641 C38.582303,6.70955128 39.3128485,4.82051282 39.9780606,4.20288462 L39.9780606,4.20288462 Z" id="Shape" fill="#BD0FE1"></path>
                    <path d="M34.2257576,6.42032051 C34.9800606,6.90839744 36.9786667,7.12230769 37.3261212,5.72737179 C36.4322424,4.60961538 34.7098182,5.6550641 34.2257576,6.42032051 L34.2257576,6.42032051 Z" id="Shape" fill="#BD0FE1"></path>
                    <path d="M37.1538788,2.22044872 C37.8606667,2.78083333 38.7248485,4.63070513 37.5429091,5.41705128 C36.2065455,4.93198718 36.6015152,2.9375 37.1538788,2.22044872 L37.1538788,2.22044872 Z" id="Shape" fill="#BD0FE1"></path>
                    <path d="M31.5352121,4.68794872 C32.2538788,5.04647436 34.0446061,5.0374359 34.2079394,3.76301282 C33.3140606,2.86217949 31.8886061,3.95884615 31.5352121,4.68794872 L31.5352121,4.68794872 Z" id="Shape" fill="#BD0FE1"></path>
                    <path d="M33.7238788,0.671858974 C34.4069091,1.09666667 35.348303,2.64224359 34.3772121,3.46775641 C33.1447879,3.1725 33.3021818,1.36179487 33.7238788,0.671858974 L33.7238788,0.671858974 Z" id="Shape" fill="#BD0FE1"></path>
                    <path d="M29.2515152,1.75044872 C29.6375758,2.46147436 31.1164848,3.48884615 31.9747273,2.54282051 C31.7401212,1.28044872 29.9523636,1.35576923 29.2515152,1.75044872 L29.2515152,1.75044872 Z" id="Shape" fill="#BD0FE1"></path>
                    <path d="M24.4613939,44.7795513 C23.9715972,44.4174272 23.4349812,44.1254541 22.8666667,43.911859 C21.7114545,43.4448718 20.4701212,43.0983974 19.2406667,42.7067308 C16.7787879,41.9324359 14.3198788,40.9442308 12.1430909,39.4589103 C9.97017694,37.9737534 8.09313203,36.0858063 6.61054545,33.8942308 C5.114148,31.7177075 4.02126252,29.2827334 3.38545455,26.7086538 C2.75009636,24.1364351 2.59498039,21.466281 2.92812121,18.8361538 C3.58802984,13.5311274 6.28616395,8.70509517 10.4355152,5.40801282 C12.4856604,3.7898768 14.7965875,2.54424202 17.2658182,1.72634615 C17.3681301,1.70295412 17.4713368,1.76171312 17.5049602,1.86249767 C17.5385837,1.96328222 17.4917689,2.07355506 17.3964848,2.11801282 C14.9814127,2.93810297 12.7247059,4.1766223 10.7265455,5.77858974 C6.70846624,9.01933373 4.1156828,13.7398198 3.51315152,18.9114744 C3.21047075,21.4659705 3.38170116,24.055374 4.018,26.5459615 C4.65381799,29.0323193 5.73057102,31.3804447 7.19557576,33.4754487 C8.64506789,35.5772498 10.4727714,37.3824289 12.5826061,38.7960897 C14.6881212,40.2091026 17.0609091,41.1460897 19.502,41.8932692 C20.7225455,42.2789103 21.9638788,42.6103205 23.1992727,43.0983974 C23.8407447,43.3391294 24.446351,43.6686346 24.9989091,44.0775641 C25.2810303,44.2975 28.6932121,47.0753205 25.9581212,46.4396154 C25.4265455,46.3160897 24.9187273,45.1410897 24.4613939,44.7795513 L24.4613939,44.7795513 Z" id="Shape" fill="#BD0FE1"></path>
                    <path d="M22.4093333,39.5342308 C23.2853939,40.1367949 24.4465455,42.2186538 23.1220606,43.2520513 C21.5154545,42.8001282 21.8213333,40.4230128 22.4093333,39.5342308 L22.4093333,39.5342308 Z" id="Shape" fill="url(#linearGradient-1)"></path>
                    <path d="M19.3030303,44.7102564 C20.2295758,45.2224359 22.5904848,45.3128205 22.8844848,43.6376923 C21.756,42.3994231 19.8167879,43.7702564 19.3030303,44.7102564 L19.3030303,44.7102564 Z" id="Shape" fill="url(#linearGradient-1)"></path>
                    <path d="M18.6259394,38.3833333 C19.502,38.9858974 20.6631515,41.0677564 19.3386667,42.1011538 C17.7320606,41.6462179 18.0379394,39.2691026 18.6259394,38.3833333 L18.6259394,38.3833333 Z" id="Shape" fill="url(#linearGradient-1)"></path>
                    <path d="M15.5285455,43.5563462 C16.4580606,44.0685256 18.816,44.1589103 19.11,42.4837821 C17.9726061,41.2455128 16.0363636,42.6163462 15.5285455,43.5563462 L15.5285455,43.5563462 Z" id="Shape" fill="url(#linearGradient-1)"></path>
                    <path d="M15.1454545,36.8558333 C16.0215152,37.4583974 17.1826667,39.5402564 15.8611515,40.5736538 C14.239697,40.1217308 14.5515152,37.7446154 15.1454545,36.8558333 L15.1454545,36.8558333 Z" id="Shape" fill="url(#linearGradient-1)"></path>
                    <path d="M12.0361818,42.031859 C12.9627273,42.5440385 15.3236364,42.6344231 15.6176364,40.9592949 C14.4772727,39.7210256 12.5410303,41.091859 12.0361818,42.031859 L12.0361818,42.031859 Z" id="Shape" fill="url(#linearGradient-1)"></path>
                    <path d="M11.7926667,35.1957692 C12.6687273,35.7983333 13.8298788,37.8801923 12.5053939,38.9135897 C10.8987879,38.4586538 11.2046667,36.0845513 11.7926667,35.1957692 L11.7926667,35.1957692 Z" id="Shape" fill="url(#linearGradient-1)"></path>
                    <path d="M8.69527273,40.3717949 C9.62181818,40.8839744 11.9827273,40.974359 12.2767273,39.2992308 C11.1393333,38.0579487 9.20606061,39.4287821 8.69527273,40.3717949 L8.69527273,40.3717949 Z" id="Shape" fill="url(#linearGradient-1)"></path>
                    <path d="M9.64557576,32.7071795 C10.3493939,33.5055769 10.976,35.8164103 9.44363636,36.4912821 C7.99145455,35.6507051 8.85860606,33.4212179 9.64557576,32.7071795 L9.64557576,32.7071795 Z" id="Shape" fill="url(#linearGradient-1)"></path>
                    <path d="M5.39593939,36.9582692 C6.1710303,37.684359 8.43987879,38.3501923 9.12587879,36.8046154 C8.31515152,35.3223077 6.11163636,36.1689103 5.39593939,36.9582692 L5.39593939,36.9582692 Z" id="Shape" fill="url(#linearGradient-1)"></path>
                    <path d="M8.0330303,30.2246154 C8.6269697,31.1103846 8.95363636,33.4814744 7.3470303,33.9484615 C6.01660606,32.9271154 7.16290909,30.8301923 8.0330303,30.2246154 L8.0330303,30.2246154 Z" id="Shape" fill="url(#linearGradient-1)"></path>
                    <path d="M3.26666667,33.8791667 C3.94375758,34.7016667 6.10569697,35.6627564 6.98769697,34.2196154 C6.38484848,32.6439103 4.08630303,33.1922436 3.26666667,33.8791667 L3.26666667,33.8791667 Z" id="Shape" fill="url(#linearGradient-1)"></path>
                    <path d="M6.80654545,27.3202564 C7.24606061,28.2933974 7.16290909,30.6885897 5.50284848,30.869359 C4.36248485,29.6310897 5.84436364,27.7661538 6.80654545,27.3202564 L6.80654545,27.3202564 Z" id="Shape" fill="url(#linearGradient-1)"></path>
                    <path d="M1.50266667,30.0950641 C2.03127273,31.0230128 4.00018182,32.3426282 5.11084848,31.0772436 C4.77527273,29.4171795 2.41733333,29.5587821 1.50266667,30.0950641 L1.50266667,30.0950641 Z" id="Shape" fill="url(#linearGradient-1)"></path>
                    <path d="M6.08490909,24.3134615 C6.30466667,25.3619231 5.70775758,27.6787821 4.04769697,27.4889744 C3.20430303,26.0277564 5.04848485,24.5364103 6.08490909,24.3134615 L6.08490909,24.3134615 Z" id="Shape" fill="url(#linearGradient-1)"></path>
                    <path d="M0.311818182,25.8469872 C0.626606061,26.8683333 2.26587879,28.5946795 3.62006061,27.6034615 C3.65272727,25.9102564 1.31854545,25.5276282 0.311818182,25.8469872 L0.311818182,25.8469872 Z" id="Shape" fill="url(#linearGradient-1)"></path>
                    <path d="M6.06115152,21.0897436 C6.02551515,22.1592949 4.9029697,24.2682692 3.3349697,23.6807692 C2.85981818,22.0417949 5.00690909,21.0385256 6.06115152,21.0897436 L6.06115152,21.0897436 Z" id="Shape" fill="url(#linearGradient-1)"></path>
                    <path d="M0.095030303,21.1620513 C0.160363636,22.2316026 1.34527273,24.3044231 2.89248485,23.6717308 C3.32012121,22.0327564 1.14927273,21.0897436 0.095030303,21.1620513 L0.095030303,21.1620513 Z" id="Shape" fill="url(#linearGradient-1)"></path>
                    <path d="M6.18587879,17.4894231 C6.08787879,18.5559615 4.83763636,20.5896154 3.30824242,19.8996795 C2.93109091,18.2546795 5.13460606,17.3869872 6.18587879,17.4894231 L6.18587879,17.4894231 Z" id="Shape" fill="url(#linearGradient-1)"></path>
                    <path d="M0.222727273,17.2062179 C0.222727273,18.2787821 1.27993939,20.4208974 2.86575758,19.8846154 C3.39139394,18.2757692 1.27993939,17.2062179 0.222727273,17.2062179 L0.222727273,17.2062179 Z" id="Shape" fill="url(#linearGradient-1)"></path>
                    <path d="M7.11242424,14.4404487 C6.8570303,15.4798718 5.33060606,17.2996154 3.91109091,16.3897436 C3.78042424,14.6995513 6.08787879,14.1783333 7.11242424,14.4404487 L7.11242424,14.4404487 Z" id="Shape" fill="url(#linearGradient-1)"></path>
                    <path d="M1.25915152,13.2564103 C1.10175758,14.3108974 1.82933333,16.5885897 3.47454545,16.3023718 C4.23478788,14.7929487 2.30448485,13.4130769 1.25915152,13.2564103 L1.25915152,13.2564103 Z" id="Shape" fill="url(#linearGradient-1)"></path>
                    <path d="M8.44878788,11.8855769 C7.97066667,12.7623077 6.15024242,14.0307051 5.0930303,12.8617308 C5.37812121,11.3041026 7.58460606,11.3975 8.44878788,11.8855769 L8.44878788,11.8855769 Z" id="Shape" fill="url(#linearGradient-1)"></path>
                    <path d="M3.44484848,9.37891026 C3.04987879,10.2827564 3.16272727,12.5333333 4.72181818,12.6749359 C5.76418182,11.4999359 4.35060606,9.77961538 3.44484848,9.37891026 L3.44484848,9.37891026 Z" id="Shape" fill="url(#linearGradient-1)"></path>
                    <path d="M10.3256364,9.09570513 C9.8,9.94230769 7.90830303,11.0992308 6.91939394,9.87301282 C7.29654545,8.33647436 9.5030303,8.55942308 10.3256364,9.09570513 L10.3256364,9.09570513 Z" id="Shape" fill="url(#linearGradient-1)"></path>
                    <path d="M5.47612121,6.29980769 C5.02769697,7.20365385 5.01581818,9.43314103 6.56006061,9.66814103 C7.67072727,8.55339744 6.35515152,6.75173077 5.47612121,6.29980769 L5.47612121,6.29980769 Z" id="Shape" fill="url(#linearGradient-1)"></path>
                    <path d="M12.1935758,7.4025 C11.5313333,8.0050641 9.6010303,8.57448718 9.02193939,7.26089744 C9.71387879,6.00153846 11.5818182,6.73064103 12.1935758,7.4025 L12.1935758,7.4025 Z" id="Shape" fill="url(#linearGradient-1)"></path>
                    <path d="M8.59727273,3.7750641 C8.00333333,4.4499359 7.45690909,6.41128205 8.75763636,6.98974359 C9.9930303,6.28173077 9.26248485,4.38666667 8.59727273,3.7750641 L8.59727273,3.7750641 Z" id="Shape" fill="url(#linearGradient-1)"></path>
                    <path d="M14.3466061,5.99551282 C13.592303,6.48358974 11.593697,6.6975 11.2462424,5.3025641 C12.1430909,4.18179487 13.8655152,5.22724359 14.3466061,5.99551282 L14.3466061,5.99551282 Z" id="Shape" fill="url(#linearGradient-1)"></path>
                    <path d="M11.4184848,1.80769231 C10.711697,2.36807692 9.84751515,4.21794872 11.0294545,5.00429487 C12.3687879,4.51923077 11.9708485,2.50967949 11.4184848,1.80769231 L11.4184848,1.80769231 Z" id="Shape" fill="url(#linearGradient-1)"></path>
                    <path d="M17.0401212,4.26314103 C16.3214545,4.62166667 14.5307273,4.60961538 14.3673939,3.33820513 C15.2612727,2.43435897 16.6867273,3.53403846 17.0401212,4.26314103 L17.0401212,4.26314103 Z" id="Shape" fill="url(#linearGradient-1)"></path>
                    <path d="M14.8484848,0.244038462 C14.1654545,0.668846154 13.2240606,2.21442308 14.1951515,3.0399359 C15.4424242,2.74467949 15.2701818,0.936987179 14.8484848,0.244038462 L14.8484848,0.244038462 Z" id="Shape" fill="url(#linearGradient-1)"></path>
                    <path d="M19.3208485,1.32262821 C18.9347879,2.03365385 17.4558788,3.06102564 16.5976364,2.115 C16.8322424,0.852628205 18.62,0.930961538 19.3208485,1.32262821 L19.3208485,1.32262821 Z" id="Shape" fill="url(#linearGradient-1)"></path>
                    <path d="M24.5326667,44.7795513 C25.0177801,44.4185073 25.5493449,44.1265642 26.1125455,43.911859 C27.2677576,43.4448718 28.5090909,43.0983974 29.7385455,42.7067308 C32.2004242,41.9324359 34.6593333,40.9442308 36.8361212,39.4589103 C39.0125331,37.9764371 40.8935971,36.0905455 42.3805455,33.9002564 C43.8767694,31.7236328 44.9696399,29.2886922 45.6056364,26.7146795 C46.2404392,24.1423744 46.395549,21.4723262 46.0629697,18.8421795 C45.4030611,13.5371531 42.704927,8.71112081 38.5555758,5.41403846 C36.5053978,3.7959536 34.1944799,2.55032375 31.7252727,1.73237179 C31.6229608,1.70897976 31.5197541,1.76773876 31.4861307,1.86852331 C31.4525072,1.96930786 31.499322,2.0795807 31.5946061,2.12403846 C34.0119224,2.9445254 36.2706798,4.18408665 38.2704848,5.78762821 C42.2871329,9.02830229 44.8796587,13.7472365 45.4838788,18.9175 C45.7862787,21.4720037 45.6150518,24.0613542 44.9790303,26.5519872 C44.3431498,29.0383221 43.2664018,31.3864364 41.8014545,33.4814744 C40.3519624,35.5832754 38.5242589,37.3884545 36.4144242,38.8021154 C34.3089091,40.2151282 31.9361212,41.1521154 29.4950303,41.8992949 C28.2744848,42.2849359 27.0331515,42.6163462 25.7977576,43.1044231 C25.1572269,43.3451952 24.5526071,43.6747075 24.0010909,44.0835897 C23.7189697,44.3035256 20.3067879,47.0813462 23.0389091,46.445641 C23.5675152,46.3160897 24.078303,45.1410897 24.5326667,44.7795513 L24.5326667,44.7795513 Z" id="Shape" fill="#BD0FE1"></path>
                    <path d="M26.5847273,39.5342308 C25.7086667,40.1367949 24.5475152,42.2186538 25.872,43.2520513 C27.4786061,42.8001282 27.175697,40.4230128 26.5847273,39.5342308 L26.5847273,39.5342308 Z" id="Shape" fill="url(#linearGradient-1)"></path>
                    <path d="M29.6969697,44.7102564 C28.7704242,45.2224359 26.4095152,45.3128205 26.1155152,43.6376923 C27.2410303,42.3994231 29.1772727,43.7702564 29.6969697,44.7102564 L29.6969697,44.7102564 Z" id="Shape" fill="url(#linearGradient-1)"></path>
                    <path d="M30.3681212,38.3833333 C29.4920606,38.9858974 28.3309091,41.0677564 29.6553939,42.1011538 C31.262,41.6462179 30.9590909,39.2691026 30.3681212,38.3833333 L30.3681212,38.3833333 Z" id="Shape" fill="url(#linearGradient-1)"></path>
                    <path d="M33.4655152,43.5563462 C32.5389697,44.0685256 30.1780606,44.1589103 29.8840606,42.4837821 C31.0214545,41.2455128 32.9636364,42.6163462 33.4655152,43.5563462 L33.4655152,43.5563462 Z" id="Shape" fill="url(#linearGradient-1)"></path>
                    <path d="M33.8545455,36.8558333 C32.9784848,37.4583974 31.8173333,39.5402564 33.1418182,40.5736538 C34.7454545,40.1217308 34.4484848,37.7446154 33.8545455,36.8558333 L33.8545455,36.8558333 Z" id="Shape" fill="url(#linearGradient-1)"></path>
                    <path d="M36.9578788,42.031859 C36.0313333,42.5440385 33.6704242,42.6344231 33.3764242,40.9592949 C34.5167879,39.7210256 36.4530303,41.091859 36.9578788,42.031859 L36.9578788,42.031859 Z" id="Shape" fill="url(#linearGradient-1)"></path>
                    <path d="M37.2013939,35.1957692 C36.3253333,35.7983333 35.1641818,37.8801923 36.4886667,38.9135897 C38.0952727,38.4586538 37.7893939,36.0845513 37.2013939,35.1957692 L37.2013939,35.1957692 Z" id="Shape" fill="url(#linearGradient-1)"></path>
                    <path d="M40.2987879,40.3717949 C39.3722424,40.8839744 37.0113333,40.974359 36.7173333,39.2992308 C37.8547273,38.0579487 39.7939394,39.4287821 40.2987879,40.3717949 L40.2987879,40.3717949 Z" id="Shape" fill="url(#linearGradient-1)"></path>
                    <path d="M39.3484848,32.7071795 C38.6446667,33.5055769 38.0180606,35.8164103 39.5504242,36.4912821 C41.0026061,35.6507051 40.1354545,33.4212179 39.3484848,32.7071795 L39.3484848,32.7071795 Z" id="Shape" fill="url(#linearGradient-1)"></path>
                    <path d="M43.6010909,36.9582692 C42.8230303,37.684359 40.5571515,38.3501923 39.8681818,36.8046154 C40.6848485,35.3223077 42.8824242,36.1689103 43.6010909,36.9582692 L43.6010909,36.9582692 Z" id="Shape" fill="url(#linearGradient-1)"></path>
                    <path d="M40.9610303,30.2246154 C40.3670909,31.1103846 40.0433939,33.4814744 41.6470303,33.9484615 C42.9774545,32.9271154 41.8311515,30.8301923 40.9610303,30.2246154 L40.9610303,30.2246154 Z" id="Shape" fill="url(#linearGradient-1)"></path>
                    <path d="M45.7333333,33.8791667 C45.0562424,34.7016667 42.894303,35.6627564 42.012303,34.2196154 C42.6092121,32.6439103 44.9077576,33.1922436 45.7333333,33.8791667 L45.7333333,33.8791667 Z" id="Shape" fill="url(#linearGradient-1)"></path>
                    <path d="M42.1904848,27.3202564 C41.7509697,28.2933974 41.8341212,30.6885897 43.4941818,30.869359 C44.6315758,29.6310897 43.149697,27.7661538 42.1904848,27.3202564 L42.1904848,27.3202564 Z" id="Shape" fill="url(#linearGradient-1)"></path>
                    <path d="M47.4913939,30.0950641 C46.9627879,31.0230128 44.9938788,32.3426282 43.8832121,31.0772436 C44.2217576,29.4171795 46.5767273,29.5587821 47.4913939,30.0950641 L47.4913939,30.0950641 Z" id="Shape" fill="url(#linearGradient-1)"></path>
                    <path d="M42.9091515,24.3134615 C42.6893939,25.3619231 43.286303,27.6787821 44.9463636,27.4889744 C45.7897576,26.0277564 43.9515152,24.5364103 42.9091515,24.3134615 L42.9091515,24.3134615 Z" id="Shape" fill="url(#linearGradient-1)"></path>
                    <path d="M48.6822424,25.8469872 C48.3674545,26.8683333 46.7281818,28.5946795 45.374,27.6034615 C45.344303,25.9102564 47.6755152,25.5276282 48.6822424,25.8469872 L48.6822424,25.8469872 Z" id="Shape" fill="url(#linearGradient-1)"></path>
                    <path d="M42.9329091,21.0897436 C42.9685455,22.1592949 44.0910909,24.2682692 45.6590909,23.6807692 C46.1342424,22.0417949 43.9871515,21.0385256 42.9329091,21.0897436 L42.9329091,21.0897436 Z" id="Shape" fill="url(#linearGradient-1)"></path>
                    <path d="M48.902,21.1620513 C48.8366667,22.2316026 47.6517576,24.3044231 46.1015758,23.6717308 C45.6739394,22.0327564 47.8447879,21.0897436 48.902,21.1620513 L48.902,21.1620513 Z" id="Shape" fill="url(#linearGradient-1)"></path>
                    <path d="M42.8081818,17.4894231 C42.9091515,18.5559615 44.1564242,20.5896154 45.6858182,19.8996795 C46.0629697,18.2546795 43.8594545,17.3869872 42.8081818,17.4894231 L42.8081818,17.4894231 Z" id="Shape" fill="url(#linearGradient-1)"></path>
                    <path d="M48.7713333,17.2062179 C48.7713333,18.2787821 47.7141212,20.4208974 46.128303,19.8846154 C45.6026667,18.2757692 47.7141212,17.2062179 48.7713333,17.2062179 L48.7713333,17.2062179 Z" id="Shape" fill="url(#linearGradient-1)"></path>
                    <path d="M41.8727273,14.4404487 C42.1281212,15.4798718 43.6545455,17.2996154 45.0740606,16.3897436 C45.2136364,14.6995513 42.9091515,14.1783333 41.8727273,14.4404487 L41.8727273,14.4404487 Z" id="Shape" fill="url(#linearGradient-1)"></path>
                    <path d="M47.7349091,13.2564103 C47.892303,14.3169231 47.1647273,16.5946154 45.5195152,16.3053846 C44.7622424,14.7929487 46.6895758,13.4130769 47.7349091,13.2564103 L47.7349091,13.2564103 Z" id="Shape" fill="url(#linearGradient-1)"></path>
                    <path d="M40.5452727,11.8855769 C41.0233939,12.7623077 42.8438182,14.0307051 43.9010303,12.8617308 C43.6159394,11.3041026 41.4094545,11.3975 40.5452727,11.8855769 L40.5452727,11.8855769 Z" id="Shape" fill="url(#linearGradient-1)"></path>
                    <path d="M45.5492121,9.37891026 C45.9441818,10.2827564 45.8283636,12.5333333 44.2722424,12.6749359 C43.2298788,11.4999359 44.6434545,9.77961538 45.5492121,9.37891026 L45.5492121,9.37891026 Z" id="Shape" fill="url(#linearGradient-1)"></path>
                    <path d="M38.6684242,9.09570513 C39.1970303,9.94230769 41.0857576,11.0992308 42.0746667,9.87301282 C41.7004848,8.33647436 39.4969697,8.55942308 38.6684242,9.09570513 L38.6684242,9.09570513 Z" id="Shape" fill="url(#linearGradient-1)"></path>
                    <path d="M43.5179394,6.29980769 C43.9663636,7.20365385 43.9782424,9.43314103 42.434,9.66814103 C41.3233333,8.55339744 42.6389091,6.75173077 43.5179394,6.29980769 L43.5179394,6.29980769 Z" id="Shape" fill="url(#linearGradient-1)"></path>
                    <path d="M36.8004848,7.4025 C37.4627273,8.0050641 39.3930303,8.57448718 39.9721212,7.26089744 C39.2801818,6.00153846 37.4181818,6.73064103 36.8004848,7.4025 L36.8004848,7.4025 Z" id="Shape" fill="url(#linearGradient-1)"></path>
                    <path d="M40.3878788,3.7750641 C40.9818182,4.4499359 41.5282424,6.41128205 40.2275152,6.98974359 C39.004,6.28173077 39.7315758,4.38666667 40.3878788,3.7750641 L40.3878788,3.7750641 Z" id="Shape" fill="url(#linearGradient-1)"></path>
                    <path d="M34.6474545,5.99551282 C35.4017576,6.48358974 37.4003636,6.6975 37.7448485,5.3025641 C36.8509697,4.18179487 35.1285455,5.22724359 34.6474545,5.99551282 L34.6474545,5.99551282 Z" id="Shape" fill="url(#linearGradient-1)"></path>
                    <path d="M37.5755758,1.80769231 C38.2823636,2.36807692 39.1465455,4.21794872 37.9646061,5.00429487 C36.6282424,4.51923077 37.0232121,2.50967949 37.5755758,1.80769231 L37.5755758,1.80769231 Z" id="Shape" fill="url(#linearGradient-1)"></path>
                    <path d="M31.9539394,4.26314103 C32.6726061,4.62166667 34.4633333,4.60961538 34.6266667,3.33820513 C33.7327879,2.43435897 32.3073333,3.53403846 31.9539394,4.26314103 L31.9539394,4.26314103 Z" id="Shape" fill="url(#linearGradient-1)"></path>
                    <path d="M34.1515152,0.244038462 C34.8315758,0.668846154 35.7759394,2.21442308 34.8048485,3.0399359 C33.5575758,2.74467949 33.7238788,0.936987179 34.1515152,0.244038462 L34.1515152,0.244038462 Z" id="Shape" fill="url(#linearGradient-1)"></path>
                    <path d="M29.6732121,1.32262821 C30.0592727,2.03365385 31.5381818,3.06102564 32.3964242,2.115 C32.1618182,0.852628205 30.3740606,0.930961538 29.6732121,1.32262821 L29.6732121,1.32262821 Z" id="Shape" fill="url(#linearGradient-1)"></path>
                </g>
            </g>
            <path d="M35.1430598,26.9999001 L37.5716797,26.9999001 L37.5716797,25.4760601 L35.1430598,25.4760601 L35.1430598,14.1663104 L33.0953998,14.1663104 L25.4762,25.7379701 L25.4762,26.9999001 L33.2620698,26.9999001 L33.2620698,32 L35.1430598,32 L35.1430598,26.9999001 Z M27.4762399,25.4284401 L31.8334698,18.9521203 C32.2858598,18.1425803 32.7144398,17.3806603 33.2620698,16.2854004 L33.3573098,16.2854004 C33.3096898,17.2139903 33.2620698,18.1663903 33.2620698,19.1426003 L33.2620698,25.4760601 L27.4762399,25.4760601 L27.4762399,25.4284401 Z" fill="#000000"></path>
        </g>
    </g>
</svg>