<?xml version="1.0" encoding="UTF-8" standalone="no"?>
<svg width="378px" height="217px" viewBox="0 0 378 217" version="1.1" xmlns="http://www.w3.org/2000/svg" xmlns:xlink="http://www.w3.org/1999/xlink">
    <!-- Generator: Sketch 3.6.1 (26313) - http://www.bohemiancoding.com/sketch -->
    <title>bk-border</title>
    <desc>Created with Sketch.</desc>
    <defs></defs>
    <g id="icons" stroke="none" stroke-width="1" fill="none" fill-rule="evenodd">
        <g id="bk-border">
            <g id="shape">
                <path d="M0,0 L0,217 L378.132898,217 L378.132898,0 L0,0 L0,0 L0,0 Z" id="Shape" fill="#FCFFF0"></path>
                <path d="M194.518204,0 L194.518204,216.997288 L200.36702,216.997288 L200.36702,0 L194.518204,0 L194.518204,0 L194.518204,0 Z" id="Shape" fill="#F7F7E8"></path>
                <path d="M206.456163,0 L206.456163,216.997288 L212.307592,216.997288 L212.307592,0 L206.456163,0 L206.456163,0 L206.456163,0 Z" id="Shape" fill="#F7F7E8"></path>
                <path d="M218.785959,0 L218.785959,216.997288 L224.637388,216.997288 L224.637388,0 L218.785959,0 L218.785959,0 L218.785959,0 Z" id="Shape" fill="#F7F7E8"></path>
                <path d="M230.723918,0 L230.723918,216.997288 L236.575347,216.997288 L236.575347,0 L230.723918,0 L230.723918,0 L230.723918,0 Z" id="Shape" fill="#F7F7E8"></path>
                <path d="M243.489959,0 L243.489959,216.997288 L249.341388,216.997288 L249.341388,0 L243.489959,0 L243.489959,0 L243.489959,0 Z" id="Shape" fill="#F7F7E8"></path>
                <path d="M255.427918,0 L255.427918,216.997288 L261.279347,216.997288 L261.279347,0 L255.427918,0 L255.427918,0 L255.427918,0 Z" id="Shape" fill="#F7F7E8"></path>
                <path d="M267.757714,0 L267.757714,216.997288 L273.609143,216.997288 L273.609143,0 L267.757714,0 L267.757714,0 L267.757714,0 Z" id="Shape" fill="#F7F7E8"></path>
                <path d="M279.695673,0.0027125 L279.695673,217 L285.547102,217 L285.547102,0.0027125 L279.695673,0.0027125 L279.695673,0.0027125 L279.695673,0.0027125 Z" id="Shape" fill="#F7F7E8"></path>
                <path d="M292.952816,0 L292.952816,216.997288 L298.804245,216.997288 L298.804245,0 L292.952816,0 L292.952816,0 L292.952816,0 Z" id="Shape" fill="#F7F7E8"></path>
                <path d="M304.893388,0 L304.893388,216.997288 L310.742204,216.997288 L310.742204,0 L304.893388,0 L304.893388,0 L304.893388,0 Z" id="Shape" fill="#F7F7E8"></path>
                <path d="M317.223184,0 L317.223184,216.997288 L323.074612,216.997288 L323.074612,0 L317.223184,0 L317.223184,0 L317.223184,0 Z" id="Shape" fill="#F7F7E8"></path>
                <path d="M329.161143,0 L329.161143,216.997288 L335.009959,216.997288 L335.009959,0 L329.161143,0 L329.161143,0 L329.161143,0 Z" id="Shape" fill="#F7F7E8"></path>
                <path d="M341.927184,0 L341.927184,216.997288 L347.778612,216.997288 L347.778612,0 L341.927184,0 L341.927184,0 L341.927184,0 Z" id="Shape" fill="#F7F7E8"></path>
                <path d="M353.865143,0 L353.865143,216.997288 L359.716571,216.997288 L359.716571,0 L353.865143,0 L353.865143,0 L353.865143,0 Z" id="Shape" fill="#F7F7E8"></path>
                <path d="M366.194939,0 L366.194939,216.997288 L372.043755,216.997288 L372.043755,0 L366.194939,0 L366.194939,0 L366.194939,0 Z" id="Shape" fill="#F7F7E8"></path>
                <path d="M0,0 L0,216.997288 L5.85142857,216.997288 L5.85142857,0 L0,0 L0,0 L0,0 Z" id="Shape" fill="#F7F7E8"></path>
                <path d="M11.9379592,0 L11.9379592,216.997288 L17.7893878,216.997288 L17.7893878,0 L11.9379592,0 L11.9379592,0 L11.9379592,0 Z" id="Shape" fill="#F7F7E8"></path>
                <path d="M24.2677551,0 L24.2677551,216.997288 L30.1191837,216.997288 L30.1191837,0 L24.2677551,0 L24.2677551,0 L24.2677551,0 Z" id="Shape" fill="#F7F7E8"></path>
                <path d="M36.2057143,0 L36.2057143,216.997288 L42.0571429,216.997288 L42.0571429,0 L36.2057143,0 L36.2057143,0 L36.2057143,0 Z" id="Shape" fill="#F7F7E8"></path>
                <path d="M48.9717551,0 L48.9717551,216.997288 L54.8231837,216.997288 L54.8231837,0 L48.9717551,0 L48.9717551,0 L48.9717551,0 Z" id="Shape" fill="#F7F7E8"></path>
                <path d="M60.9123265,0 L60.9123265,216.997288 L66.7611429,216.997288 L66.7611429,0 L60.9123265,0 L60.9123265,0 L60.9123265,0 Z" id="Shape" fill="#F7F7E8"></path>
                <path d="M73.2395102,0 L73.2395102,216.997288 L79.0909388,216.997288 L79.0909388,0 L73.2395102,0 L73.2395102,0 L73.2395102,0 Z" id="Shape" fill="#F7F7E8"></path>
                <path d="M85.1774694,0.0027125 L85.1774694,217 L91.028898,217 L91.028898,0.0027125 L85.1774694,0.0027125 L85.1774694,0.0027125 L85.1774694,0.0027125 Z" id="Shape" fill="#F7F7E8"></path>
                <path d="M98.4372245,0 L98.4372245,216.997288 L104.288653,216.997288 L104.288653,0 L98.4372245,0 L98.4372245,0 L98.4372245,0 Z" id="Shape" fill="#F7F7E8"></path>
                <path d="M110.375184,0 L110.375184,216.997288 L116.226612,216.997288 L116.226612,0 L110.375184,0 L110.375184,0 L110.375184,0 Z" id="Shape" fill="#F7F7E8"></path>
                <path d="M122.70498,0 L122.70498,216.997288 L128.556408,216.997288 L128.556408,0 L122.70498,0 L122.70498,0 L122.70498,0 Z" id="Shape" fill="#F7F7E8"></path>
                <path d="M134.642939,0 L134.642939,216.997288 L140.494367,216.997288 L140.494367,0 L134.642939,0 L134.642939,0 L134.642939,0 Z" id="Shape" fill="#F7F7E8"></path>
                <path d="M147.40898,0 L147.40898,216.997288 L153.260408,216.997288 L153.260408,0 L147.40898,0 L147.40898,0 L147.40898,0 Z" id="Shape" fill="#F7F7E8"></path>
                <path d="M159.346939,0 L159.346939,216.997288 L165.198367,216.997288 L165.198367,0 L159.346939,0 L159.346939,0 L159.346939,0 Z" id="Shape" fill="#F7F7E8"></path>
                <path d="M171.676735,0 L171.676735,216.997288 L177.528163,216.997288 L177.528163,0 L171.676735,0 L171.676735,0 L171.676735,0 Z" id="Shape" fill="#F7F7E8"></path>
                <path d="M183.614694,0.0027125 L183.614694,217 L189.466122,217 L189.466122,0.0027125 L183.614694,0.0027125 L183.614694,0.0027125 L183.614694,0.0027125 Z" id="Shape" fill="#F7F7E8"></path>
            </g>
        </g>
    </g>
</svg>