<?xml version="1.0" encoding="UTF-8" standalone="no"?>
<svg width="16px" height="16px" viewBox="0 0 16 16" version="1.1" xmlns="http://www.w3.org/2000/svg" xmlns:xlink="http://www.w3.org/1999/xlink">
    <!-- Generator: Sketch 3.6.1 (26313) - http://www.bohemiancoding.com/sketch -->
    <title>checkbox</title>
    <desc>Created with Sketch.</desc>
    <defs></defs>
    <g id="icons" stroke="none" stroke-width="1" fill="none" fill-rule="evenodd">
        <g id="checkbox" fill="#333333">
            <g id="icon" transform="translate(0.000000, 1.000000)">
                <path d="M15.7687547,0.85937606 C15.4732075,0.553326892 15.0004528,0.553326892 14.7052075,0.85937606 L12.9811321,2.65159249 L12.9811321,0.508623081 C12.9811321,0.249778637 12.7640755,0.312926677 12.5138113,0.312926677 L0.494490566,0.312926677 C0.244528302,0.312926677 0,0.249778637 0,0.508623081 L0,12.955352 C0,13.2145091 0.244528302,13.7553314 0.494490566,13.7553314 L12.5138113,13.7553314 C12.7640755,13.7553314 12.9811321,13.2145091 12.9811321,12.955352 L12.9811321,4.86990188 L15.776,1.96853076 C16.0718491,1.66216897 16.0646038,1.16605046 15.7687547,0.85937606 L15.7687547,0.85937606 Z M12.0754717,12.8174892 L0.905660377,12.8174892 L0.905660377,1.25076887 L12.0754717,1.25076887 L12.0754717,3.58943468 L7.12513208,8.70880258 L3.39833962,4.85302072 C3.10279245,4.54697155 2.62098113,4.54697155 2.32543396,4.85302072 C2.02958491,5.1593825 2.02837736,5.65581363 2.32422642,5.96217542 L6.58233962,10.372222 C6.73026415,10.5254029 6.92377358,10.6019933 7.11758491,10.6019933 C7.31139623,10.6019933 7.51275472,10.5254029 7.66037736,10.372222 L12.0754717,5.80774407 L12.0754717,12.8174892 L12.0754717,12.8174892 Z" id="Shape"></path>
            </g>
        </g>
    </g>
</svg>