<?xml version="1.0" encoding="UTF-8" standalone="no"?>
<svg width="16px" height="15px" viewBox="0 0 16 15" version="1.1" xmlns="http://www.w3.org/2000/svg" xmlns:xlink="http://www.w3.org/1999/xlink">
    <!-- Generator: Sketch 42 (36781) - http://www.bohemiancoding.com/sketch -->
    <title>home</title>
    <desc>Created with Sketch.</desc>
    <defs></defs>
    <g id="Symbols" stroke="none" stroke-width="1" fill="none" fill-rule="evenodd">
        <g id="Footer" transform="translate(-605.000000, -13.000000)" fill-rule="nonzero" fill="#6D6D6D">
            <g id="Group-7">
                <g transform="translate(529.000000, 13.000000)">
                    <g id="home" transform="translate(76.000000, 0.000000)">
                        <path d="M8,0.5 L0,8.5 L1.5,10 L3,8.5 L3,15 L7,15 L7,12 L9,12 L9,15 L13,15 L13,8.5 L14.5,10 L16,8.5 L8,0.5 Z M8,7 C7.448,7 7,6.552 7,6 C7,5.448 7.448,5 8,5 C8.552,5 9,5.448 9,6 C9,6.552 8.552,7 8,7 Z" id="Shape"></path>
                    </g>
                </g>
            </g>
        </g>
    </g>
</svg>