<?xml version="1.0" encoding="UTF-8" standalone="no"?>
<svg width="34px" height="50px" viewBox="0 0 34 50" version="1.1" xmlns="http://www.w3.org/2000/svg" xmlns:xlink="http://www.w3.org/1999/xlink">
    <!-- Generator: Sketch 3.6.1 (26313) - http://www.bohemiancoding.com/sketch -->
    <title>kirakira1</title>
    <desc>Created with Sketch.</desc>
    <defs>
        <linearGradient x1="50%" y1="0%" x2="50%" y2="100%" id="linearGradient-1">
            <stop stop-color="#FBDA61" offset="0%"></stop>
            <stop stop-color="#F76B1C" offset="100%"></stop>
        </linearGradient>
    </defs>
    <g id="icons" stroke="none" stroke-width="1" fill="none" fill-rule="evenodd">
        <g id="kirakira1" fill="url(#linearGradient-1)">
            <g id="shape" transform="translate(-4.000000, -3.000000)">
                <g id="1">
                    <path d="M23.9015986,24.7037767 C15.3476521,15.9766706 19.4980528,15.9766706 10.9499934,24.7037767 C19.5039399,15.9766706 19.5039399,20.2110889 10.9499934,11.489989 C19.5039399,20.2170952 15.3535392,20.2170952 23.9015986,11.489989 C15.3535392,20.2170952 15.3535392,15.9826769 23.9015986,24.7037767 L23.9015986,24.7037767 Z" id="Shape" style="mix-blend-mode: lighten;"></path>
                    <path d="M17.425796,35.6111579 C17.425796,12.4870294 22.9243411,18.0968829 0.259032103,18.0968829 C22.9243411,18.0968829 17.425796,23.7067364 17.425796,0.582607912 C17.425796,23.7067364 11.9272509,18.0968829 34.5925599,18.0968829 C11.9272509,18.0968829 17.425796,12.4870294 17.425796,35.6111579 L17.425796,35.6111579 Z" id="Shape" style="mix-blend-mode: lighten;"></path>
                </g>
                <g id="2" transform="translate(29.526568, 23.242084) rotate(-315.000000) translate(-29.526568, -23.242084) translate(19.026568, 12.742084)">
                    <path d="M14.4858173,14.5316334 C9.30160732,9.39804152 11.8170017,9.39804152 6.63635965,14.5316334 C11.8205696,9.39804152 11.8205696,11.8888758 6.63635965,6.75881708 C11.8205696,11.8924089 9.30517526,11.8924089 14.4858173,6.75881708 C9.30517526,11.8924089 9.30517526,9.40157462 14.4858173,14.5316334 L14.4858173,14.5316334 Z" id="Shape" style="mix-blend-mode: lighten;"></path>
                    <path d="M10.5610885,20.9477399 C10.5610885,7.3453114 13.8935401,10.6452252 0.156989153,10.6452252 C13.8935401,10.6452252 10.5610885,13.9451391 10.5610885,0.342710537 C10.5610885,13.9451391 7.22863691,10.6452252 20.9651878,10.6452252 C7.22863691,10.6452252 10.5610885,7.3453114 10.5610885,20.9477399 L10.5610885,20.9477399 Z" id="Shape" style="mix-blend-mode: lighten;"></path>
                </g>
            </g>
        </g>
    </g>
</svg>