<?xml version="1.0" encoding="UTF-8" standalone="no"?>
<svg width="120px" height="25px" viewBox="0 0 120 25" version="1.1" xmlns="http://www.w3.org/2000/svg" xmlns:xlink="http://www.w3.org/1999/xlink">
    <!-- Generator: Sketch 3.6.1 (26313) - http://www.bohemiancoding.com/sketch -->
    <title>point</title>
    <desc>Created with Sketch.</desc>
    <defs></defs>
    <g id="icons" stroke="none" stroke-width="1" fill="none" fill-rule="evenodd">
        <g id="point">
            <path d="M96.1644444,0.680952381 L0.623333333,0.680952381 L6.6,12.7771429 L0.623333333,24.8733333 L120.046667,24.8733333 L120.046667,7.46571429 L107.824444,0.680952381 L96.2133333,0.680952381 L96.1644444,0.680952381 Z" id="Shape" fill="#D2B7EA"></path>
            <path d="M120.046667,7.42857143 L107.824444,0.643809524 L107.824444,7.42857143 L120.046667,7.42857143 L120.046667,7.42857143 Z" id="Shape" fill="#9172C1"></path>
            <path d="M21.218,8.774 C20.448,9.04 19.566,9.222 18.362,9.376 L18.362,8.032 C18.362,7.388 18.376,7.122 18.432,6.73 L17.396,6.73 C17.452,7.15 17.466,7.5 17.466,8.06 L17.466,9.446 C17.046,9.474 16.5,9.488 16.122,9.488 C15.492,9.488 15.1,9.46 14.694,9.39 L14.694,10.314 L14.946,10.314 L15.268,10.314 C15.422,10.328 15.8,10.328 16.01,10.328 C16.416,10.328 16.654,10.328 16.906,10.314 C17.34,10.286 17.34,10.286 17.466,10.272 L17.466,12.918 C16.584,13.296 16.01,13.632 15.492,14.066 C14.736,14.71 14.386,15.312 14.386,15.928 C14.386,16.432 14.596,16.866 15.03,17.244 C15.646,17.79 16.556,18.14 17.34,18.14 C18.026,18.14 18.362,17.776 18.362,17.02 L18.362,13.52 C19.538,13.142 20.434,12.974 21.33,12.974 C23.164,12.974 24.326,13.828 24.326,15.2 C24.326,16.348 23.542,17.174 22.45,17.174 C21.428,17.174 21.008,16.572 21.008,15.116 C21.008,14.948 21.008,14.822 21.036,14.57 C20.686,14.766 20.546,14.822 20.112,14.934 C20.098,15.634 20.154,16.054 20.28,16.516 C20.546,17.524 21.33,18.098 22.436,18.098 C24.046,18.098 25.292,16.838 25.292,15.2 C25.292,14.164 24.774,13.268 23.85,12.722 C23.206,12.33 22.366,12.134 21.372,12.134 C20.434,12.134 19.58,12.274 18.362,12.638 L18.362,10.216 C19.02,10.146 19.692,10.034 20.84,9.796 C21.036,9.754 21.092,9.74 21.26,9.712 L21.218,8.774 Z M17.466,16.502 C17.466,17.104 17.424,17.188 17.144,17.188 C16.78,17.188 16.276,17.02 15.898,16.782 C15.492,16.516 15.296,16.236 15.296,15.942 C15.296,15.27 16.08,14.514 17.466,13.842 L17.466,16.502 Z M25.88,10.58 C25.04,9.502 24.34,8.83 23.052,7.92 L22.324,8.466 C23.416,9.208 24.41,10.174 25.152,11.21 L25.88,10.58 Z M39.082,10.3 C39.04,12.764 39.04,12.764 39.012,13.352 C38.956,14.514 38.844,15.76 38.732,16.558 C38.564,17.692 38.424,17.902 37.864,17.902 C37.43,17.902 36.926,17.832 36.38,17.692 C36.478,18.042 36.52,18.266 36.534,18.63 C37.052,18.714 37.444,18.742 37.794,18.742 C38.774,18.742 39.18,18.476 39.376,17.678 C39.656,16.586 39.824,14.584 39.922,11.406 C39.978,9.768 39.978,9.726 40.02,9.446 C39.754,9.488 39.432,9.502 38.802,9.502 L37.248,9.502 C37.248,9.362 37.248,9.362 37.262,8.634 C37.276,7.416 37.276,7.416 37.276,7.304 C37.29,7.01 37.304,6.8 37.346,6.534 L36.296,6.534 C36.38,6.926 36.394,7.108 36.394,8.102 C36.394,8.606 36.394,8.956 36.366,9.502 L36.24,9.502 C35.638,9.502 35.302,9.488 34.938,9.432 L34.938,10.37 C35.232,10.314 35.484,10.3 36.24,10.3 L36.338,10.3 C36.24,12.456 36.086,13.576 35.736,14.85 C35.372,16.138 34.812,17.216 34.056,18.084 L34.056,17.3 C33.832,17.342 33.608,17.356 32.908,17.356 L32.236,17.356 L32.236,16.04 L33.034,16.04 C33.552,16.04 33.874,16.054 34.168,16.096 L34.168,15.34 C33.93,15.382 33.65,15.396 33.034,15.396 L32.236,15.396 L32.236,14.206 L33.034,14.206 C33.552,14.206 33.902,14.22 34.168,14.262 L34.168,13.506 C33.93,13.548 33.636,13.562 33.034,13.562 L32.236,13.562 L32.236,12.428 L33.314,12.428 C33.818,12.428 34.14,12.442 34.462,12.484 L34.462,11.714 C34.21,11.756 33.986,11.77 33.314,11.77 L32.39,11.77 C32.642,11.392 32.768,11.168 32.992,10.748 L32.222,10.496 C32.054,10.958 31.844,11.392 31.62,11.77 L29.828,11.77 C30.29,11.154 30.444,10.902 30.78,10.286 L33.44,10.286 C33.874,10.286 34.238,10.314 34.602,10.37 L34.602,9.502 C34.308,9.544 34.028,9.558 33.454,9.558 L31.144,9.558 C31.34,9.138 31.424,8.928 31.69,8.172 L33.006,8.172 C33.552,8.172 33.888,8.186 34.28,8.242 L34.28,7.36 C33.93,7.43 33.608,7.444 32.978,7.444 L29.968,7.444 C30.094,7.22 30.164,7.108 30.29,6.856 C30.388,6.66 30.43,6.59 30.5,6.478 L29.646,6.212 C29.548,6.576 29.38,6.926 29.1,7.402 C28.736,8.004 28.442,8.368 27.854,8.9 C28.12,9.04 28.372,9.236 28.512,9.376 C28.988,8.872 29.156,8.662 29.506,8.172 L30.85,8.172 C30.598,8.886 30.528,9.068 30.304,9.558 L28.974,9.558 C28.442,9.558 28.134,9.544 27.826,9.502 L27.826,10.384 C28.134,10.314 28.47,10.286 29.002,10.286 L29.926,10.286 C29.24,11.462 28.47,12.386 27.378,13.324 C27.616,13.534 27.728,13.688 27.868,14.024 C28.302,13.632 28.54,13.366 28.974,12.834 C28.946,13.156 28.932,13.45 28.932,13.968 L28.932,17.44 C28.932,18.07 28.904,18.448 28.834,18.868 L29.716,18.868 L29.716,18.042 L32.866,18.042 C33.454,18.042 33.762,18.056 34.056,18.084 C33.93,18.21 33.846,18.294 33.65,18.49 C33.944,18.672 34.07,18.784 34.336,19.092 C35.12,18.196 35.498,17.664 35.904,16.824 C36.478,15.662 36.828,14.36 37.038,12.638 C37.108,12.036 37.108,12.036 37.22,10.3 L39.082,10.3 Z M29.716,13.562 L29.716,12.428 L31.494,12.428 L31.494,13.562 L29.716,13.562 Z M29.716,14.206 L31.494,14.206 L31.494,15.396 L29.716,15.396 L29.716,14.206 Z M29.716,16.04 L31.494,16.04 L31.494,17.356 L29.716,17.356 L29.716,16.04 Z M44.108,7.654 C44.192,7.878 44.206,7.934 44.29,8.396 C44.416,9.096 44.584,9.922 44.682,10.37 C44.038,10.846 43.646,11.252 43.282,11.798 C42.764,12.596 42.47,13.562 42.47,14.472 C42.47,16.124 43.268,17.216 44.486,17.216 C45.298,17.216 46.082,16.712 46.978,15.62 C48.07,14.304 49.064,12.302 49.694,10.132 C51.626,10.538 52.648,11.658 52.648,13.366 C52.648,14.094 52.438,14.766 52.032,15.354 C51.612,15.97 50.912,16.474 49.932,16.88 C49.19,17.188 48.644,17.328 47.846,17.398 C48.21,17.86 48.28,17.972 48.392,18.336 C48.994,18.196 49.064,18.182 49.274,18.126 C50.38,17.832 51.388,17.342 52.102,16.74 C53.054,15.956 53.628,14.682 53.628,13.38 C53.628,11.266 52.242,9.74 49.918,9.306 C49.988,9.04 50.016,8.886 50.086,8.648 C50.38,7.402 50.38,7.402 50.464,7.178 L49.414,6.954 C49.386,7.36 49.218,8.284 48.98,9.208 C48.784,9.194 48.616,9.194 48.518,9.194 C47.468,9.194 46.502,9.418 45.522,9.894 C45.34,9.082 45.158,7.906 45.144,7.458 L44.108,7.654 Z M44.92,11.308 C45.228,12.596 45.676,13.898 46.236,15.074 C45.606,15.844 45.004,16.264 44.514,16.264 C43.828,16.264 43.38,15.536 43.38,14.43 C43.38,13.828 43.59,13.072 43.94,12.47 C44.192,12.022 44.458,11.714 44.92,11.308 L44.92,11.308 Z M46.866,14.304 C46.838,14.192 46.824,14.164 46.754,13.982 C46.264,12.792 45.97,11.868 45.704,10.734 C46.516,10.258 47.412,10.02 48.406,10.02 C48.476,10.02 48.602,10.034 48.756,10.034 C48.322,11.532 47.706,12.96 47.048,13.996 C46.95,14.15 46.95,14.164 46.88,14.304 L46.866,14.304 Z M61.398,9.278 L57.982,9.278 C57.072,9.278 56.806,9.264 56.358,9.194 L56.358,10.258 C56.792,10.202 57.072,10.188 57.968,10.188 L61.398,10.188 L61.398,17.174 C61.398,18.028 61.37,18.322 61.314,18.644 L62.462,18.644 C62.406,18.322 62.392,18.014 62.392,17.16 L62.392,10.188 L65.948,10.188 C66.844,10.188 67.124,10.202 67.558,10.258 L67.558,9.194 C67.11,9.264 66.83,9.278 65.92,9.278 L62.392,9.278 L62.392,8.368 C62.392,7.5 62.406,7.248 62.462,6.912 L61.314,6.912 C61.384,7.234 61.398,7.486 61.398,8.34 L61.398,9.278 Z M58.374,11.476 C58.346,11.938 58.178,12.596 57.884,13.38 C57.282,14.976 56.652,16.026 55.826,16.824 C56.26,17.034 56.428,17.132 56.75,17.426 C57.842,16.152 58.696,14.458 59.2,12.596 L59.27,12.288 L59.354,12.008 C59.382,11.91 59.382,11.91 59.438,11.77 L58.374,11.476 Z M64.352,11.756 C64.45,11.98 64.576,12.288 64.702,12.666 C65.416,14.71 66.158,16.194 67.138,17.482 C67.474,17.146 67.628,17.034 68.02,16.824 C67.152,15.83 66.508,14.71 65.85,13.072 C65.528,12.232 65.402,11.84 65.332,11.49 L64.352,11.756 Z M66.872,5.764 C65.99,5.764 65.276,6.478 65.276,7.346 C65.276,8.228 65.99,8.942 66.872,8.942 C67.74,8.942 68.454,8.228 68.454,7.346 C68.454,6.464 67.754,5.764 66.872,5.764 L66.872,5.764 Z M66.872,6.352 C67.418,6.352 67.866,6.8 67.866,7.346 C67.866,7.906 67.418,8.354 66.872,8.354 C66.312,8.354 65.864,7.906 65.864,7.346 C65.864,6.8 66.312,6.352 66.872,6.352 L66.872,6.352 Z M79.962,6.884 C79.57,7.542 78.59,8.522 77.288,9.53 C75.076,11.266 72.654,12.47 70.022,13.156 C70.302,13.506 70.372,13.646 70.568,14.094 C73.13,13.226 74.152,12.764 75.972,11.644 L75.972,16.964 C75.972,17.734 75.958,18.056 75.888,18.42 L77.106,18.42 C77.05,18.042 77.036,17.734 77.036,16.936 L77.036,10.972 C78.24,10.104 79.43,9.082 80.312,8.158 C80.662,7.78 80.676,7.752 80.928,7.57 L79.962,6.884 Z M85.184,8.858 C86.402,9.6 87.508,10.51 88.516,11.602 L89.244,10.734 C88.236,9.74 87.368,9.054 85.87,8.102 L85.184,8.858 Z M85.282,17.958 C85.632,17.846 85.744,17.818 86.122,17.734 C88.46,17.202 89.902,16.628 91.344,15.648 C93.192,14.374 94.494,12.736 95.614,10.3 C95.222,10.034 95.082,9.908 94.76,9.474 C93.626,12.442 91.75,14.5 89.048,15.704 C87.746,16.306 86.066,16.74 84.974,16.782 L85.282,17.958 Z M102.348,18.434 C102.292,18.042 102.278,17.734 102.278,16.95 L102.278,12.736 C102.278,12.386 102.264,12.19 102.222,11.91 L102.25,11.896 C102.376,11.994 102.474,12.05 102.684,12.134 C104.658,12.946 106.59,13.982 107.906,14.906 L108.508,13.87 C106.058,12.456 104.434,11.686 102.278,10.916 L102.278,8.298 C102.278,7.5 102.292,7.206 102.348,6.842 L101.144,6.842 C101.2,7.192 101.228,7.528 101.228,8.27 L101.228,16.964 C101.228,17.72 101.2,18.056 101.144,18.434 L102.348,18.434 Z" id="お勧めポイント" fill="#000000"></path>
        </g>
    </g>
</svg>