<?xml version="1.0" encoding="UTF-8" standalone="no"?>
<svg width="114px" height="62px" viewBox="0 0 114 62" version="1.1" xmlns="http://www.w3.org/2000/svg" xmlns:xlink="http://www.w3.org/1999/xlink">
    <!-- Generator: Sketch 3.6.1 (26313) - http://www.bohemiancoding.com/sketch -->
    <title>ribon</title>
    <desc>Created with Sketch.</desc>
    <defs>
        <linearGradient x1="0.192030725%" y1="50%" x2="99.8079693%" y2="50%" id="linearGradient-1">
            <stop stop-color="#F4D93D" offset="0%"></stop>
            <stop stop-color="#F9EC7A" offset="50%"></stop>
            <stop stop-color="#F4D93D" offset="100%"></stop>
        </linearGradient>
        <linearGradient x1="2.18494076e-14%" y1="50%" x2="99.5079951%" y2="50%" id="linearGradient-2">
            <stop stop-color="#E2BF13" offset="0%"></stop>
            <stop stop-color="#F4D93D" offset="50%"></stop>
            <stop stop-color="#E2BF13" offset="100%"></stop>
        </linearGradient>
        <linearGradient x1="7513%" y1="1297%" x2="9588%" y2="1297%" id="linearGradient-3">
            <stop stop-color="#F4D93D" offset="0%"></stop>
            <stop stop-color="#F9EC7A" offset="50%"></stop>
            <stop stop-color="#F4D93D" offset="100%"></stop>
        </linearGradient>
        <linearGradient x1="7513%" y1="793%" x2="8322%" y2="793%" id="linearGradient-4">
            <stop stop-color="#E2BF13" offset="0%"></stop>
            <stop stop-color="#F4D93D" offset="50%"></stop>
            <stop stop-color="#E2BF13" offset="100%"></stop>
        </linearGradient>
        <linearGradient x1="1387%" y1="1832%" x2="8317%" y2="1832%" id="linearGradient-5">
            <stop stop-color="#F4D93D" offset="0%"></stop>
            <stop stop-color="#F9EC7A" offset="50%"></stop>
            <stop stop-color="#F4D93D" offset="100%"></stop>
        </linearGradient>
    </defs>
    <g id="icons" stroke="none" stroke-width="1" fill="none" fill-rule="evenodd">
        <g id="ribon">
            <g id="shape" transform="translate(56.211115, 33.924435) rotate(-18.000000) translate(-56.211115, -33.924435) translate(-2.788885, 17.424435)">
                <g id="ribon" transform="translate(0.552802, -0.000000)">
                    <path d="M4.90069957,0.183320126 L25.7286728,4.52189645 L21.0362529,26.6303037 L0.208279732,22.2917274 C2.16855956,19.847459 7.4858186,15.1544638 9.44609843,12.6857528 C8.69874174,9.63041731 5.709315,3.23865557 4.90069957,0.183320126 L4.90069957,0.183320126 Z" id="Shape" fill="url(#linearGradient-1)"></path>
                    <path d="M15.7680009,7.24725567 C19.0305986,8.37997405 22.356429,9.32260638 25.7286728,10.0703856 L25.7286728,4.42412572 C22.3569189,5.1738352 19.0311995,6.11643608 15.7680009,7.24725567 L15.7680009,7.24725567 Z" id="Shape" fill="url(#linearGradient-2)"></path>
                    <path d="M111.601181,0.183320126 L90.7732078,4.52189645 L95.4043689,26.6303037 L116.232342,22.2917274 C114.272062,19.847459 108.954803,15.1544638 106.994523,12.6857528 C107.815391,9.63041731 110.792566,3.23865557 111.601181,0.183320126 L111.601181,0.183320126 Z" id="Shape" fill="url(#linearGradient-3)"></path>
                    <path d="M100.73388,7.24725567 C97.4873368,8.37818714 94.1779189,9.32080544 90.8222148,10.0703856 L90.8222148,4.42412572 C94.177424,5.17564433 97.4867309,6.11823103 100.73388,7.24725567 L100.73388,7.24725567 Z" id="Shape" fill="url(#linearGradient-4)"></path>
                    <path d="M100.672621,29.8322953 L100.672621,7.24725567 C92.182159,10.0703856 61.0504649,10.0703856 58.2203109,10.0703856 C55.3901569,10.0703856 24.2584629,10.0703856 15.7680009,7.24725567 L15.7680009,29.8322953 C24.2584629,32.6554252 55.3901569,32.6554252 58.2203109,32.6554252 C61.0504649,32.6554252 92.182159,32.6554252 100.672621,29.8322953 L100.672621,29.8322953 Z" id="Shape" fill="url(#linearGradient-5)"></path>
                </g>
                <path d="M30.0606158,19.3556165 L30.0606158,22.2676165 C29.0076158,22.6966165 28.3706158,22.9046165 27.8376158,22.9956165 L28.1236158,23.9056165 C28.2536158,23.8406165 28.3056158,23.8146165 28.4356158,23.7626165 C28.6826158,23.6586165 28.6826158,23.6586165 28.7606158,23.6326165 C28.9686158,23.5416165 29.2546158,23.4246165 29.5796158,23.2946165 C29.9306158,23.1516165 29.9306158,23.1516165 30.0606158,23.0996165 L30.0606158,26.3236165 C30.0606158,26.8696165 30.0346158,27.3376165 29.9696158,27.6886165 L30.9446158,27.6886165 C30.8796158,27.2466165 30.8536158,26.8046165 30.8536158,26.3236165 L30.8536158,22.7356165 C31.4776158,22.4366165 31.5426158,22.3976165 32.0626158,22.1116165 L32.0626158,22.9176165 C32.4526158,22.8656165 32.8036158,22.8396165 33.3236158,22.8396165 L37.1456158,22.8396165 L37.1456158,26.3626165 C37.1456158,26.6616165 37.0546158,26.7136165 36.5736158,26.7136165 C36.2096158,26.7136165 35.6636158,26.6486165 35.0786158,26.5446165 C35.1956158,26.8566165 35.2476158,27.0516165 35.2736158,27.4286165 C35.7676158,27.4546165 36.2356158,27.4806165 36.5996158,27.4806165 C37.6396158,27.4806165 37.9516158,27.2596165 37.9516158,26.5316165 L37.9516158,22.8396165 L38.2896158,22.8396165 C38.7966158,22.8396165 39.1736158,22.8656165 39.5506158,22.9176165 L39.5506158,22.0336165 C39.2126158,22.0856165 38.8616158,22.1116165 38.2896158,22.1116165 L37.9516158,22.1116165 L37.9516158,20.6036165 L38.2766158,20.6036165 C38.7836158,20.6036165 39.2126158,20.6296165 39.5636158,20.6816165 L39.5636158,19.7976165 C39.1996158,19.8496165 38.8226158,19.8756165 38.2376158,19.8756165 L36.0016158,19.8756165 L36.0016158,18.1466165 L37.7956158,18.1466165 C38.2766158,18.1466165 38.6796158,18.1726165 39.0306158,18.2116165 L39.0306158,17.3536165 C38.7056158,17.4056165 38.3286158,17.4316165 37.7956158,17.4316165 L36.0016158,17.4316165 L36.0016158,16.8986165 C36.0016158,16.4696165 36.0276158,16.1836165 36.0796158,15.8456165 L35.1306158,15.8456165 C35.1826158,16.1706165 35.2086158,16.5086165 35.2086158,16.8986165 L35.2086158,17.4316165 L33.7786158,17.4316165 C33.2456158,17.4316165 32.8686158,17.4056165 32.5436158,17.3536165 L32.5436158,18.2116165 C32.8816158,18.1726165 33.2976158,18.1466165 33.7786158,18.1466165 L35.2086158,18.1466165 L35.2086158,19.8756165 L33.3756158,19.8756165 C32.7776158,19.8756165 32.4006158,19.8496165 32.0496158,19.7976165 L32.0496158,20.6816165 C32.4136158,20.6296165 32.7906158,20.6036165 33.3756158,20.6036165 L37.1456158,20.6036165 L37.1456158,22.1116165 L33.3756158,22.1116165 C32.8556158,22.1116165 32.4916158,22.0986165 32.1796158,22.0466165 L32.2316158,22.0206165 L32.2186158,21.2406165 C31.6076158,21.5656165 31.3866158,21.6696165 30.8536158,21.9166165 L30.8536158,19.3556165 L31.1656158,19.3556165 C31.5946158,19.3556165 31.9326158,19.3816165 32.2706158,19.4206165 L32.2706158,18.5496165 C31.9586158,18.6016165 31.6336158,18.6276165 31.1396158,18.6276165 L30.8536158,18.6276165 L30.8536158,16.9116165 C30.8536158,16.4696165 30.8796158,16.1706165 30.9446158,15.8326165 L29.9696158,15.8326165 C30.0346158,16.1836165 30.0606158,16.4826165 30.0606158,16.9116165 L30.0606158,18.6276165 L29.1376158,18.6276165 C29.2156158,18.0946165 29.2676158,17.7306165 29.2936158,17.4056165 C29.3196158,17.1846165 29.3196158,17.1456165 29.3456158,16.9896165 L28.5136158,16.8596165 C28.5266158,17.0156165 28.5266158,17.1066165 28.5266158,17.2106165 C28.5266158,17.6396165 28.4616158,18.2636165 28.3446158,18.8486165 C28.1886158,19.6936165 28.0326158,20.2266165 27.7076158,20.9546165 C27.9806158,21.0586165 28.1106158,21.1236165 28.4226158,21.3186165 C28.7216158,20.5516165 28.8516158,20.1226165 28.9946158,19.3556165 L30.0606158,19.3556165 Z M32.9466158,23.7626165 C33.6876158,24.4646165 34.1946158,25.0756165 34.7536158,25.9466165 L35.4426158,25.4396165 C34.8186158,24.5816165 34.3506158,24.0486165 33.5836158,23.3206165 L32.9466158,23.7626165 Z M47.2596158,21.0066165 L50.0286158,21.0066165 C50.6006158,21.0066165 50.8866158,21.0196165 51.1986158,21.0716165 L51.1986158,20.2916165 C50.8086158,20.3566165 50.5616158,20.3696165 50.0286158,20.3696165 L47.2596158,20.3696165 L47.2596158,19.3946165 L50.0286158,19.3946165 C50.6136158,19.3946165 50.8476158,19.4076165 51.1986158,19.4596165 L51.1986158,18.6796165 C50.8216158,18.7446165 50.5486158,18.7576165 50.0286158,18.7576165 L47.2596158,18.7576165 L47.2596158,17.7826165 L50.6786158,17.7826165 C51.2116158,17.7826165 51.4716158,17.7956165 51.8096158,17.8476165 L51.8096158,17.0416165 C51.4586158,17.0936165 51.1856158,17.1066165 50.6136158,17.1066165 L47.3246158,17.1066165 C47.5586158,16.8076165 47.7926158,16.4566165 48.1176158,15.8586165 L47.2726158,15.6636165 C47.1036158,16.1706165 46.9086158,16.5346165 46.4926158,17.1066165 L43.6846158,17.1066165 C43.9186158,16.8076165 43.9186158,16.8076165 44.5426158,15.8586165 L43.6456158,15.6376165 C43.5546158,15.9236165 43.3856158,16.2486165 43.1776158,16.5736165 C42.5016158,17.6266165 41.7216158,18.4066165 40.6556158,19.1476165 C40.8896158,19.3686165 41.0196158,19.5116165 41.1756158,19.7846165 C41.8256158,19.2906165 42.1506158,18.9786165 42.6186158,18.4456165 C42.5796158,18.8486165 42.5666158,19.2516165 42.5666158,19.7196165 L42.5666158,21.9036165 C42.5666158,22.2546165 42.5536158,22.5796165 42.5276158,22.7746165 C42.8006158,22.7486165 42.9436158,22.7486165 43.4246158,22.7486165 L46.2846158,22.7486165 L46.2846158,23.6976165 L42.3976158,23.6976165 C41.6696158,23.6976165 41.2926158,23.6716165 40.9676158,23.6196165 L40.9676158,24.4776165 C41.4096158,24.4256165 41.8126158,24.3996165 42.3976158,24.3996165 L45.6086158,24.3996165 C45.1406158,24.8416165 44.6336158,25.1926165 43.9446158,25.5566165 C42.9566158,26.0766165 42.0726158,26.3756165 40.7856158,26.6096165 C41.0196158,26.8696165 41.1496158,27.0516165 41.3056158,27.3896165 C42.2416158,27.1426165 43.0476158,26.8566165 43.7886158,26.4926165 C44.8156158,25.9986165 45.5436158,25.4786165 46.3236158,24.6596165 C46.3106158,24.8156165 46.3106158,24.8156165 46.3106158,25.0366165 C46.2976158,25.0756165 46.2976158,25.1666165 46.2976158,25.2966165 C46.2846158,25.4396165 46.2846158,25.5566165 46.2846158,25.6476165 L46.2846158,26.6746165 C46.2846158,27.1296165 46.2716158,27.3506165 46.2066158,27.6366165 L47.1686158,27.6366165 C47.1036158,27.3766165 47.0906158,27.2206165 47.0906158,26.6616165 L47.0906158,25.6476165 C47.0906158,25.2836165 47.0906158,25.1276165 47.0516158,24.6596165 C48.3516158,25.9726165 49.8336158,26.7786165 52.1216158,27.4546165 C52.2646158,27.1296165 52.3816158,26.9476165 52.6156158,26.6486165 C50.6266158,26.2326165 48.9366158,25.4526165 47.7276158,24.3996165 L51.0036158,24.3996165 C51.6016158,24.3996165 52.0046158,24.4256165 52.4596158,24.4776165 L52.4596158,23.6196165 C52.1216158,23.6846165 51.7446158,23.6976165 51.0036158,23.6976165 L47.0906158,23.6976165 L47.0906158,22.7486165 L50.6656158,22.7486165 C51.2246158,22.7486165 51.4976158,22.7616165 51.8486158,22.8136165 L51.8486158,22.0336165 C51.4976158,22.0856165 51.2376158,22.0986165 50.6526158,22.0986165 L47.2596158,22.0986165 L47.2596158,21.0066165 Z M46.4926158,21.0066165 L46.4926158,22.0986165 L43.3596158,22.0986165 L43.3596158,21.0066165 L46.4926158,21.0066165 Z M46.4926158,20.3696165 L43.3596158,20.3696165 L43.3596158,19.3946165 L46.4926158,19.3946165 L46.4926158,20.3696165 Z M46.4926158,18.7576165 L43.3596158,18.7576165 L43.3596158,17.7826165 L46.4926158,17.7826165 L46.4926158,18.7576165 Z M59.7006158,20.6686165 C59.1156158,20.6686165 58.6346158,21.1496165 58.6346158,21.7346165 C58.6346158,22.3196165 59.1156158,22.8006165 59.7006158,22.8006165 C60.2856158,22.8006165 60.7666158,22.3196165 60.7666158,21.7346165 C60.7666158,21.1496165 60.2856158,20.6686165 59.7006158,20.6686165 L59.7006158,20.6686165 Z M73.4416158,26.3496165 L73.4416158,23.0216165 L75.7296158,23.0216165 C76.3406158,23.0216165 76.7046158,23.0476165 77.0556158,23.0996165 L77.0556158,22.1506165 C76.7436158,22.2026165 76.3666158,22.2286165 75.7296158,22.2286165 L73.4416158,22.2286165 L73.4416158,20.7336165 C73.4416158,20.0966165 73.4676158,19.7326165 73.5326158,19.3296165 L72.4926158,19.3296165 C72.5576158,19.7456165 72.5836158,20.1226165 72.5836158,20.7466165 L72.5836158,26.3496165 L70.1786158,26.3496165 L70.1786158,23.0346165 C70.1786158,22.3976165 70.2046158,21.9946165 70.2696158,21.5916165 L69.2426158,21.5916165 C69.3076158,22.0076165 69.3336158,22.4366165 69.3336158,23.0346165 L69.3336158,26.3496165 L68.4106158,26.3496165 C67.7346158,26.3496165 67.3316158,26.3236165 66.9546158,26.2586165 L66.9546158,27.2336165 C67.3446158,27.1686165 67.7866158,27.1426165 68.4496158,27.1426165 L77.0166158,27.1426165 C77.6536158,27.1426165 78.1086158,27.1686165 78.4986158,27.2336165 L78.4986158,26.2586165 C78.0826158,26.3236165 77.6926158,26.3496165 77.0166158,26.3496165 L73.4416158,26.3496165 Z M72.2716158,16.0146165 C71.7256158,16.9376165 71.1276158,17.6526165 70.2046158,18.4846165 C69.1646158,19.4076165 67.9946158,20.2006165 66.7856158,20.7596165 C67.0846158,21.0846165 67.1626158,21.2016165 67.3316158,21.5266165 C68.6966158,20.8116165 69.7756158,20.0446165 70.8416158,19.0436165 C71.6216158,18.3026165 72.0636158,17.7956165 72.7396158,16.8336165 C73.3896158,17.7696165 73.9616158,18.3936165 74.8846158,19.1736165 C75.8596158,20.0056165 77.1336158,20.8376165 78.3036158,21.3966165 C78.4726158,21.0066165 78.5376158,20.9156165 78.8236158,20.5776165 C77.5886158,20.0446165 76.5356158,19.4206165 75.4566158,18.5496165 C74.3906158,17.6916165 73.7406158,16.9766165 73.1426158,16.0146165 L72.2716158,16.0146165 Z M86.0386158,18.6276165 L86.0386158,17.0416165 L90.0946158,17.0416165 C90.6016158,17.0416165 91.0566158,17.0676165 91.4596158,17.1196165 L91.4596158,16.2226165 C91.0436158,16.2746165 90.6536158,16.3006165 90.0946158,16.3006165 L81.3326158,16.3006165 C80.7606158,16.3006165 80.3446158,16.2746165 79.9676158,16.2226165 L79.9676158,17.1196165 C80.4226158,17.0676165 80.7996158,17.0416165 81.3326158,17.0416165 L85.2586158,17.0416165 L85.2586158,18.6276165 L83.5166158,18.6276165 C83.0616158,18.6276165 82.7756158,18.6146165 82.4376158,18.5756165 C82.4766158,18.8876165 82.4896158,19.1216165 82.4896158,19.4986165 L82.4896158,24.1266165 C82.4896158,24.5166165 82.4766158,24.6986165 82.4376158,25.0366165 C82.8016158,24.9976165 83.0746158,24.9846165 83.5556158,24.9846165 L87.8196158,24.9846165 C88.3006158,24.9846165 88.5736158,24.9976165 88.9376158,25.0366165 C88.8986158,24.6986165 88.8856158,24.5166165 88.8856158,24.1266165 L88.8856158,19.4986165 C88.8856158,19.1216165 88.8986158,18.8876165 88.9376158,18.5756165 C88.5996158,18.6146165 88.3266158,18.6276165 87.8586158,18.6276165 L86.0386158,18.6276165 Z M85.2586158,19.3296165 L85.2586158,21.3056165 L83.2436158,21.3056165 L83.2436158,19.3296165 L85.2586158,19.3296165 Z M86.0386158,19.3296165 L88.1316158,19.3296165 L88.1316158,21.3056165 L86.0386158,21.3056165 L86.0386158,19.3296165 Z M85.2586158,21.9946165 L85.2586158,24.2956165 L83.2436158,24.2956165 L83.2436158,21.9946165 L85.2586158,21.9946165 Z M86.0386158,21.9946165 L88.1316158,21.9946165 L88.1316158,24.2956165 L86.0386158,24.2956165 L86.0386158,21.9946165 Z M90.2376158,18.9266165 C90.2896158,19.2906165 90.3156158,19.6156165 90.3156158,20.1616165 L90.3156158,26.2066165 L81.1376158,26.2066165 L81.1376158,20.1746165 C81.1376158,19.5896165 81.1636158,19.2516165 81.2156158,18.9266165 L80.2406158,18.9266165 C80.2926158,19.3166165 80.3186158,19.7196165 80.3186158,20.2656165 L80.3186158,26.1156165 C80.3186158,26.8566165 80.2926158,27.2856165 80.2406158,27.6886165 L81.1506158,27.6886165 L81.1506158,26.9476165 L90.3026158,26.9476165 L90.3026158,27.6886165 L91.2126158,27.6886165 C91.1606158,27.2726165 91.1346158,26.8826165 91.1346158,26.1286165 L91.1346158,20.2656165 C91.1346158,19.7456165 91.1606158,19.3166165 91.2126158,18.9266165 L90.2376158,18.9266165 Z" id="text" fill="#000000"></path>
            </g>
        </g>
    </g>
</svg>