<?xml version="1.0" encoding="UTF-8" standalone="no"?>
<svg width="525px" height="139px" viewBox="0 0 525 139" version="1.1" xmlns="http://www.w3.org/2000/svg" xmlns:xlink="http://www.w3.org/1999/xlink">
    <!-- Generator: Sketch 42 (36781) - http://www.bohemiancoding.com/sketch -->
    <title>salonlogo</title>
    <desc>Created with Sketch.</desc>
    <defs></defs>
    <g id="Page-1" stroke="none" stroke-width="1" fill="none" fill-rule="evenodd">
        <g id="salonlogo">
            <g id="Group">
                <g transform="translate(0.000000, 71.000000)">
                    <ellipse id="Oval" stroke="#F06292" stroke-width="2.99991037" transform="translate(55.072220, 31.643190) rotate(-75.000671) translate(-55.072220, -31.643190) " cx="55.07222" cy="31.64319" rx="7.999761" ry="5.89982373"></ellipse>
                    <ellipse id="Oval" stroke="#F06292" stroke-width="2.99991037" transform="translate(84.281980, 31.657510) rotate(-75.000671) translate(-84.281980, -31.657510) " cx="84.28198" cy="31.65751" rx="7.999761" ry="5.89982373"></ellipse>
                    <path d="M66.8,31.7 L72.5,31.7 C72.5,31.7 77.3,5.8 77.7,3.8 C78.1,1.8 79.1,0.1 81.5,0.1 C83.9,0.1 87.4,1.89362415e-14 89.2,0.1 C91,0.2 92.9,1.2 93.7,2.8 C94.5,4.4 96.6,8.3 96.6,8.3 C96.6,8.3 97.2,9.6 98.4,10.8 C99.7,12.1 106,16 106.2,20.3 C106.5,24.6 106.3,22.4 106.2,26.1 C106.1,29.8 105.1,31.2 102.8,31.3 C100.5,31.4 96.1,31.3 96.1,31.3" id="Shape" stroke="#F06292" stroke-width="3"></path>
                    <path d="M0.8,9.8 C0.8,9.8 11.6,10.9 24.9,10.9 C31.8,10.9 38.1,10.8 42.5,10.5 C42.6,10.5 42.8,9.2 42.7,9 C38.3,8.8 32,8.6 25,8.6 C11.5,8.6 0.8,9.8 0.8,9.8 Z" id="Shape" fill="#FFB373" fill-rule="nonzero"></path>
                    <path d="M14.9,15.8 C14.9,15.8 21.9,16.9 30.5,16.9 C35,16.9 39,16.8 41.8,16.5 C41.9,16.5 42,15.2 41.9,15 C39.1,14.8 35,14.6 30.4,14.6 C21.8,14.7 14.9,15.8 14.9,15.8 Z" id="Shape" fill="#FFB373" fill-rule="nonzero"></path>
                    <path d="M43.9,29.9 C43.9,29.9 41.9,28.1 41.1,27.3 C40.3,26.5 40.1,25.7 40.2,24.3 C40.4,22.9 42.8,9.3 43.3,6.6 C43.8,3.9 45,3.8 46.7,3.8 L68.5,3.8 C71.1,3.8 71.6,5.3 71.2,7.4 C70.9,9.4 68.4,25.1 68.4,25.1" id="Shape" stroke="#F06292" stroke-width="3"></path>
                </g>
                <g transform="translate(21.000000, 0.000000)" fill-rule="nonzero" fill="#F06292">
                    <g id="Group-2">
                        <path d="M77.2,133.1 C59.5,133.1 43.4,126.5 31.1,115.6 C27.8,116.5 24.5,117.3 21,117.7 C33.6,130.5 51.2,138.4 70.5,138.4 C88.5,138.4 105,131.5 117.4,120.3 C106,128.4 92.1,133.1 77.2,133.1 Z" id="Shape"></path>
                        <path d="M12.2,66.5 C14.2,32.4 42.4,5.4 76.9,5.4 C95.7,5.4 112.6,13.4 124.5,26.2 C111.7,10.2 92.1,0 70,0 C34.5,0 5.2,26.4 0.7,60.7 C1.1,60.7 1.4,60.6 1.8,60.6 C6.3,60.6 10.1,63 12.2,66.5 Z" id="Shape"></path>
                    </g>
                    <polygon id="Shape" points="130 42.8177586 112.862094 42.8177586 112.862094 25.7800738 92.8177586 25.7800738 92.8177586 42.8177586 75.6798521 42.8177586 75.6798521 62.8620936 92.8177586 62.8620936 92.8177586 80 112.862094 80 112.862094 62.8620936 130 62.8620936"></polygon>
                </g>
            </g>
            <g id="Group" transform="translate(320.000000, 48.000000)" fill-rule="nonzero" fill="#F06292">
                <path d="M18.6746575,47.04 C18.6746575,55.44 18.8150685,56.56 19.6575342,58.24 C20.7808219,60.06 22.6061644,60.06 26.1164384,60.48 C26.6780822,60.62 26.8184932,60.76 26.8184932,61.6 C26.8184932,62.3 26.6780822,62.58 25.9760274,62.58 C22.0445205,62.44 17.8321918,62.3 13.9006849,62.3 C10.25,62.3 5.89726027,62.44 2.24657534,62.58 C1.54452055,62.58 1.40410959,62.3 1.40410959,61.6 C1.40410959,60.62 1.54452055,60.48 2.24657534,60.48 C5.33561644,60.2 7.1609589,60.06 8.00342466,58.24 C8.98630137,56.42 8.98630137,52.64 8.98630137,47.04 L8.98630137,16.66 C8.98630137,8.54 8.98630137,7.56 8.14383562,5.74 C7.30136986,4.06 4.7739726,3.92 1.26369863,3.64 C0.702054795,3.5 0.561643836,3.36 0.561643836,2.52 C0.561643836,1.54 0.702054795,1.4 1.26369863,1.4 C5.19520548,1.54 9.54794521,1.68 13.3390411,1.68 C16.5684932,1.68 21.9041096,1.4 27.239726,1.4 C43.9486301,1.4 50.2671233,8.26 50.2671233,17.08 C50.2671233,23.38 45.9143836,29.54 36.2260274,32.06 C39.8767123,38.64 43.9486301,45.64 48.3013699,52.92 C50.1267123,56 51.6712329,58.24 53.2157534,59.22 C54.619863,60.06 55.8835616,60.2 58.4109589,60.48 C58.9726027,60.62 59.1130137,60.62 59.1130137,61.6 C59.1130137,62.58 58.9726027,62.72 58.4109589,62.72 C54.9006849,62.58 52.2328767,62.44 49.4246575,62.44 C47.0376712,62.44 44.6506849,62.44 41.7020548,62.58 C41,60.48 39.8767123,58.1 38.6130137,56 C34.5410959,48.44 30.75,41.44 26.5376712,33.88 C25.6952055,34.02 24.7123288,34.02 23.7294521,34.02 C22.0445205,34.02 20.640411,34.02 18.5342466,33.88 L18.5342466,47.04 L18.6746575,47.04 Z M18.6746575,30.66 C20.5,30.94 22.6061644,30.94 24.1506849,30.94 C35.5239726,30.94 39.5958904,24.92 39.5958904,17.36 C39.5958904,8.82 35.2431507,4.06 25.5547945,4.06 C23.3082192,4.06 20.640411,3.92 19.5171233,5.6 C18.3938356,7.42 18.5342466,11.76 18.5342466,16.52 L18.5342466,30.66 L18.6746575,30.66 Z" id="Shape"></path>
                <path d="M70.7671233,43.26 C70.7671233,54.32 77.6472603,59.92 82.8424658,59.92 C88.3184932,59.92 91.4075342,58.1 94.4965753,53.9 C94.7773973,53.62 95.0582192,53.48 95.3390411,53.48 C95.619863,53.48 95.9006849,53.62 96.0410959,53.76 C96.3219178,54.04 96.7431507,54.32 96.7431507,54.6 C96.7431507,54.74 96.6027397,55.16 96.3219178,55.58 C92.390411,61.6 87.7568493,63.84 80.7363014,63.84 C69.0821918,63.84 61.2191781,55.3 61.2191781,43.68 C61.2191781,32.34 69.3630137,22.96 80.7363014,22.96 C91.8287671,22.96 96.8835616,32.76 97.1643836,38.64 C97.1643836,39.34 97.1643836,39.48 96.7431507,40.04 C96.3219178,40.6 96.0410959,40.46 95.4794521,40.46 C86.9143836,40.18 78.489726,40.18 70.9075342,40.32 C71.0479452,41.02 70.7671233,41.86 70.7671233,43.26 Z M87.3356164,36.96 C88.0376712,36.82 88.0376712,36.4 88.0376712,35.56 C87.7568493,30.8 85.7910959,25.34 80.8767123,25.34 C76.3835616,25.34 72.7328767,30.24 71.4691781,37.1 C77.5068493,37.38 81.4383562,37.38 87.3356164,36.96 Z" id="Shape"></path>
                <path d="M113.732877,45.08 C107.554795,42.28 103.90411,40.18 103.90411,33.04 C103.90411,28.28 107.835616,22.96 117.243151,22.96 C119.349315,22.96 121.736301,23.52 123.280822,23.8 C124.965753,24.08 126.650685,24.08 128.89726,23.94 C129.037671,26.88 129.318493,30.94 129.599315,33.74 C129.599315,34.3 129.458904,34.44 128.616438,34.44 C127.773973,34.58 127.633562,34.3 127.35274,33.88 C125.106164,29.26 121.59589,25.34 117.523973,25.34 C112.75,25.34 110.924658,27.86 110.924658,31.36 C110.924658,33.74 112.75,35.42 117.243151,37.38 L120.191781,38.64 C127.493151,41.86 131.705479,44.38 131.705479,51.8 C131.705479,57.54 127.35274,63.98 116.821918,63.98 C112.047945,63.98 108.256849,63 104.886986,61.6 C104.184932,58.94 103.342466,55.16 103.061644,52.5 C103.061644,51.94 103.202055,51.8 103.90411,51.8 C104.746575,51.66 104.886986,51.66 105.027397,52.36 C107.835616,57.82 112.469178,61.74 116.821918,61.74 C121.736301,61.74 124.123288,58.66 124.123288,54.32 C124.123288,50.68 121.315068,49.14 116.400685,46.9 L113.732877,45.08 Z" id="Shape"></path>
                <path d="M159.506849,69.58 C162.174658,68.6 164.421233,68.18 166.386986,68.18 C169.756849,68.18 172.84589,68.88 177.900685,70.7 C183.797945,72.8 189.695205,75.18 192.924658,75.18 C197.136986,75.18 198.962329,74.2 201.208904,71.68 C201.489726,71.4 201.630137,71.4 201.910959,71.4 C202.191781,71.4 202.472603,71.54 202.893836,71.96 C203.174658,72.24 203.455479,72.52 203.455479,72.94 C203.455479,73.22 203.315068,73.5 202.893836,73.92 C198.962329,78.96 194.75,82.74 189.554795,82.74 C184.359589,82.74 179.866438,80.64 173.547945,77.7 C166.527397,74.48 160.349315,71.96 157.260274,71.96 C154.311644,71.96 152.205479,73.78 149.818493,75.6 C149.537671,75.74 149.116438,76.02 148.835616,76.02 C148.273973,76.02 147.85274,75.74 147.291096,74.9 C147.010274,74.34 146.729452,73.78 146.729452,73.36 C146.729452,72.94 146.869863,72.66 147.291096,72.38 C149.256849,71.54 151.784247,70.42 153.328767,69.58 L164.842466,63.28 C149.537671,60.48 139.287671,48.02 139.287671,32.06 C139.287671,13.58 152.907534,4.26325641e-14 171.863014,4.26325641e-14 C190.818493,4.26325641e-14 204.578767,13.16 204.578767,31.92 C204.578767,50.4 190.958904,63.98 171.863014,63.98 C167.510274,63.98 165.965753,65.38 159.085616,68.88 L159.506849,69.58 Z M150.941781,31.78 C150.941781,49.42 159.226027,61.04 171.863014,61.04 C184.359589,61.04 192.784247,49.42 192.784247,32.06 C192.784247,14.28 184.219178,2.8 171.863014,2.8 C159.506849,2.8 150.941781,14.42 150.941781,31.78 Z" id="Shape"></path>
            </g>
            <path d="M209.45,77.25 L209.45,78.675 C218.975,79.875 219.2,79.95 219.2,80.775 C219.2,81.3 218.675,81.675 217.1,82.2 C216.05,92.325 214.625,96.675 210.95,101.25 C208.625,104.1 205.4,106.65 201.425,108.525 C199.7,109.35 198.275,109.95 195.05,111 L194.75,110.175 C205.7,102.675 209.225,95.475 209.225,80.4 C208.475,81 207.275,81.225 204.2,81.225 C201.95,81.225 201.5,81 201.5,79.875 C201.725,71.4 201.725,71.325 201.725,66.9 C201.725,61.575 201.65,57.975 201.425,54.075 C205.25,55.875 206.375,56.475 209.825,58.425 L221.15,58.425 C223.775,53.175 225.725,47.175 226.475,42 C228.875,42.75 230.675,43.275 231.8,43.65 C236.375,45 237.725,45.6 237.725,46.35 C237.725,47.025 237.125,47.25 234.125,47.625 C230.825,51.6 226.625,56.1 223.925,58.425 L229.325,58.425 C231.05,56.475 231.575,55.875 233.375,54.075 C236.075,55.95 236.825,56.475 239.3,58.275 C239.975,58.8 240.2,59.175 240.2,59.475 C240.2,60.15 239.6,60.6 237.575,61.575 C237.575,70.05 237.65,72.375 237.875,78.45 C237.8,79.95 236.6,80.4 232.55,80.4 C230.375,80.4 229.925,80.175 229.925,78.975 L229.925,77.25 L228.575,77.25 L228.575,100.2 C228.575,101.7 228.725,101.775 232.625,101.775 C234.275,101.775 235.25,101.325 235.85,100.275 C236.825,98.625 238.625,92.85 240.275,86.1 L241.175,86.175 L240.575,98.625 L240.575,99.075 C240.575,100.05 240.65,100.125 242.3,101.1 C243.65,101.925 244.1,102.675 244.1,104.025 C244.1,107.55 240.95,108.9 232.55,108.9 C225.425,108.9 223.775,108.75 222.5,108.075 C221.3,107.325 220.85,106.35 220.85,103.95 L220.85,77.25 L209.45,77.25 Z M209.45,60 L209.45,75.675 L229.925,75.675 L229.925,60 L209.45,60 Z M190.25,82.8 L183.875,82.8 C183.425,87.825 182.525,91.95 181.1,96.225 C179.15,102.075 177.125,105.825 172.775,111.3 L172.025,110.775 C174.575,103.725 175.475,99.075 176.225,89.925 C176.825,82.425 176.975,76.05 176.975,51.45 C176.975,48.375 176.9,46.2 176.6,42.3 C180.425,44.025 181.55,44.7 185.075,46.8 L189.875,46.8 C191.525,45 192.05,44.4 193.625,42.525 C196.175,44.4 196.925,45 199.175,46.8 C199.775,47.325 200,47.625 200,48 C200,48.525 199.475,48.975 197.6,50.025 L197.6,89.925 C197.6,94.725 197.6,94.725 197.75,101.475 C197.675,105 196.85,106.8 194.6,108.225 C193.025,109.2 190.475,109.95 188.675,109.95 C187.85,109.95 187.7,109.725 187.625,108.225 C187.475,106.425 186.95,105 186.05,104.25 C185.15,103.5 184.55,103.2 181.175,101.925 L181.25,100.95 C184.175,101.25 184.4,101.25 188.975,101.4 L189.2,101.4 C190.025,101.4 190.25,101.1 190.25,100.05 L190.25,82.8 Z M190.25,81.225 L190.25,65.25 L184.475,65.25 L184.475,66.975 C184.475,72.3 184.325,75.9 184.025,81.225 L190.25,81.225 Z M190.25,63.675 L190.25,48.375 L184.625,48.375 L184.625,51 C184.625,51.15 184.55,56.7 184.55,63.675 L190.25,63.675 Z M204.425,42.975 L204.95,42.375 C213.65,45.525 217.25,48.3 217.25,51.9 C217.25,54.6 214.85,57.525 212.6,57.525 C211.925,57.525 211.25,57.225 210.8,56.85 C210.275,56.325 210.275,56.25 209.225,52.5 C208.175,48.975 206.6,45.825 204.425,42.975 Z" id="脱毛" stroke="#F06292" fill="#F06292"></path>
            <g id="Group-3" transform="translate(246.000000, 54.000000)" stroke="#F06292" stroke-width="1.5" fill="#F06292">
                <path d="M38.6688656,14.6476615 C44.6396795,14.2235883 49.9967688,13.5071847 58.7199295,11.8299113 C60.1158397,12.218282 61.1026002,12.4117657 61.5292469,12.4641514 C62.4536481,12.5776536 63.1373606,12.2999788 63.2073484,11.7299738 C63.2860847,11.088718 62.8320726,10.6713483 58.1421075,7.13017569 C57.2165864,6.43793748 55.7659453,5.3195986 53.9236515,3.86387155 C49.1212874,6.52883194 46.2529705,7.55081835 38.8896062,9.32272896 C28.4883441,11.73418 22.0121471,12.7471233 9.55526783,13.6766545 L9.59250167,14.549124 C21.8569145,15.1871068 23.012136,15.1843005 30.6807882,15.0410204 L29.2022955,27.0823776 L14.0859428,26.745144 C13.1527931,26.7028924 10.0776615,26.4699633 9.29547584,26.373923 L7.73110459,26.1818424 L8.31319519,28.4953833 C9.92130882,28.3312108 12.4625721,28.2092898 13.831117,28.2326764 L29.0273259,28.5073903 L27.3826121,41.9025096 L10.6045349,41.5782163 C9.59152901,41.5984844 7.37843923,41.399076 6.31182247,41.2681119 C5.95628355,41.2244572 5.24520571,41.1371478 4.11622964,40.9262022 L4.60096702,43.4447641 C7.44415841,43.2152656 9.11463136,43.1310746 10.4831762,43.1544612 L27.198894,43.3987729 L25.4491985,57.6488998 C25.0117746,61.2114315 25.5664998,63.1599883 27.4087936,64.6157154 C29.2510874,66.0714425 31.9892971,66.6969516 41.9443869,67.9192829 C52.6816622,69.2376545 58.5474944,69.6685889 60.679608,69.351781 C63.3357215,68.8823378 64.9590922,67.418192 65.230295,65.2094223 C65.4052645,63.7844097 64.7455576,62.6908604 63.2599226,61.8575241 C61.9165033,61.0416496 61.667066,60.7217233 61.7895447,59.7242145 L63.445247,47.4153166 L62.8052769,47.3367381 C57.5044608,58.7641234 57.0176947,59.7892283 56.2464975,60.7794093 C55.2182345,62.0996508 53.8409412,62.1475148 45.8057616,61.1609188 C33.148576,59.6068119 33.148576,59.6068119 33.4460243,57.1842903 L35.1169835,43.5754191 L67.0289103,44.0944449 C67.3220899,44.058118 67.7038743,43.8880208 67.7388682,43.6030182 C67.7476167,43.5317676 67.5605387,43.2918229 67.4445686,43.0606091 C63.6440108,39.9179412 62.5314118,38.9857583 58.7844648,35.9943226 C55.9906156,38.761248 55.1658075,39.6001969 52.6651379,42.3307954 L35.3007016,42.0791558 L36.9454154,28.6840365 L64.5121388,29.3204617 C64.8053185,29.2841348 65.115995,29.1053066 65.1422405,28.8915547 C65.1684859,28.6778028 65.0437673,28.5178397 64.7855816,28.269164 C61.1272394,25.143958 59.934784,24.2742948 56.2414479,21.4340913 C53.6160597,24.0047267 52.8623594,24.8524065 50.290582,27.5742741 L37.120385,27.2590238 L38.6688656,14.6476615 Z" id="Path" transform="translate(35.927697, 36.657516) rotate(-6.000000) translate(-35.927697, -36.657516) "></path>
            </g>
        </g>
    </g>
</svg>