<?xml version="1.0" encoding="UTF-8" standalone="no"?>
<svg width="525px" height="139px" viewBox="0 0 525 139" version="1.1" xmlns="http://www.w3.org/2000/svg" xmlns:xlink="http://www.w3.org/1999/xlink">
    <!-- Generator: Sketch 42 (36781) - http://www.bohemiancoding.com/sketch -->
    <title>salonlogo</title>
    <desc>Created with Sketch.</desc>
    <defs></defs>
    <g id="Page-1" stroke="none" stroke-width="1" fill="none" fill-rule="evenodd">
        <g id="salonlogo">
            <g id="Group">
                <g transform="translate(0.000000, 71.000000)">
                    <ellipse id="Oval" stroke="#F06292" stroke-width="2.99991037" transform="translate(55.072220, 31.643190) rotate(-75.000671) translate(-55.072220, -31.643190) " cx="55.07222" cy="31.64319" rx="7.999761" ry="5.89982373"></ellipse>
                    <ellipse id="Oval" stroke="#F06292" stroke-width="2.99991037" transform="translate(84.281980, 31.657510) rotate(-75.000671) translate(-84.281980, -31.657510) " cx="84.28198" cy="31.65751" rx="7.999761" ry="5.89982373"></ellipse>
                    <path d="M66.8,31.7 L72.5,31.7 C72.5,31.7 77.3,5.8 77.7,3.8 C78.1,1.8 79.1,0.1 81.5,0.1 C83.9,0.1 87.4,1.89362415e-14 89.2,0.1 C91,0.2 92.9,1.2 93.7,2.8 C94.5,4.4 96.6,8.3 96.6,8.3 C96.6,8.3 97.2,9.6 98.4,10.8 C99.7,12.1 106,16 106.2,20.3 C106.5,24.6 106.3,22.4 106.2,26.1 C106.1,29.8 105.1,31.2 102.8,31.3 C100.5,31.4 96.1,31.3 96.1,31.3" id="Shape" stroke="#F06292" stroke-width="3"></path>
                    <path d="M0.8,9.8 C0.8,9.8 11.6,10.9 24.9,10.9 C31.8,10.9 38.1,10.8 42.5,10.5 C42.6,10.5 42.8,9.2 42.7,9 C38.3,8.8 32,8.6 25,8.6 C11.5,8.6 0.8,9.8 0.8,9.8 Z" id="Shape" fill="#FFB373" fill-rule="nonzero"></path>
                    <path d="M14.9,15.8 C14.9,15.8 21.9,16.9 30.5,16.9 C35,16.9 39,16.8 41.8,16.5 C41.9,16.5 42,15.2 41.9,15 C39.1,14.8 35,14.6 30.4,14.6 C21.8,14.7 14.9,15.8 14.9,15.8 Z" id="Shape" fill="#FFB373" fill-rule="nonzero"></path>
                    <path d="M43.9,29.9 C43.9,29.9 41.9,28.1 41.1,27.3 C40.3,26.5 40.1,25.7 40.2,24.3 C40.4,22.9 42.8,9.3 43.3,6.6 C43.8,3.9 45,3.8 46.7,3.8 L68.5,3.8 C71.1,3.8 71.6,5.3 71.2,7.4 C70.9,9.4 68.4,25.1 68.4,25.1" id="Shape" stroke="#F06292" stroke-width="3"></path>
                </g>
                <g transform="translate(21.000000, 0.000000)" fill-rule="nonzero" fill="#F06292">
                    <g id="Group-2">
                        <path d="M77.2,133.1 C59.5,133.1 43.4,126.5 31.1,115.6 C27.8,116.5 24.5,117.3 21,117.7 C33.6,130.5 51.2,138.4 70.5,138.4 C88.5,138.4 105,131.5 117.4,120.3 C106,128.4 92.1,133.1 77.2,133.1 Z" id="Shape"></path>
                        <path d="M12.2,66.5 C14.2,32.4 42.4,5.4 76.9,5.4 C95.7,5.4 112.6,13.4 124.5,26.2 C111.7,10.2 92.1,0 70,0 C34.5,0 5.2,26.4 0.7,60.7 C1.1,60.7 1.4,60.6 1.8,60.6 C6.3,60.6 10.1,63 12.2,66.5 Z" id="Shape"></path>
                    </g>
                    <polygon id="Shape" points="130 42.8177586 112.862094 42.8177586 112.862094 25.7800738 92.8177586 25.7800738 92.8177586 42.8177586 75.6798521 42.8177586 75.6798521 62.8620936 92.8177586 62.8620936 92.8177586 80 112.862094 80 112.862094 62.8620936 130 62.8620936"></polygon>
                </g>
            </g>
            <g id="Group" transform="translate(320.000000, 49.000000)" fill-rule="nonzero" fill="#F06292">
                <path d="M18.6746575,47.04 C18.6746575,55.44 18.8150685,56.56 19.6575342,58.24 C20.7808219,60.06 22.6061644,60.06 26.1164384,60.48 C26.6780822,60.62 26.8184932,60.76 26.8184932,61.6 C26.8184932,62.3 26.6780822,62.58 25.9760274,62.58 C22.0445205,62.44 17.8321918,62.3 13.9006849,62.3 C10.25,62.3 5.89726027,62.44 2.24657534,62.58 C1.54452055,62.58 1.40410959,62.3 1.40410959,61.6 C1.40410959,60.62 1.54452055,60.48 2.24657534,60.48 C5.33561644,60.2 7.1609589,60.06 8.00342466,58.24 C8.98630137,56.42 8.98630137,52.64 8.98630137,47.04 L8.98630137,16.66 C8.98630137,8.54 8.98630137,7.56 8.14383562,5.74 C7.30136986,4.06 4.7739726,3.92 1.26369863,3.64 C0.702054795,3.5 0.561643836,3.36 0.561643836,2.52 C0.561643836,1.54 0.702054795,1.4 1.26369863,1.4 C5.19520548,1.54 9.54794521,1.68 13.3390411,1.68 C16.5684932,1.68 21.9041096,1.4 27.239726,1.4 C43.9486301,1.4 50.2671233,8.26 50.2671233,17.08 C50.2671233,23.38 45.9143836,29.54 36.2260274,32.06 C39.8767123,38.64 43.9486301,45.64 48.3013699,52.92 C50.1267123,56 51.6712329,58.24 53.2157534,59.22 C54.619863,60.06 55.8835616,60.2 58.4109589,60.48 C58.9726027,60.62 59.1130137,60.62 59.1130137,61.6 C59.1130137,62.58 58.9726027,62.72 58.4109589,62.72 C54.9006849,62.58 52.2328767,62.44 49.4246575,62.44 C47.0376712,62.44 44.6506849,62.44 41.7020548,62.58 C41,60.48 39.8767123,58.1 38.6130137,56 C34.5410959,48.44 30.75,41.44 26.5376712,33.88 C25.6952055,34.02 24.7123288,34.02 23.7294521,34.02 C22.0445205,34.02 20.640411,34.02 18.5342466,33.88 L18.5342466,47.04 L18.6746575,47.04 Z M18.6746575,30.66 C20.5,30.94 22.6061644,30.94 24.1506849,30.94 C35.5239726,30.94 39.5958904,24.92 39.5958904,17.36 C39.5958904,8.82 35.2431507,4.06 25.5547945,4.06 C23.3082192,4.06 20.640411,3.92 19.5171233,5.6 C18.3938356,7.42 18.5342466,11.76 18.5342466,16.52 L18.5342466,30.66 L18.6746575,30.66 Z" id="Shape"></path>
                <path d="M70.7671233,43.26 C70.7671233,54.32 77.6472603,59.92 82.8424658,59.92 C88.3184932,59.92 91.4075342,58.1 94.4965753,53.9 C94.7773973,53.62 95.0582192,53.48 95.3390411,53.48 C95.619863,53.48 95.9006849,53.62 96.0410959,53.76 C96.3219178,54.04 96.7431507,54.32 96.7431507,54.6 C96.7431507,54.74 96.6027397,55.16 96.3219178,55.58 C92.390411,61.6 87.7568493,63.84 80.7363014,63.84 C69.0821918,63.84 61.2191781,55.3 61.2191781,43.68 C61.2191781,32.34 69.3630137,22.96 80.7363014,22.96 C91.8287671,22.96 96.8835616,32.76 97.1643836,38.64 C97.1643836,39.34 97.1643836,39.48 96.7431507,40.04 C96.3219178,40.6 96.0410959,40.46 95.4794521,40.46 C86.9143836,40.18 78.489726,40.18 70.9075342,40.32 C71.0479452,41.02 70.7671233,41.86 70.7671233,43.26 Z M87.3356164,36.96 C88.0376712,36.82 88.0376712,36.4 88.0376712,35.56 C87.7568493,30.8 85.7910959,25.34 80.8767123,25.34 C76.3835616,25.34 72.7328767,30.24 71.4691781,37.1 C77.5068493,37.38 81.4383562,37.38 87.3356164,36.96 Z" id="Shape"></path>
                <path d="M113.732877,45.08 C107.554795,42.28 103.90411,40.18 103.90411,33.04 C103.90411,28.28 107.835616,22.96 117.243151,22.96 C119.349315,22.96 121.736301,23.52 123.280822,23.8 C124.965753,24.08 126.650685,24.08 128.89726,23.94 C129.037671,26.88 129.318493,30.94 129.599315,33.74 C129.599315,34.3 129.458904,34.44 128.616438,34.44 C127.773973,34.58 127.633562,34.3 127.35274,33.88 C125.106164,29.26 121.59589,25.34 117.523973,25.34 C112.75,25.34 110.924658,27.86 110.924658,31.36 C110.924658,33.74 112.75,35.42 117.243151,37.38 L120.191781,38.64 C127.493151,41.86 131.705479,44.38 131.705479,51.8 C131.705479,57.54 127.35274,63.98 116.821918,63.98 C112.047945,63.98 108.256849,63 104.886986,61.6 C104.184932,58.94 103.342466,55.16 103.061644,52.5 C103.061644,51.94 103.202055,51.8 103.90411,51.8 C104.746575,51.66 104.886986,51.66 105.027397,52.36 C107.835616,57.82 112.469178,61.74 116.821918,61.74 C121.736301,61.74 124.123288,58.66 124.123288,54.32 C124.123288,50.68 121.315068,49.14 116.400685,46.9 L113.732877,45.08 Z" id="Shape"></path>
                <path d="M159.506849,69.58 C162.174658,68.6 164.421233,68.18 166.386986,68.18 C169.756849,68.18 172.84589,68.88 177.900685,70.7 C183.797945,72.8 189.695205,75.18 192.924658,75.18 C197.136986,75.18 198.962329,74.2 201.208904,71.68 C201.489726,71.4 201.630137,71.4 201.910959,71.4 C202.191781,71.4 202.472603,71.54 202.893836,71.96 C203.174658,72.24 203.455479,72.52 203.455479,72.94 C203.455479,73.22 203.315068,73.5 202.893836,73.92 C198.962329,78.96 194.75,82.74 189.554795,82.74 C184.359589,82.74 179.866438,80.64 173.547945,77.7 C166.527397,74.48 160.349315,71.96 157.260274,71.96 C154.311644,71.96 152.205479,73.78 149.818493,75.6 C149.537671,75.74 149.116438,76.02 148.835616,76.02 C148.273973,76.02 147.85274,75.74 147.291096,74.9 C147.010274,74.34 146.729452,73.78 146.729452,73.36 C146.729452,72.94 146.869863,72.66 147.291096,72.38 C149.256849,71.54 151.784247,70.42 153.328767,69.58 L164.842466,63.28 C149.537671,60.48 139.287671,48.02 139.287671,32.06 C139.287671,13.58 152.907534,4.26325641e-14 171.863014,4.26325641e-14 C190.818493,4.26325641e-14 204.578767,13.16 204.578767,31.92 C204.578767,50.4 190.958904,63.98 171.863014,63.98 C167.510274,63.98 165.965753,65.38 159.085616,68.88 L159.506849,69.58 Z M150.941781,31.78 C150.941781,49.42 159.226027,61.04 171.863014,61.04 C184.359589,61.04 192.784247,49.42 192.784247,32.06 C192.784247,14.28 184.219178,2.8 171.863014,2.8 C159.506849,2.8 150.941781,14.42 150.941781,31.78 Z" id="Shape"></path>
            </g>
            <path d="M209.45,82.25 L209.45,83.675 C218.975,84.875 219.2,84.95 219.2,85.775 C219.2,86.3 218.675,86.675 217.1,87.2 C216.05,97.325 214.625,101.675 210.95,106.25 C208.625,109.1 205.4,111.65 201.425,113.525 C199.7,114.35 198.275,114.95 195.05,116 L194.75,115.175 C205.7,107.675 209.225,100.475 209.225,85.4 C208.475,86 207.275,86.225 204.2,86.225 C201.95,86.225 201.5,86 201.5,84.875 C201.725,76.4 201.725,76.325 201.725,71.9 C201.725,66.575 201.65,62.975 201.425,59.075 C205.25,60.875 206.375,61.475 209.825,63.425 L221.15,63.425 C223.775,58.175 225.725,52.175 226.475,47 C228.875,47.75 230.675,48.275 231.8,48.65 C236.375,50 237.725,50.6 237.725,51.35 C237.725,52.025 237.125,52.25 234.125,52.625 C230.825,56.6 226.625,61.1 223.925,63.425 L229.325,63.425 C231.05,61.475 231.575,60.875 233.375,59.075 C236.075,60.95 236.825,61.475 239.3,63.275 C239.975,63.8 240.2,64.175 240.2,64.475 C240.2,65.15 239.6,65.6 237.575,66.575 C237.575,75.05 237.65,77.375 237.875,83.45 C237.8,84.95 236.6,85.4 232.55,85.4 C230.375,85.4 229.925,85.175 229.925,83.975 L229.925,82.25 L228.575,82.25 L228.575,105.2 C228.575,106.7 228.725,106.775 232.625,106.775 C234.275,106.775 235.25,106.325 235.85,105.275 C236.825,103.625 238.625,97.85 240.275,91.1 L241.175,91.175 L240.575,103.625 L240.575,104.075 C240.575,105.05 240.65,105.125 242.3,106.1 C243.65,106.925 244.1,107.675 244.1,109.025 C244.1,112.55 240.95,113.9 232.55,113.9 C225.425,113.9 223.775,113.75 222.5,113.075 C221.3,112.325 220.85,111.35 220.85,108.95 L220.85,82.25 L209.45,82.25 Z M209.45,65 L209.45,80.675 L229.925,80.675 L229.925,65 L209.45,65 Z M190.25,87.8 L183.875,87.8 C183.425,92.825 182.525,96.95 181.1,101.225 C179.15,107.075 177.125,110.825 172.775,116.3 L172.025,115.775 C174.575,108.725 175.475,104.075 176.225,94.925 C176.825,87.425 176.975,81.05 176.975,56.45 C176.975,53.375 176.9,51.2 176.6,47.3 C180.425,49.025 181.55,49.7 185.075,51.8 L189.875,51.8 C191.525,50 192.05,49.4 193.625,47.525 C196.175,49.4 196.925,50 199.175,51.8 C199.775,52.325 200,52.625 200,53 C200,53.525 199.475,53.975 197.6,55.025 L197.6,94.925 C197.6,99.725 197.6,99.725 197.75,106.475 C197.675,110 196.85,111.8 194.6,113.225 C193.025,114.2 190.475,114.95 188.675,114.95 C187.85,114.95 187.7,114.725 187.625,113.225 C187.475,111.425 186.95,110 186.05,109.25 C185.15,108.5 184.55,108.2 181.175,106.925 L181.25,105.95 C184.175,106.25 184.4,106.25 188.975,106.4 L189.2,106.4 C190.025,106.4 190.25,106.1 190.25,105.05 L190.25,87.8 Z M190.25,86.225 L190.25,70.25 L184.475,70.25 L184.475,71.975 C184.475,77.3 184.325,80.9 184.025,86.225 L190.25,86.225 Z M190.25,68.675 L190.25,53.375 L184.625,53.375 L184.625,56 C184.625,56.15 184.55,61.7 184.55,68.675 L190.25,68.675 Z M204.425,47.975 L204.95,47.375 C213.65,50.525 217.25,53.3 217.25,56.9 C217.25,59.6 214.85,62.525 212.6,62.525 C211.925,62.525 211.25,62.225 210.8,61.85 C210.275,61.325 210.275,61.25 209.225,57.5 C208.175,53.975 206.6,50.825 204.425,47.975 Z" id="脱毛" stroke="#F06292" fill="#F06292"></path>
            <g id="Group-3" transform="translate(250.000000, 61.000000)" stroke="#F06292">
                <path d="M34.6688656,11.6476615 C40.6396795,11.2235883 45.9967688,10.5071847 54.7199295,8.8299113 C56.1158397,9.21828197 57.1026002,9.41176574 57.5292469,9.46415136 C58.4536481,9.57765356 59.1373606,9.29997883 59.2073484,8.72997375 C59.2860847,8.08871804 58.8320726,7.6713483 54.1421075,4.13017569 C53.2165864,3.43793748 51.7659453,2.3195986 49.9236515,0.863871547 C45.1212874,3.52883194 42.2529705,4.55081835 34.8896062,6.32272896 C24.4883441,8.73417999 18.0121471,9.74712331 5.55526783,10.6766545 L5.59250167,11.549124 C17.8569145,12.1871068 19.012136,12.1843005 26.6807882,12.0410204 L25.2022955,24.0823776 L10.0859428,23.745144 C9.15279313,23.7028924 6.07766146,23.4699633 5.29547584,23.373923 L3.73110459,23.1818424 L4.31319519,25.4953833 C5.92130882,25.3312108 8.46257213,25.2092898 9.83111698,25.2326764 L25.0273259,25.5073903 L23.3826121,38.9025096 L6.60453494,38.5782163 C5.59152901,38.5984844 3.37843923,38.399076 2.31182247,38.2681119 C1.95628355,38.2244572 1.24520571,38.1371478 0.11622964,37.9262022 L0.600967016,40.4447641 C3.44415841,40.2152656 5.11463136,40.1310746 6.48317621,40.1544612 L23.198894,40.3987729 L21.4491985,54.6488998 C21.0117746,58.2114315 21.5664998,60.1599883 23.4087936,61.6157154 C25.2510874,63.0714425 27.9892971,63.6969516 37.9443869,64.9192829 C48.6816622,66.2376545 54.5474944,66.6685889 56.679608,66.351781 C59.3357215,65.8823378 60.9590922,64.418192 61.230295,62.2094223 C61.4052645,60.7844097 60.7455576,59.6908604 59.2599226,58.8575241 C57.9165033,58.0416496 57.667066,57.7217233 57.7895447,56.7242145 L59.445247,44.4153166 L58.8052769,44.3367381 C53.5044608,55.7641234 53.0176947,56.7892283 52.2464975,57.7794093 C51.2182345,59.0996508 49.8409412,59.1475148 41.8057616,58.1609188 C29.148576,56.6068119 29.148576,56.6068119 29.4460243,54.1842903 L31.1169835,40.5754191 L63.0289103,41.0944449 C63.3220899,41.058118 63.7038743,40.8880208 63.7388682,40.6030182 C63.7476167,40.5317676 63.5605387,40.2918229 63.4445686,40.0606091 C59.6440108,36.9179412 58.5314118,35.9857583 54.7844648,32.9943226 C51.9906156,35.761248 51.1658075,36.6001969 48.6651379,39.3307954 L31.3007016,39.0791558 L32.9454154,25.6840365 L60.5121388,26.3204617 C60.8053185,26.2841348 61.115995,26.1053066 61.1422405,25.8915547 C61.1684859,25.6778028 61.0437673,25.5178397 60.7855816,25.269164 C57.1272394,22.143958 55.934784,21.2742948 52.2414479,18.4340913 C49.6160597,21.0047267 48.8623594,21.8524065 46.290582,24.5742741 L33.120385,24.2590238 L34.6688656,11.6476615 Z" id="Path" fill="#FFFFFF"></path>
                <path d="M34.5243302,12.8248074 L34.6688656,11.6476615 C40.6396795,11.2235883 45.9967688,10.5071847 54.7199295,8.8299113 C56.1158397,9.21828197 57.1026002,9.41176574 57.5292469,9.46415136 C58.4536481,9.57765356 59.1373606,9.29997883 59.2073484,8.72997375 C59.2860847,8.08871804 58.8320726,7.6713483 54.1421075,4.13017569 C53.2165864,3.43793748 51.7659453,2.3195986 49.9236515,0.863871547 C45.1212874,3.52883194 42.2529705,4.55081835 34.8896062,6.32272896 C34.0233354,6.52356706 33.1842904,6.71470453 32.3667488,6.89690109 L34.5243302,12.8248074 Z M38.7349601,24.3934179 L46.290582,24.5742741 C48.8623594,21.8524065 49.6160597,21.0047267 52.2414479,18.4340913 C55.934784,21.2742948 57.1272394,22.143958 60.7855816,25.269164 C61.0437673,25.5178397 61.1684859,25.6778028 61.1422405,25.8915547 C61.115995,26.1053066 60.8053185,26.2841348 60.5121388,26.3204617 L39.2577486,25.8297676 L38.7349601,24.3934179 Z M44.1478945,39.265333 L48.6651379,39.3307954 C51.1658075,36.6001969 51.9906156,35.761248 54.7844648,32.9943226 C58.5314118,35.9857583 59.6440108,36.9179412 63.4445686,40.0606091 C63.5605387,40.2918229 63.7476167,40.5317676 63.7388682,40.6030182 C63.7038743,40.8880208 63.3220899,41.058118 63.0289103,41.0944449 L44.7051652,40.7964216 L44.1478945,39.265333 Z M30.5542881,45.1582056 L29.4460243,54.1842903 C29.2164584,56.0539542 29.1640679,56.480641 34.9707964,57.2924624 L37.737473,64.8938439 C27.9512053,63.6881998 25.2382585,63.0613054 23.4087936,61.6157154 C21.5664998,60.1599883 21.0117746,58.2114315 21.4491985,54.6488998 L23.198894,40.3987729 L6.48317621,40.1544612 C5.11463136,40.1310746 3.44415841,40.2152656 0.600967016,40.4447641 L0.11622964,37.9262022 C1.24520571,38.1371478 1.95628355,38.2244572 2.31182247,38.2681119 C3.37843923,38.399076 5.59152901,38.5984844 6.60453494,38.5782163 L23.3826121,38.9025096 L24.6173293,28.8465452 L30.5542881,45.1582056 Z M51.1806147,58.5875728 C51.6513939,58.4120459 51.9622787,58.1443329 52.2464975,57.7794093 C53.0176947,56.7892283 53.5044608,55.7641234 58.8052769,44.3367381 L59.445247,44.4153166 L57.7895447,56.7242145 C57.667066,57.7217233 57.9165033,58.0416496 59.2599226,58.8575241 C60.7455576,59.6908604 61.4052645,60.7844097 61.230295,62.2094223 C60.9590922,64.418192 59.3357215,65.8823378 56.679608,66.351781 C56.0914343,66.439177 55.2191207,66.469669 54.0387825,66.4403243 L51.1806147,58.5875728 Z M23.391211,25.477813 L9.83111698,25.2326764 C8.46257213,25.2092898 5.92130882,25.3312108 4.31319519,25.4953833 L3.73110459,23.1818424 L5.29547584,23.373923 C6.07766146,23.4699633 9.15279313,23.7028924 10.0859428,23.745144 L22.8643301,24.0302195 L23.391211,25.477813 Z M18.5224347,12.1009599 C15.6024721,12.0514704 12.2190486,11.8938305 5.59250167,11.549124 L5.55526783,10.6766545 C10.2337382,10.3275475 14.0686019,9.96667471 17.5846315,9.52436699 L18.5224347,12.1009599 Z" id="Combined-Shape" fill="#F06292"></path>
            </g>
        </g>
    </g>
</svg>