<?xml version="1.0" encoding="UTF-8" standalone="no"?>
<!DOCTYPE svg PUBLIC "-//W3C//DTD SVG 1.1//EN"
 "http://www.w3.org/Graphics/SVG/1.1/DTD/svg11.dtd">
<!-- Generated by graphviz version 2.38.0 (20140413.2041)
 -->
<!-- Title: controllers_diagram Pages: 1 -->
<svg width="544pt" height="506pt"
 viewBox="0.00 0.00 544.38 506.00" xmlns="http://www.w3.org/2000/svg" xmlns:xlink="http://www.w3.org/1999/xlink">
<g id="graph0" class="graph" transform="scale(1 1) rotate(0) translate(213.931 292.5)">
<title>controllers_diagram</title>
<polygon fill="none" stroke="none" points="-213.931,213.5 -213.931,-292.5 330.45,-292.5 330.45,213.5 -213.931,213.5"/>
<!-- _diagram_info -->
<g id="node1" class="node"><title>_diagram_info</title>
<text text-anchor="start" x="127.55" y="-179.1" font-family="Times,serif" font-size="13.00">Controllers diagram</text>
<text text-anchor="start" x="127.55" y="-166.1" font-family="Times,serif" font-size="13.00">Date: Jul 01 2016 &#45; 11:21</text>
<text text-anchor="start" x="127.55" y="-153.1" font-family="Times,serif" font-size="13.00">Migration version: 20160620110745</text>
<text text-anchor="start" x="127.55" y="-140.1" font-family="Times,serif" font-size="13.00">Generated by RailRoady 1.5.1</text>
<text text-anchor="start" x="127.55" y="-127.1" font-family="Times,serif" font-size="13.00">http://railroady.prestonlee.com</text>
</g>
<!-- ApplicationController -->
<g id="node2" class="node"><title>ApplicationController</title>
<path fill="none" stroke="black" d="M12.1792,209C12.1792,209 127.821,209 127.821,209 133.821,209 139.821,203 139.821,197 139.821,197 139.821,129 139.821,129 139.821,123 133.821,117 127.821,117 127.821,117 12.1792,117 12.1792,117 6.1792,117 0.179199,123 0.179199,129 0.179199,129 0.179199,197 0.179199,197 0.179199,203 6.1792,209 12.1792,209"/>
<text text-anchor="middle" x="70" y="132.2" font-family="Times,serif" font-size="14.00">ApplicationController</text>
<polyline fill="none" stroke="black" points="0.179199,139 139.821,139 "/>
<polyline fill="none" stroke="black" points="0.179199,163 139.821,163 "/>
<polyline fill="none" stroke="black" points="0.179199,187 139.821,187 "/>
<text text-anchor="start" x="8.1792" y="202.2" font-family="Times,serif" font-size="14.00">_layout</text>
</g>
<!-- ArticlesController -->
<g id="node3" class="node"><title>ArticlesController</title>
<path fill="none" stroke="black" d="M-197.931,209C-197.931,209 -104.069,209 -104.069,209 -98.0688,209 -92.0688,203 -92.0688,197 -92.0688,197 -92.0688,129 -92.0688,129 -92.0688,123 -98.0688,117 -104.069,117 -104.069,117 -197.931,117 -197.931,117 -203.931,117 -209.931,123 -209.931,129 -209.931,129 -209.931,197 -209.931,197 -209.931,203 -203.931,209 -197.931,209"/>
<text text-anchor="middle" x="-151" y="132.2" font-family="Times,serif" font-size="14.00">ArticlesController</text>
<polyline fill="none" stroke="black" points="-209.931,139 -92.0688,139 "/>
<polyline fill="none" stroke="black" points="-209.931,163 -92.0688,163 "/>
<polyline fill="none" stroke="black" points="-209.931,187 -92.0688,187 "/>
<text text-anchor="start" x="-201.931" y="202.2" font-family="Times,serif" font-size="14.00">_layout</text>
</g>
<!-- SearchController -->
<g id="node4" class="node"><title>SearchController</title>
<path fill="none" stroke="black" d="M177.183,209C177.183,209 264.817,209 264.817,209 270.817,209 276.817,203 276.817,197 276.817,197 276.817,131 276.817,131 276.817,125 270.817,119 264.817,119 264.817,119 177.183,119 177.183,119 171.183,119 165.183,125 165.183,131 165.183,131 165.183,197 165.183,197 165.183,203 171.183,209 177.183,209"/>
<text text-anchor="middle" x="221" y="134.2" font-family="Times,serif" font-size="14.00">SearchController</text>
<polyline fill="none" stroke="black" points="165.183,141 276.817,141 "/>
<text text-anchor="start" x="173.183" y="156.2" font-family="Times,serif" font-size="14.00">tokyo1</text>
<polyline fill="none" stroke="black" points="165.183,163 276.817,163 "/>
<polyline fill="none" stroke="black" points="165.183,187 276.817,187 "/>
<text text-anchor="start" x="173.183" y="202.2" font-family="Times,serif" font-size="14.00">_layout</text>
</g>
<!-- ShopbranchesController -->
<g id="node5" class="node"><title>ShopbranchesController</title>
<path fill="none" stroke="black" d="M-78.0415,89C-78.0415,89 50.0415,89 50.0415,89 56.0415,89 62.0415,83 62.0415,77 62.0415,77 62.0415,-73 62.0415,-73 62.0415,-79 56.0415,-85 50.0415,-85 50.0415,-85 -78.0415,-85 -78.0415,-85 -84.0415,-85 -90.0415,-79 -90.0415,-73 -90.0415,-73 -90.0415,77 -90.0415,77 -90.0415,83 -84.0415,89 -78.0415,89"/>
<text text-anchor="middle" x="-14" y="-69.8" font-family="Times,serif" font-size="14.00">ShopbranchesController</text>
<polyline fill="none" stroke="black" points="-90.0415,-63 62.0415,-63 "/>
<text text-anchor="start" x="-82.0415" y="-47.8" font-family="Times,serif" font-size="14.00">create</text>
<text text-anchor="start" x="-82.0415" y="-33.8" font-family="Times,serif" font-size="14.00">destroy</text>
<text text-anchor="start" x="-82.0415" y="-19.8" font-family="Times,serif" font-size="14.00">edit</text>
<text text-anchor="start" x="-82.0415" y="-5.8" font-family="Times,serif" font-size="14.00">index</text>
<text text-anchor="start" x="-82.0415" y="8.2" font-family="Times,serif" font-size="14.00">new</text>
<text text-anchor="start" x="-82.0415" y="22.2" font-family="Times,serif" font-size="14.00">show</text>
<polyline fill="none" stroke="black" points="-90.0415,29 62.0415,29 "/>
<polyline fill="none" stroke="black" points="-90.0415,53 62.0415,53 "/>
<text text-anchor="start" x="-82.0415" y="68.2" font-family="Times,serif" font-size="14.00">_layout</text>
<text text-anchor="start" x="-82.0415" y="82.2" font-family="Times,serif" font-size="14.00">branch_params</text>
</g>
<!-- ShopfbsController -->
<g id="node6" class="node"><title>ShopfbsController</title>
<path fill="none" stroke="black" d="M-182.721,-196C-182.721,-196 -87.2793,-196 -87.2793,-196 -81.2793,-196 -75.2793,-202 -75.2793,-208 -75.2793,-208 -75.2793,-276 -75.2793,-276 -75.2793,-282 -81.2793,-288 -87.2793,-288 -87.2793,-288 -182.721,-288 -182.721,-288 -188.721,-288 -194.721,-282 -194.721,-276 -194.721,-276 -194.721,-208 -194.721,-208 -194.721,-202 -188.721,-196 -182.721,-196"/>
<text text-anchor="middle" x="-135" y="-272.8" font-family="Times,serif" font-size="14.00">ShopfbsController</text>
<polyline fill="none" stroke="black" points="-194.721,-266 -75.2793,-266 "/>
<polyline fill="none" stroke="black" points="-194.721,-242 -75.2793,-242 "/>
<polyline fill="none" stroke="black" points="-194.721,-218 -75.2793,-218 "/>
<text text-anchor="start" x="-186.721" y="-202.8" font-family="Times,serif" font-size="14.00">_layout</text>
</g>
<!-- ShopinfosController -->
<g id="node7" class="node"><title>ShopinfosController</title>
<path fill="none" stroke="black" d="M101.834,89C101.834,89 208.166,89 208.166,89 214.166,89 220.166,83 220.166,77 220.166,77 220.166,-73 220.166,-73 220.166,-79 214.166,-85 208.166,-85 208.166,-85 101.834,-85 101.834,-85 95.8345,-85 89.8345,-79 89.8345,-73 89.8345,-73 89.8345,77 89.8345,77 89.8345,83 95.8345,89 101.834,89"/>
<text text-anchor="middle" x="155" y="-69.8" font-family="Times,serif" font-size="14.00">ShopinfosController</text>
<polyline fill="none" stroke="black" points="89.8345,-63 220.166,-63 "/>
<text text-anchor="start" x="97.8345" y="-47.8" font-family="Times,serif" font-size="14.00">create</text>
<text text-anchor="start" x="97.8345" y="-33.8" font-family="Times,serif" font-size="14.00">destroy</text>
<text text-anchor="start" x="97.8345" y="-19.8" font-family="Times,serif" font-size="14.00">edit</text>
<text text-anchor="start" x="97.8345" y="-5.8" font-family="Times,serif" font-size="14.00">index</text>
<text text-anchor="start" x="97.8345" y="8.2" font-family="Times,serif" font-size="14.00">new</text>
<text text-anchor="start" x="97.8345" y="22.2" font-family="Times,serif" font-size="14.00">show</text>
<polyline fill="none" stroke="black" points="89.8345,29 220.166,29 "/>
<polyline fill="none" stroke="black" points="89.8345,53 220.166,53 "/>
<text text-anchor="start" x="97.8345" y="68.2" font-family="Times,serif" font-size="14.00">_layout</text>
<text text-anchor="start" x="97.8345" y="82.2" font-family="Times,serif" font-size="14.00">shop_params</text>
</g>
<!-- StaticPagesController -->
<g id="node8" class="node"><title>StaticPagesController</title>
<path fill="none" stroke="black" d="M-33.0449,-121C-33.0449,-121 81.0449,-121 81.0449,-121 87.0449,-121 93.0449,-127 93.0449,-133 93.0449,-133 93.0449,-227 93.0449,-227 93.0449,-233 87.0449,-239 81.0449,-239 81.0449,-239 -33.0449,-239 -33.0449,-239 -39.0449,-239 -45.0449,-233 -45.0449,-227 -45.0449,-227 -45.0449,-133 -45.0449,-133 -45.0449,-127 -39.0449,-121 -33.0449,-121"/>
<text text-anchor="middle" x="24" y="-223.8" font-family="Times,serif" font-size="14.00">StaticPagesController</text>
<polyline fill="none" stroke="black" points="-45.0449,-217 93.0449,-217 "/>
<text text-anchor="start" x="-37.0449" y="-201.8" font-family="Times,serif" font-size="14.00">home</text>
<text text-anchor="start" x="-37.0449" y="-187.8" font-family="Times,serif" font-size="14.00">toku1</text>
<text text-anchor="start" x="-37.0449" y="-173.8" font-family="Times,serif" font-size="14.00">toku2</text>
<polyline fill="none" stroke="black" points="-45.0449,-167 93.0449,-167 "/>
<polyline fill="none" stroke="black" points="-45.0449,-143 93.0449,-143 "/>
<text text-anchor="start" x="-37.0449" y="-127.8" font-family="Times,serif" font-size="14.00">_layout</text>
</g>
</g>
</svg>
