<?xml version="1.0" encoding="UTF-8" standalone="no"?>
<!DOCTYPE svg PUBLIC "-//W3C//DTD SVG 1.1//EN"
 "http://www.w3.org/Graphics/SVG/1.1/DTD/svg11.dtd">
<!-- Generated by graphviz version 2.38.0 (20140413.2041)
 -->
<!-- Title: models_diagram Pages: 1 -->
<svg width="668pt" height="778pt"
 viewBox="0.00 0.00 667.96 778.00" xmlns="http://www.w3.org/2000/svg" xmlns:xlink="http://www.w3.org/1999/xlink">
<g id="graph0" class="graph" transform="scale(1 1) rotate(0) translate(4 774)">
<title>models_diagram</title>
<polygon fill="none" stroke="none" points="-4,4 -4,-774 663.955,-774 663.955,4 -4,4"/>
<!-- _diagram_info -->
<g id="node1" class="node"><title>_diagram_info</title>
<text text-anchor="start" x="8" y="-629.6" font-family="Times,serif" font-size="13.00">Models diagram</text>
<text text-anchor="start" x="8" y="-616.6" font-family="Times,serif" font-size="13.00">Date: Jul 01 2016 &#45; 11:21</text>
<text text-anchor="start" x="8" y="-603.6" font-family="Times,serif" font-size="13.00">Migration version: 20160620110745</text>
<text text-anchor="start" x="8" y="-590.6" font-family="Times,serif" font-size="13.00">Generated by RailRoady 1.5.1</text>
<text text-anchor="start" x="8" y="-577.6" font-family="Times,serif" font-size="13.00">http://railroady.prestonlee.com</text>
</g>
<!-- Article -->
<g id="node2" class="node"><title>Article</title>
<path fill="none" stroke="black" d="M236.944,-543.5C236.944,-543.5 345.955,-543.5 345.955,-543.5 351.955,-543.5 357.955,-549.5 357.955,-555.5 357.955,-555.5 357.955,-659.5 357.955,-659.5 357.955,-665.5 351.955,-671.5 345.955,-671.5 345.955,-671.5 236.944,-671.5 236.944,-671.5 230.944,-671.5 224.944,-665.5 224.944,-659.5 224.944,-659.5 224.944,-555.5 224.944,-555.5 224.944,-549.5 230.944,-543.5 236.944,-543.5"/>
<text text-anchor="middle" x="291.45" y="-656.3" font-family="Times,serif" font-size="14.00">Article</text>
<polyline fill="none" stroke="black" points="224.944,-649.5 357.955,-649.5 "/>
<text text-anchor="start" x="232.944" y="-634.3" font-family="Times,serif" font-size="14.00">category :varchar</text>
<text text-anchor="start" x="232.944" y="-620.3" font-family="Times,serif" font-size="14.00">title :varchar</text>
<text text-anchor="start" x="232.944" y="-606.3" font-family="Times,serif" font-size="14.00">article :text</text>
<text text-anchor="start" x="232.944" y="-592.3" font-family="Times,serif" font-size="14.00">id :INTEGER</text>
<text text-anchor="start" x="232.944" y="-578.3" font-family="Times,serif" font-size="14.00">picthum :varchar</text>
<text text-anchor="start" x="232.944" y="-564.3" font-family="Times,serif" font-size="14.00">created_at :datetime</text>
<text text-anchor="start" x="232.944" y="-550.3" font-family="Times,serif" font-size="14.00">updated_at :datetime</text>
</g>
<!-- Shopbranch -->
<g id="node3" class="node"><title>Shopbranch</title>
<path fill="none" stroke="black" d="M387.568,-0.5C387.568,-0.5 497.331,-0.5 497.331,-0.5 503.331,-0.5 509.331,-6.5 509.331,-12.5 509.331,-12.5 509.331,-396.5 509.331,-396.5 509.331,-402.5 503.331,-408.5 497.331,-408.5 497.331,-408.5 387.568,-408.5 387.568,-408.5 381.568,-408.5 375.568,-402.5 375.568,-396.5 375.568,-396.5 375.568,-12.5 375.568,-12.5 375.568,-6.5 381.568,-0.5 387.568,-0.5"/>
<text text-anchor="middle" x="442.45" y="-393.3" font-family="Times,serif" font-size="14.00">Shopbranch</text>
<polyline fill="none" stroke="black" points="375.568,-386.5 509.331,-386.5 "/>
<text text-anchor="start" x="383.568" y="-371.3" font-family="Times,serif" font-size="14.00">updated_at :datetime</text>
<text text-anchor="start" x="383.568" y="-357.3" font-family="Times,serif" font-size="14.00">shopinfo_id :varchar</text>
<text text-anchor="start" x="383.568" y="-343.3" font-family="Times,serif" font-size="14.00">shopname :varchar</text>
<text text-anchor="start" x="383.568" y="-329.3" font-family="Times,serif" font-size="14.00">branchname :varchar</text>
<text text-anchor="start" x="383.568" y="-315.3" font-family="Times,serif" font-size="14.00">address :varchar</text>
<text text-anchor="start" x="383.568" y="-301.3" font-family="Times,serif" font-size="14.00">tel :integer</text>
<text text-anchor="start" x="383.568" y="-287.3" font-family="Times,serif" font-size="14.00">starthour :varchar</text>
<text text-anchor="start" x="383.568" y="-273.3" font-family="Times,serif" font-size="14.00">endhour :varchar</text>
<text text-anchor="start" x="383.568" y="-259.3" font-family="Times,serif" font-size="14.00">e_starthour :varchar</text>
<text text-anchor="start" x="383.568" y="-245.3" font-family="Times,serif" font-size="14.00">e_endhour :varchar</text>
<text text-anchor="start" x="383.568" y="-231.3" font-family="Times,serif" font-size="14.00">holiday :varchar</text>
<text text-anchor="start" x="383.568" y="-217.3" font-family="Times,serif" font-size="14.00">latitude :integer</text>
<text text-anchor="start" x="383.568" y="-203.3" font-family="Times,serif" font-size="14.00">longitude :integer</text>
<text text-anchor="start" x="383.568" y="-189.3" font-family="Times,serif" font-size="14.00">train :varchar</text>
<text text-anchor="start" x="383.568" y="-175.3" font-family="Times,serif" font-size="14.00">station :varchar</text>
<text text-anchor="start" x="383.568" y="-161.3" font-family="Times,serif" font-size="14.00">train2 :varchar</text>
<text text-anchor="start" x="383.568" y="-147.3" font-family="Times,serif" font-size="14.00">station2 :varchar</text>
<text text-anchor="start" x="383.568" y="-133.3" font-family="Times,serif" font-size="14.00">train3 :varchar</text>
<text text-anchor="start" x="383.568" y="-119.3" font-family="Times,serif" font-size="14.00">station3 :varchar</text>
<text text-anchor="start" x="383.568" y="-105.3" font-family="Times,serif" font-size="14.00">area :varchar</text>
<text text-anchor="start" x="383.568" y="-91.3" font-family="Times,serif" font-size="14.00">prefec :varchar</text>
<text text-anchor="start" x="383.568" y="-77.3" font-family="Times,serif" font-size="14.00">city :varchar</text>
<text text-anchor="start" x="383.568" y="-63.3" font-family="Times,serif" font-size="14.00">access :text</text>
<text text-anchor="start" x="383.568" y="-49.3" font-family="Times,serif" font-size="14.00">sheet :varchar</text>
<text text-anchor="start" x="383.568" y="-35.3" font-family="Times,serif" font-size="14.00">info :text</text>
<text text-anchor="start" x="383.568" y="-21.3" font-family="Times,serif" font-size="14.00">created_at :datetime</text>
<text text-anchor="start" x="383.568" y="-7.3" font-family="Times,serif" font-size="14.00">id :INTEGER</text>
</g>
<!-- Shopfb -->
<g id="node4" class="node"><title>Shopfb</title>
<path fill="none" stroke="black" d="M538.944,-529.5C538.944,-529.5 647.955,-529.5 647.955,-529.5 653.955,-529.5 659.955,-535.5 659.955,-541.5 659.955,-541.5 659.955,-673.5 659.955,-673.5 659.955,-679.5 653.955,-685.5 647.955,-685.5 647.955,-685.5 538.944,-685.5 538.944,-685.5 532.944,-685.5 526.944,-679.5 526.944,-673.5 526.944,-673.5 526.944,-541.5 526.944,-541.5 526.944,-535.5 532.944,-529.5 538.944,-529.5"/>
<text text-anchor="middle" x="593.45" y="-670.3" font-family="Times,serif" font-size="14.00">Shopfb</text>
<polyline fill="none" stroke="black" points="526.944,-663.5 659.955,-663.5 "/>
<text text-anchor="start" x="534.944" y="-648.3" font-family="Times,serif" font-size="14.00">updated_at :datetime</text>
<text text-anchor="start" x="534.944" y="-634.3" font-family="Times,serif" font-size="14.00">shopinfo_id :varchar</text>
<text text-anchor="start" x="534.944" y="-620.3" font-family="Times,serif" font-size="14.00">fbcomment :text</text>
<text text-anchor="start" x="534.944" y="-606.3" font-family="Times,serif" font-size="14.00">auther :varchar</text>
<text text-anchor="start" x="534.944" y="-592.3" font-family="Times,serif" font-size="14.00">fbrank :integer</text>
<text text-anchor="start" x="534.944" y="-578.3" font-family="Times,serif" font-size="14.00">ages :varchar</text>
<text text-anchor="start" x="534.944" y="-564.3" font-family="Times,serif" font-size="14.00">sex :varchar</text>
<text text-anchor="start" x="534.944" y="-550.3" font-family="Times,serif" font-size="14.00">created_at :datetime</text>
<text text-anchor="start" x="534.944" y="-536.3" font-family="Times,serif" font-size="14.00">id :INTEGER</text>
</g>
<!-- Shopinfo -->
<g id="node5" class="node"><title>Shopinfo</title>
<path fill="none" stroke="black" d="M387.944,-445.5C387.944,-445.5 496.955,-445.5 496.955,-445.5 502.955,-445.5 508.955,-451.5 508.955,-457.5 508.955,-457.5 508.955,-757.5 508.955,-757.5 508.955,-763.5 502.955,-769.5 496.955,-769.5 496.955,-769.5 387.944,-769.5 387.944,-769.5 381.944,-769.5 375.944,-763.5 375.944,-757.5 375.944,-757.5 375.944,-457.5 375.944,-457.5 375.944,-451.5 381.944,-445.5 387.944,-445.5"/>
<text text-anchor="middle" x="442.45" y="-754.3" font-family="Times,serif" font-size="14.00">Shopinfo</text>
<polyline fill="none" stroke="black" points="375.944,-747.5 508.955,-747.5 "/>
<text text-anchor="start" x="383.944" y="-732.3" font-family="Times,serif" font-size="14.00">updated_at :datetime</text>
<text text-anchor="start" x="383.944" y="-718.3" font-family="Times,serif" font-size="14.00">shopname :varchar</text>
<text text-anchor="start" x="383.944" y="-704.3" font-family="Times,serif" font-size="14.00">company :text</text>
<text text-anchor="start" x="383.944" y="-690.3" font-family="Times,serif" font-size="14.00">affili :varchar</text>
<text text-anchor="start" x="383.944" y="-676.3" font-family="Times,serif" font-size="14.00">ranking :integer</text>
<text text-anchor="start" x="383.944" y="-662.3" font-family="Times,serif" font-size="14.00">recommend :text</text>
<text text-anchor="start" x="383.944" y="-648.3" font-family="Times,serif" font-size="14.00">shoptype :varchar</text>
<text text-anchor="start" x="383.944" y="-634.3" font-family="Times,serif" font-size="14.00">treattype :varchar</text>
<text text-anchor="start" x="383.944" y="-620.3" font-family="Times,serif" font-size="14.00">body :varchar</text>
<text text-anchor="start" x="383.944" y="-606.3" font-family="Times,serif" font-size="14.00">machine :varchar</text>
<text text-anchor="start" x="383.944" y="-592.3" font-family="Times,serif" font-size="14.00">campaign :text</text>
<text text-anchor="start" x="383.944" y="-578.3" font-family="Times,serif" font-size="14.00">price1 :varchar</text>
<text text-anchor="start" x="383.944" y="-564.3" font-family="Times,serif" font-size="14.00">price2 :varchar</text>
<text text-anchor="start" x="383.944" y="-550.3" font-family="Times,serif" font-size="14.00">price3 :varchar</text>
<text text-anchor="start" x="383.944" y="-536.3" font-family="Times,serif" font-size="14.00">pic1 :varchar</text>
<text text-anchor="start" x="383.944" y="-522.3" font-family="Times,serif" font-size="14.00">pic2 :varchar</text>
<text text-anchor="start" x="383.944" y="-508.3" font-family="Times,serif" font-size="14.00">pic3 :varchar</text>
<text text-anchor="start" x="383.944" y="-494.3" font-family="Times,serif" font-size="14.00">pic4 :varchar</text>
<text text-anchor="start" x="383.944" y="-480.3" font-family="Times,serif" font-size="14.00">pic5 :varchar</text>
<text text-anchor="start" x="383.944" y="-466.3" font-family="Times,serif" font-size="14.00">created_at :datetime</text>
<text text-anchor="start" x="383.944" y="-452.3" font-family="Times,serif" font-size="14.00">id :INTEGER</text>
</g>
<!-- Shopinfo&#45;&gt;Shopbranch -->
<g id="edge1" class="edge"><title>Shopinfo&#45;&gt;Shopbranch</title>
<path fill="none" stroke="#3a9dd2" d="M442.45,-437.177C442.45,-431.149 442.45,-425.082 442.45,-418.999"/>
<ellipse fill="none" stroke="#3a9dd2" cx="442.45" cy="-441.42" rx="4" ry="4"/>
<polygon fill="#3a9dd2" stroke="#3a9dd2" points="442.45,-418.751 446.95,-408.751 442.45,-413.751 442.45,-408.751 442.45,-408.751 442.45,-408.751 442.45,-413.751 437.95,-408.751 442.45,-418.751 442.45,-418.751"/>
</g>
</g>
</svg>
