<?xml version="1.0" encoding="UTF-8" standalone="no"?>
<!DOCTYPE svg PUBLIC "-//W3C//DTD SVG 1.1//EN"
 "http://www.w3.org/Graphics/SVG/1.1/DTD/svg11.dtd">
<!-- Generated by graphviz version 2.38.0 (20140413.2041)
 -->
<!-- Title: models_diagram Pages: 1 -->
<svg width="494pt" height="153pt"
 viewBox="0.00 0.00 494.11 153.00" xmlns="http://www.w3.org/2000/svg" xmlns:xlink="http://www.w3.org/1999/xlink">
<g id="graph0" class="graph" transform="scale(1 1) rotate(0) translate(4 149)">
<title>models_diagram</title>
<polygon fill="none" stroke="none" points="-4,4 -4,-149 490.107,-149 490.107,4 -4,4"/>
<!-- _diagram_info -->
<g id="node1" class="node"><title>_diagram_info</title>
<text text-anchor="start" x="8" y="-130.6" font-family="Times,serif" font-size="13.00">Models diagram</text>
<text text-anchor="start" x="8" y="-117.6" font-family="Times,serif" font-size="13.00">Date: Jul 01 2016 &#45; 11:21</text>
<text text-anchor="start" x="8" y="-104.6" font-family="Times,serif" font-size="13.00">Migration version: 20160620110745</text>
<text text-anchor="start" x="8" y="-91.6" font-family="Times,serif" font-size="13.00">Generated by RailRoady 1.5.1</text>
<text text-anchor="start" x="8" y="-78.6" font-family="Times,serif" font-size="13.00">http://railroady.prestonlee.com</text>
</g>
<!-- Article -->
<g id="node2" class="node"><title>Article</title>
<ellipse fill="none" stroke="black" cx="259.45" cy="-108.5" rx="34.8198" ry="18"/>
<text text-anchor="middle" x="259.45" y="-104.3" font-family="Times,serif" font-size="14.00">Article</text>
</g>
<!-- Shopbranch -->
<g id="node3" class="node"><title>Shopbranch</title>
<ellipse fill="none" stroke="black" cx="354.45" cy="-18" rx="52.202" ry="18"/>
<text text-anchor="middle" x="354.45" y="-13.8" font-family="Times,serif" font-size="14.00">Shopbranch</text>
</g>
<!-- Shopfb -->
<g id="node4" class="node"><title>Shopfb</title>
<ellipse fill="none" stroke="black" cx="450.45" cy="-108.5" rx="35.8147" ry="18"/>
<text text-anchor="middle" x="450.45" y="-104.3" font-family="Times,serif" font-size="14.00">Shopfb</text>
</g>
<!-- Shopinfo -->
<g id="node5" class="node"><title>Shopinfo</title>
<ellipse fill="none" stroke="black" cx="354.45" cy="-108.5" rx="42.5715" ry="18"/>
<text text-anchor="middle" x="354.45" y="-104.3" font-family="Times,serif" font-size="14.00">Shopinfo</text>
</g>
<!-- Shopinfo&#45;&gt;Shopbranch -->
<g id="edge1" class="edge"><title>Shopinfo&#45;&gt;Shopbranch</title>
<path fill="none" stroke="#c2ef3d" d="M354.45,-82.189C354.45,-70.9711 354.45,-57.7517 354.45,-46.3113"/>
<ellipse fill="none" stroke="#c2ef3d" cx="354.45" cy="-86.4363" rx="4" ry="4"/>
<polygon fill="#c2ef3d" stroke="#c2ef3d" points="354.45,-46.0113 358.95,-36.0113 354.45,-41.0113 354.45,-36.0113 354.45,-36.0113 354.45,-36.0113 354.45,-41.0113 349.95,-36.0113 354.45,-46.0113 354.45,-46.0113"/>
</g>
</g>
</svg>
